<svg width="148" height="148" viewBox="0 0 148 148" fill="none" xmlns="http://www.w3.org/2000/svg">
<g clip-path="url(#clip0_29_335)">
<path d="M73.6375 77.8828C73.7411 77.8828 73.8446 77.8828 73.9689 77.8828C74.0103 77.8828 74.0517 77.8828 74.0931 77.8828C74.1552 77.8828 74.2381 77.8828 74.3002 77.8828C80.3677 77.7793 85.2755 75.6463 88.8995 71.5668C96.8721 62.5794 95.5468 47.1725 95.4019 45.7022C94.8842 34.6647 89.6657 29.3841 85.3584 26.9199C82.1486 25.0768 78.4004 24.0828 74.2174 24H74.0724C74.0517 24 74.0103 24 73.9896 24H73.8653C71.5667 24 67.0523 24.3727 62.7243 26.837C58.3756 29.3013 53.0743 34.5819 52.5566 45.7022C52.4116 47.1725 51.0863 62.5794 59.0589 71.5668C62.6622 75.6463 67.57 77.7793 73.6375 77.8828ZM58.0857 46.2199C58.0857 46.1578 58.1064 46.0957 58.1064 46.0543C58.7897 31.2065 69.3302 29.6119 73.8446 29.6119H73.9274C73.9689 29.6119 74.031 29.6119 74.0931 29.6119C79.6843 29.7362 89.1894 32.0141 89.8314 46.0543C89.8314 46.1164 89.8314 46.1785 89.8521 46.2199C89.8728 46.3649 91.3223 60.4465 84.7371 67.86C82.1279 70.8006 78.6489 72.2502 74.0724 72.2916C74.031 72.2916 74.0103 72.2916 73.9689 72.2916C73.9274 72.2916 73.9067 72.2916 73.8653 72.2916C69.3095 72.2502 65.8098 70.8006 63.2213 67.86C56.6568 60.4879 58.0649 46.3442 58.0857 46.2199Z" fill="#fff"/>
<path d="M116.524 103.437C116.524 103.416 116.524 103.396 116.524 103.375C116.524 103.209 116.504 103.043 116.504 102.857C116.379 98.7569 116.11 89.169 107.123 86.1042C107.061 86.0835 106.978 86.0628 106.916 86.042C97.5762 83.6606 89.8107 78.2765 89.7278 78.2143C88.4646 77.3239 86.7251 77.6345 85.8347 78.8977C84.9442 80.1609 85.2549 81.9004 86.5181 82.7909C86.8701 83.0393 95.112 88.7755 105.425 91.4262C110.25 93.145 110.788 98.3013 110.933 103.023C110.933 103.209 110.933 103.375 110.954 103.54C110.974 105.404 110.85 108.283 110.519 109.939C107.164 111.844 94.0144 118.43 74.0103 118.43C54.089 118.43 40.8564 111.824 37.481 109.919C37.1497 108.262 37.0047 105.384 37.0461 103.52C37.0461 103.354 37.0668 103.188 37.0668 103.002C37.2118 98.2806 37.7502 93.1243 42.5752 91.4055C52.8879 88.7548 61.1298 82.9979 61.4818 82.7701C62.745 81.8797 63.0556 80.1402 62.1652 78.877C61.2747 77.6138 59.5352 77.3032 58.272 78.1936C58.1892 78.2558 50.465 83.6399 41.0842 86.0213C41.0014 86.042 40.9393 86.0627 40.8771 86.0835C31.8898 89.169 31.6206 98.7569 31.4963 102.836C31.4963 103.023 31.4963 103.188 31.4756 103.354C31.4756 103.375 31.4756 103.396 31.4756 103.416C31.4549 104.493 31.4342 110.022 32.5317 112.797C32.7388 113.335 33.1116 113.791 33.6086 114.102C34.2298 114.516 49.119 124 74.031 124C98.943 124 113.832 114.495 114.453 114.102C114.93 113.791 115.323 113.335 115.53 112.797C116.566 110.043 116.545 104.514 116.524 103.437Z" fill="#fff"/>
</g>
<path d="M74 144C112.66 144 144 112.66 144 74C144 35.3401 112.66 4 74 4C35.3401 4 4 35.3401 4 74C4 112.66 35.3401 144 74 144Z" stroke="#fff" stroke-width="7" stroke-miterlimit="10" stroke-linecap="round" stroke-linejoin="round"/>
<defs>
<clipPath id="clip0_29_335">
<rect width="100" height="100" fill="white" transform="translate(24 24)"/>
</clipPath>
</defs>
</svg>
