<svg width="981" height="981" viewBox="0 0 981 981" fill="none" xmlns="http://www.w3.org/2000/svg">

<path d="M488.101 487.062C488.929 487.062 489.758 487.062 490.751 487.062C491.083 487.062 491.414 487.062 491.745 487.062C492.242 487.062 492.905 487.062 493.402 487.062C541.942 486.234 581.205 469.17 610.197 436.534C673.978 364.635 663.375 241.38 662.216 229.618C658.074 141.318 616.326 99.0731 581.868 79.3589C556.189 64.6146 526.204 56.6627 492.739 56H491.58C491.414 56 491.083 56 490.917 56H489.923C471.534 56 435.419 58.982 400.795 78.6962C366.005 98.4104 323.595 140.655 319.453 229.618C318.293 241.38 307.691 364.635 371.472 436.534C400.298 469.17 439.561 486.234 488.101 487.062ZM363.686 233.759C363.686 233.262 363.852 232.765 363.852 232.434C369.318 113.652 453.642 100.895 489.757 100.895H490.42C490.752 100.895 491.248 100.895 491.745 100.895C536.475 101.889 612.516 120.113 617.651 232.434C617.651 232.931 617.651 233.428 617.817 233.759C617.983 234.919 629.579 347.572 576.898 406.88C556.024 430.405 528.192 442.001 491.58 442.333C491.248 442.333 491.083 442.333 490.751 442.333C490.42 442.333 490.254 442.333 489.923 442.333C453.477 442.001 425.479 430.405 404.771 406.88C352.255 347.903 363.52 234.753 363.686 233.759Z" fill="#fff"/>
<path d="M831.195 691.494C831.195 691.328 831.195 691.163 831.195 690.997C831.195 689.672 831.029 688.346 831.029 686.855C830.035 654.053 827.881 577.35 755.982 552.832C755.485 552.666 754.823 552.5 754.326 552.335C679.61 533.283 617.486 490.21 616.823 489.713C606.718 482.589 592.802 485.074 585.678 495.18C578.554 505.286 581.039 519.201 591.145 526.325C593.961 528.313 659.896 574.203 742.398 595.408C780.998 609.158 785.305 650.409 786.465 688.181C786.465 689.672 786.465 690.997 786.631 692.322C786.796 707.232 785.802 730.26 783.152 743.513C756.314 758.754 651.116 811.436 491.083 811.436C331.712 811.436 225.852 758.589 198.848 743.347C196.198 730.094 195.038 707.066 195.369 692.157C195.369 690.831 195.535 689.506 195.535 688.015C196.695 650.243 201.002 608.992 239.602 595.242C322.104 574.037 388.039 527.982 390.855 526.159C400.961 519.036 403.446 505.12 396.322 495.014C389.198 484.909 375.282 482.424 365.177 489.547C364.514 490.044 302.721 533.117 227.674 552.169C227.012 552.335 226.515 552.5 226.018 552.666C154.119 577.35 151.965 654.053 150.971 686.69C150.971 688.181 150.971 689.506 150.805 690.831C150.805 690.997 150.805 691.163 150.805 691.328C150.64 699.943 150.474 744.176 159.254 766.375C160.911 770.682 163.893 774.327 167.869 776.812C172.839 780.125 291.953 856 491.249 856C690.544 856 809.658 779.959 814.628 776.812C818.438 774.327 821.586 770.682 823.243 766.375C831.526 744.341 831.36 700.109 831.195 691.494Z" fill="#fff"/>
</svg>
