<svg width="268" height="51" viewBox="0 0 268 51" fill="none" xmlns="http://www.w3.org/2000/svg">
<path d="M29.2065 18.5825C30.5962 16.5404 31.6636 14.3331 32.3837 12.017C35.3038 17.8619 41.6542 21.9221 49 21.9221V27.8749C48.9795 27.8749 48.9589 27.8749 48.9384 27.8748C38.8338 27.8748 30.6126 35.5575 30.6126 45H24.2424V44.9963C24.2424 36.3739 29.3287 28.8415 36.8462 24.8813C33.8569 23.2953 31.2542 21.1433 29.2065 18.5825Z" fill="#589CFF"/>
<path d="M22.1218 37C19.3802 31.562 13.5838 27.7254 6.81584 27.4385C6.54467 27.447 6.27266 27.4513 6 27.4514V21.6303C6.27368 21.6303 6.54634 21.6346 6.81789 21.6432C11.267 21.4561 15.4229 19.7456 18.5959 16.7813C21.9626 13.636 23.8084 9.44828 23.8084 5H30C30 10.9974 27.504 16.6328 22.9687 20.8748C21.414 22.3289 19.6843 23.5588 17.824 24.5475C20.7178 26.0858 23.2384 28.1704 25.2241 30.6505C23.8919 32.6 22.8398 34.7333 22.1218 37Z" fill="#589CFF"/>
<path d="M70.76 41L61.68 12.76H67.92L74.56 34.48H72.12L78.6 12.76H83.52L90 34.48H87.6L94.2 12.76H100.4L91.32 41H86.4L79.88 19.28H82.2L75.68 41H70.76ZM103.238 41V21.56H109.358V41H103.238ZM106.318 18.88C105.358 18.88 104.558 18.56 103.918 17.92C103.305 17.2533 102.998 16.4533 102.998 15.52C102.998 14.56 103.305 13.76 103.918 13.12C104.558 12.48 105.358 12.16 106.318 12.16C107.278 12.16 108.065 12.48 108.678 13.12C109.291 13.76 109.598 14.56 109.598 15.52C109.598 16.4533 109.291 17.2533 108.678 17.92C108.065 18.56 107.278 18.88 106.318 18.88ZM120.748 41.48C119.601 41.48 118.468 41.3333 117.348 41.04C116.254 40.7467 115.228 40.3333 114.268 39.8C113.334 39.24 112.534 38.6 111.868 37.88L115.348 34.36C115.988 35.0533 116.748 35.6 117.628 36C118.508 36.3733 119.468 36.56 120.508 36.56C121.228 36.56 121.774 36.4533 122.148 36.24C122.548 36.0267 122.748 35.7333 122.748 35.36C122.748 34.88 122.508 34.52 122.028 34.28C121.574 34.0133 120.988 33.7867 120.268 33.6C119.548 33.3867 118.788 33.16 117.988 32.92C117.188 32.68 116.428 32.3467 115.708 31.92C114.988 31.4933 114.401 30.9067 113.948 30.16C113.494 29.3867 113.268 28.4133 113.268 27.24C113.268 25.9867 113.588 24.9067 114.228 24C114.868 23.0667 115.774 22.3333 116.948 21.8C118.121 21.2667 119.494 21 121.068 21C122.721 21 124.241 21.2933 125.628 21.88C127.041 22.44 128.188 23.28 129.068 24.4L125.588 27.92C124.974 27.2 124.281 26.6933 123.508 26.4C122.761 26.1067 122.028 25.96 121.308 25.96C120.614 25.96 120.094 26.0667 119.748 26.28C119.401 26.4667 119.228 26.7467 119.228 27.12C119.228 27.52 119.454 27.84 119.908 28.08C120.361 28.32 120.948 28.5333 121.668 28.72C122.388 28.9067 123.148 29.1333 123.948 29.4C124.748 29.6667 125.508 30.0267 126.228 30.48C126.948 30.9333 127.534 31.5467 127.988 32.32C128.441 33.0667 128.668 34.0533 128.668 35.28C128.668 37.1733 127.948 38.68 126.508 39.8C125.094 40.92 123.174 41.48 120.748 41.48ZM141.588 41.44C139.481 41.44 137.601 41.0133 135.948 40.16C134.321 39.28 133.041 38.0667 132.108 36.52C131.175 34.9733 130.708 33.2267 130.708 31.28C130.708 29.3333 131.161 27.6 132.068 26.08C133.001 24.5333 134.255 23.32 135.828 22.44C137.401 21.56 139.175 21.12 141.148 21.12C143.068 21.12 144.761 21.5333 146.228 22.36C147.695 23.1867 148.841 24.3333 149.668 25.8C150.521 27.2667 150.948 28.9467 150.948 30.84C150.948 31.1867 150.921 31.56 150.868 31.96C150.841 32.3333 150.775 32.7733 150.668 33.28L133.908 33.32V29.12L148.068 29.08L145.428 30.84C145.401 29.72 145.228 28.8 144.908 28.08C144.588 27.3333 144.108 26.7733 143.468 26.4C142.855 26 142.095 25.8 141.188 25.8C140.228 25.8 139.388 26.0267 138.668 26.48C137.975 26.9067 137.428 27.52 137.028 28.32C136.655 29.12 136.468 30.0933 136.468 31.24C136.468 32.3867 136.668 33.3733 137.068 34.2C137.495 35 138.081 35.6267 138.828 36.08C139.601 36.5067 140.508 36.72 141.548 36.72C142.508 36.72 143.375 36.56 144.148 36.24C144.921 35.8933 145.601 35.3867 146.188 34.72L149.548 38.08C148.588 39.2 147.428 40.04 146.068 40.6C144.708 41.16 143.215 41.44 141.588 41.44ZM159.262 41V36.12H165.902C167.129 36.12 168.089 35.76 168.782 35.04C169.476 34.32 169.822 33.44 169.822 32.4C169.822 31.68 169.662 31.04 169.342 30.48C169.022 29.92 168.569 29.48 167.982 29.16C167.422 28.84 166.729 28.68 165.902 28.68H159.262V23.92H165.382C166.422 23.92 167.262 23.6667 167.902 23.16C168.542 22.6267 168.862 21.8267 168.862 20.76C168.862 19.72 168.542 18.9467 167.902 18.44C167.262 17.9067 166.422 17.64 165.382 17.64H159.262V12.76H166.582C168.396 12.76 169.929 13.0933 171.182 13.76C172.462 14.4267 173.436 15.32 174.102 16.44C174.769 17.56 175.102 18.8 175.102 20.16C175.102 21.8933 174.542 23.36 173.422 24.56C172.302 25.76 170.649 26.5867 168.462 27.04L168.622 24.92C170.996 25.3733 172.822 26.2933 174.102 27.68C175.409 29.0667 176.062 30.7733 176.062 32.8C176.062 34.3467 175.676 35.7467 174.902 37C174.156 38.2267 173.062 39.2 171.622 39.92C170.209 40.64 168.502 41 166.502 41H159.262ZM154.462 41V12.76H160.662V41H154.462ZM188.887 41.44C186.887 41.44 185.074 41 183.447 40.12C181.847 39.2133 180.581 37.9867 179.647 36.44C178.714 34.8933 178.247 33.16 178.247 31.24C178.247 29.32 178.714 27.6 179.647 26.08C180.581 24.56 181.847 23.36 183.447 22.48C185.047 21.5733 186.861 21.12 188.887 21.12C190.914 21.12 192.727 21.56 194.327 22.44C195.927 23.32 197.194 24.5333 198.127 26.08C199.061 27.6 199.527 29.32 199.527 31.24C199.527 33.16 199.061 34.8933 198.127 36.44C197.194 37.9867 195.927 39.2133 194.327 40.12C192.727 41 190.914 41.44 188.887 41.44ZM188.887 35.88C189.767 35.88 190.541 35.6933 191.207 35.32C191.874 34.92 192.381 34.3733 192.727 33.68C193.101 32.96 193.287 32.1467 193.287 31.24C193.287 30.3333 193.101 29.5467 192.727 28.88C192.354 28.1867 191.834 27.6533 191.167 27.28C190.527 26.88 189.767 26.68 188.887 26.68C188.034 26.68 187.274 26.88 186.607 27.28C185.941 27.6533 185.421 28.1867 185.047 28.88C184.674 29.5733 184.487 30.3733 184.487 31.28C184.487 32.16 184.674 32.96 185.047 33.68C185.421 34.3733 185.941 34.92 186.607 35.32C187.274 35.6933 188.034 35.88 188.887 35.88ZM204.943 41V13.52H211.063V41H204.943ZM200.543 26.76V21.56H215.463V26.76H200.543ZM220.633 41.44C219.593 41.44 218.726 41.08 218.033 40.36C217.339 39.64 216.993 38.7733 216.993 37.76C216.993 36.6933 217.339 35.8133 218.033 35.12C218.726 34.4 219.593 34.04 220.633 34.04C221.699 34.04 222.566 34.4 223.233 35.12C223.926 35.8133 224.273 36.6933 224.273 37.76C224.273 38.7733 223.926 39.64 223.233 40.36C222.566 41.08 221.699 41.44 220.633 41.44ZM227.225 41L238.425 12.76H244.105L255.185 41H248.545L240.065 17.56H242.345L233.745 41H227.225ZM233.585 35.88V30.76H248.985V35.88H233.585ZM258.173 41V12.76H264.453V41H258.173Z" fill="white"/>
</svg>
