<svg width="688" height="113" viewBox="0 0 688 113" fill="none" xmlns="http://www.w3.org/2000/svg">
<path d="M55.6479 78.0552C55.835 76.8192 64.9714 60.1635 65.7602 58.6672L73.3165 44.4179C73.9703 43.2376 75.2327 40.441 75.9228 39.7243C76.2054 39.9904 76.1285 39.9087 76.3539 40.262L83.8158 53.9383C85.3268 56.6332 85.1675 56.0475 83.6514 58.7619C81.9363 61.8328 80.273 65.3241 78.549 68.3998L73.4701 77.9173L55.6479 78.0552ZM102.615 77.7264C102.804 76.5979 103.557 75.5981 104.097 74.5663C104.615 73.575 105.048 72.7949 105.602 71.7613L111.614 60.4207C112.155 59.4089 113.992 55.3756 114.841 54.8847C115.377 56.2609 122.694 69.4072 124.073 71.8833C124.688 72.9897 125.035 73.6722 125.58 74.6585C126.142 75.6728 126.79 76.6029 127.068 77.5588L102.615 77.7264ZM121.391 12.9053C120.469 12.9053 119.559 12.9542 118.661 13.0479C118.22 13.6753 117.844 14.589 117.455 15.3267C116.862 16.4505 116.456 17.1972 115.908 18.2404L94.2126 59.0769C92.0244 63.1859 90.1646 66.7751 88.1073 70.6881L80.3727 85.1518C78.4569 88.8466 75.0962 87.901 69.9531 87.9355C64.2291 87.9728 58.5048 88.0147 52.7803 88.054C50.5359 88.0695 46.6378 88.5151 44.9633 87.3967C43.258 86.2582 41.9816 83.7009 43.1411 81.0349L49.341 69.3195C53.41 61.5631 57.6506 53.7613 61.7546 46.0697L67.8608 34.465C68.9076 32.5326 69.9726 30.52 70.963 28.607C71.9804 26.6402 73.0422 24.5713 75.8301 24.5469C78.7446 24.521 79.5564 26.4832 80.7452 28.5392C81.812 30.3834 82.7977 32.3217 83.9289 34.3523L90.2713 45.9257C90.9194 45.6376 92.9357 41.2744 93.4167 40.3567C94.4272 38.4295 95.5592 36.3659 96.5307 34.5088C97.494 32.6666 101.102 25.8274 104.895 18.6791C98.1129 9.74487 87.5475 4 75.6765 4C55.8294 4 39.6263 20.0547 38.661 40.2327C37.4731 40.0907 36.2661 40.0099 35.0405 40.0099C17.8975 40.0099 4 54.311 4 71.9531C4 89.5952 17.8981 103.897 35.0405 103.897H63.1376H77.7114L89.4539 81.9239C91.9033 77.1421 93.67 74.0733 96.1107 69.3768L107.658 47.6831C108.668 45.8115 110.317 41.9801 111.731 40.76C114.205 38.6243 117.333 39.8184 118.745 42.3719L126.634 56.7687C129.052 61.2949 131.813 66.3334 134.427 71.0505C135.419 72.8408 139.873 80.1984 139.96 82.2031C140.249 88.8959 132.513 87.5127 128.901 87.5392L107.793 87.6847C104.351 87.7086 100.52 87.5666 97.1271 87.7839C95.9649 89.6126 91.7603 97.6067 88.4664 103.897H152.808H152.809C169.952 103.897 183.849 89.5952 183.849 71.9531C183.849 54.311 169.951 40.0099 152.809 40.0099C151.209 40.0099 149.638 40.135 148.105 40.3747C148.966 26.4689 137.116 13.3335 121.391 12.9053Z" fill="#FE1512"/>
<g filter="url(#filter0_f_213_112)">
<path d="M55.6479 78.0552C55.835 76.8192 64.9714 60.1635 65.7602 58.6672L73.3165 44.4179C73.9703 43.2376 75.2327 40.441 75.9228 39.7243C76.2054 39.9904 76.1285 39.9087 76.3539 40.262L83.8158 53.9383C85.3268 56.6332 85.1675 56.0475 83.6514 58.7619C81.9363 61.8328 80.273 65.3241 78.549 68.3998L73.4701 77.9173L55.6479 78.0552ZM102.615 77.7264C102.804 76.5979 103.557 75.5981 104.097 74.5663C104.615 73.575 105.048 72.7949 105.602 71.7613L111.614 60.4207C112.155 59.4089 113.992 55.3756 114.841 54.8847C115.377 56.2609 122.694 69.4072 124.073 71.8833C124.688 72.9897 125.035 73.6722 125.58 74.6585C126.142 75.6728 126.79 76.6029 127.068 77.5588L102.615 77.7264ZM121.391 12.9053C120.469 12.9053 119.559 12.9542 118.661 13.0479C118.22 13.6753 117.844 14.589 117.455 15.3267C116.862 16.4505 116.456 17.1972 115.908 18.2404L94.2126 59.0769C92.0244 63.1859 90.1646 66.7751 88.1073 70.6881L80.3727 85.1518C78.4569 88.8466 75.0962 87.901 69.9531 87.9355C64.2291 87.9728 58.5048 88.0147 52.7803 88.054C50.5359 88.0695 46.6378 88.5151 44.9633 87.3967C43.258 86.2582 41.9816 83.7009 43.1411 81.0349L49.341 69.3195C53.41 61.5631 57.6506 53.7613 61.7546 46.0697L67.8608 34.465C68.9076 32.5326 69.9726 30.52 70.963 28.607C71.9804 26.6402 73.0422 24.5713 75.8301 24.5469C78.7446 24.521 79.5564 26.4832 80.7452 28.5392C81.812 30.3834 82.7977 32.3217 83.9289 34.3523L90.2713 45.9257C90.9194 45.6376 92.9357 41.2744 93.4167 40.3567C94.4272 38.4295 95.5592 36.3659 96.5307 34.5088C97.494 32.6666 101.102 25.8274 104.895 18.6791C98.1129 9.74487 87.5475 4 75.6765 4C55.8294 4 39.6263 20.0547 38.661 40.2327C37.4731 40.0907 36.2661 40.0099 35.0405 40.0099C17.8975 40.0099 4 54.311 4 71.9531C4 89.5952 17.8981 103.897 35.0405 103.897H63.1376H77.7114L89.4539 81.9239C91.9033 77.1421 93.67 74.0733 96.1107 69.3768L107.658 47.6831C108.668 45.8115 110.317 41.9801 111.731 40.76C114.205 38.6243 117.333 39.8184 118.745 42.3719L126.634 56.7687C129.052 61.2949 131.813 66.3334 134.427 71.0505C135.419 72.8408 139.873 80.1984 139.96 82.2031C140.249 88.8959 132.513 87.5127 128.901 87.5392L107.793 87.6847C104.351 87.7086 100.52 87.5666 97.1271 87.7839C95.9649 89.6126 91.7603 97.6067 88.4664 103.897H152.808H152.809C169.952 103.897 183.849 89.5952 183.849 71.9531C183.849 54.311 169.951 40.0099 152.809 40.0099C151.209 40.0099 149.638 40.135 148.105 40.3747C148.966 26.4689 137.116 13.3335 121.391 12.9053Z" fill="#FE1512"/>
</g>
<path d="M58.5165 83.1587C58.7038 81.9227 67.8401 65.2671 68.629 63.7707L76.1853 49.5214C76.839 48.3411 78.1015 45.5445 78.7915 44.8278C79.0742 45.0939 78.9973 45.0122 79.2227 45.3655L86.6845 59.0418C88.1956 61.7367 88.0363 61.151 86.52 63.8654C84.8051 66.9363 83.1417 70.4276 81.4178 73.5034L76.3389 83.0208L58.5165 83.1587ZM105.483 82.8299C105.673 81.7014 106.426 80.7016 106.966 79.6698C107.484 78.6785 107.917 77.8985 108.47 76.8648L114.483 65.5242C115.024 64.5125 116.861 60.4792 117.71 59.9882C118.246 61.3644 125.563 74.5107 126.941 76.9869C127.557 78.0933 127.904 78.7757 128.449 79.762C129.01 80.7763 129.658 81.7064 129.936 82.6623L105.483 82.8299ZM124.26 18.0088C123.338 18.0088 122.428 18.0577 121.53 18.1514C121.089 18.7788 120.713 19.6926 120.324 20.4302C119.731 21.554 119.325 22.3008 118.776 23.3439L97.0812 64.1805C94.8932 68.2894 93.0333 71.8786 90.9759 75.7917L83.2413 90.2553C81.3256 93.9501 77.9649 93.0045 72.8217 93.039C67.0979 93.0763 61.3734 93.1182 55.6491 93.1576C53.4045 93.173 49.5066 93.6186 47.8321 92.5002C46.1267 91.3617 44.8504 88.8044 46.0099 86.1384L52.2096 74.423C56.2786 66.6666 60.5194 58.8648 64.6234 51.1732L70.7296 39.5685C71.7763 37.6361 72.8412 35.6235 73.8318 33.7105C74.8493 31.7437 75.9109 29.6748 78.6988 29.6504C81.6134 29.6245 82.425 31.5867 83.6139 33.6427C84.6808 35.4869 85.6665 37.4252 86.7976 39.4558L93.1399 51.0292C93.7882 50.7411 95.8045 46.3779 96.2855 45.4602C97.296 43.533 98.428 41.4694 99.3994 39.6124C100.363 37.7701 103.971 30.9309 107.764 23.7826C100.982 14.8484 90.4163 9.10352 78.5453 9.10352C58.6982 9.10352 42.4951 25.1582 41.5297 45.3362C40.3419 45.1942 39.1349 45.1134 37.9091 45.1134C20.7663 45.1134 6.86865 59.4145 6.86865 77.0566C6.86865 94.6987 20.7668 109 37.9091 109H66.0063H80.58L92.3227 87.0275C94.7721 82.2456 96.5389 79.1768 98.9793 74.4803L110.527 52.7866C111.537 50.915 113.185 47.0836 114.599 45.8635C117.074 43.7278 120.201 44.9219 121.613 47.4754L129.503 61.8722C131.921 66.3984 134.682 71.437 137.296 76.1539C138.288 77.9443 142.742 85.302 142.829 87.3067C143.118 93.9994 135.382 92.6162 131.769 92.6427L110.662 92.7882C107.22 92.8121 103.389 92.6701 99.9959 92.8874C98.8337 94.7161 94.6292 102.71 91.335 109H155.677H155.677C172.82 109 186.717 94.6987 186.717 77.0566C186.717 59.4145 172.82 45.1134 155.677 45.1134C154.078 45.1134 152.507 45.2385 150.974 45.4782C151.835 31.5724 139.985 18.437 124.26 18.0088Z" fill="url(#paint0_radial_213_112)"/>
<g filter="url(#filter1_f_213_112)">
<path d="M58.5165 83.1587C58.7038 81.9227 67.8401 65.2671 68.629 63.7707L76.1853 49.5214C76.839 48.3411 78.1015 45.5445 78.7915 44.8278C79.0742 45.0939 78.9973 45.0122 79.2227 45.3655L86.6845 59.0418C88.1956 61.7367 88.0363 61.151 86.52 63.8654C84.8051 66.9363 83.1417 70.4276 81.4178 73.5034L76.3389 83.0208L58.5165 83.1587ZM105.483 82.8299C105.673 81.7014 106.426 80.7016 106.966 79.6698C107.484 78.6785 107.917 77.8985 108.47 76.8648L114.483 65.5242C115.024 64.5125 116.861 60.4792 117.71 59.9882C118.246 61.3644 125.563 74.5107 126.941 76.9869C127.557 78.0933 127.904 78.7757 128.449 79.762C129.01 80.7763 129.658 81.7064 129.936 82.6623L105.483 82.8299ZM124.26 18.0088C123.338 18.0088 122.428 18.0577 121.53 18.1514C121.089 18.7788 120.713 19.6926 120.324 20.4302C119.731 21.554 119.325 22.3008 118.776 23.3439L97.0812 64.1805C94.8932 68.2894 93.0333 71.8786 90.9759 75.7917L83.2413 90.2553C81.3256 93.9501 77.9649 93.0045 72.8217 93.039C67.0979 93.0763 61.3734 93.1182 55.6491 93.1576C53.4045 93.173 49.5066 93.6186 47.8321 92.5002C46.1267 91.3617 44.8504 88.8044 46.0099 86.1384L52.2096 74.423C56.2786 66.6666 60.5194 58.8648 64.6234 51.1732L70.7296 39.5685C71.7763 37.6361 72.8412 35.6235 73.8318 33.7105C74.8493 31.7437 75.9109 29.6748 78.6988 29.6504C81.6134 29.6245 82.425 31.5867 83.6139 33.6427C84.6808 35.4869 85.6665 37.4252 86.7976 39.4558L93.1399 51.0292C93.7882 50.7411 95.8045 46.3779 96.2855 45.4602C97.296 43.533 98.428 41.4694 99.3994 39.6124C100.363 37.7701 103.971 30.9309 107.764 23.7826C100.982 14.8484 90.4163 9.10352 78.5453 9.10352C58.6982 9.10352 42.4951 25.1582 41.5297 45.3362C40.3419 45.1942 39.1349 45.1134 37.9091 45.1134C20.7663 45.1134 6.86865 59.4145 6.86865 77.0566C6.86865 94.6987 20.7668 109 37.9091 109H66.0063H80.58L92.3227 87.0275C94.7721 82.2456 96.5389 79.1768 98.9793 74.4803L110.527 52.7866C111.537 50.915 113.185 47.0836 114.599 45.8635C117.074 43.7278 120.201 44.9219 121.613 47.4754L129.503 61.8722C131.921 66.3984 134.682 71.437 137.296 76.1539C138.288 77.9443 142.742 85.302 142.829 87.3067C143.118 93.9994 135.382 92.6162 131.769 92.6427L110.662 92.7882C107.22 92.8121 103.389 92.6701 99.9959 92.8874C98.8337 94.7161 94.6292 102.71 91.335 109H155.677H155.677C172.82 109 186.717 94.6987 186.717 77.0566C186.717 59.4145 172.82 45.1134 155.677 45.1134C154.078 45.1134 152.507 45.2385 150.974 45.4782C151.835 31.5724 139.985 18.437 124.26 18.0088Z" fill="url(#paint1_radial_213_112)"/>
</g>
<path d="M57.0012 80.4929C57.1884 79.2569 66.3247 62.6011 67.1135 61.1049L74.6697 46.8556C75.3236 45.6754 76.586 42.8787 77.2761 42.1619C77.5587 42.4281 77.4818 42.3463 77.7073 42.6998L85.1691 56.3759C86.6801 59.0709 86.5208 58.4853 85.0047 61.1996C83.2896 64.2704 81.6263 67.7617 79.9025 70.8376L74.8234 80.3549L57.0012 80.4929ZM103.968 80.164C104.158 79.0355 104.911 78.0357 105.451 77.004C105.969 76.0127 106.402 75.2325 106.955 74.1989L112.967 62.8583C113.508 61.8465 115.346 57.8134 116.195 57.3224C116.73 58.6985 124.048 71.8448 125.426 74.3209C126.042 75.4275 126.388 76.1098 126.934 77.0961C127.495 78.1104 128.143 79.0405 128.421 79.9965L103.968 80.164ZM122.744 15.343C121.823 15.343 120.912 15.3917 120.014 15.4855C119.574 16.1131 119.198 17.0266 118.808 17.7643C118.215 18.8882 117.809 19.6348 117.261 20.678L95.5659 61.5145C93.3777 65.6236 91.5179 69.2127 89.4606 73.1257L81.726 87.5894C79.8102 91.2842 76.4495 90.3387 71.3063 90.3731C65.5823 90.4104 59.858 90.4523 54.1336 90.4918C51.8891 90.5072 47.9911 90.9528 46.3165 89.8343C44.6113 88.696 43.3349 86.1386 44.4944 83.4725L50.6942 71.7571C54.7632 64.0007 59.0039 56.1989 63.1078 48.5073L69.214 36.9026C70.2609 34.9702 71.3258 32.9576 72.3162 31.0447C73.3337 29.078 74.3955 27.009 77.1834 26.9845C80.098 26.9586 80.9097 28.921 82.0985 30.977C83.1653 32.821 84.1511 34.7595 85.2822 36.79L91.6245 48.3633C92.2726 48.0751 94.289 43.712 94.77 42.7945C95.7805 40.8671 96.9126 38.8035 97.884 36.9464C98.8474 35.1043 102.455 28.265 106.249 21.1166C99.4662 12.1825 88.9008 6.43774 77.0297 6.43774C57.1828 6.43774 40.9796 22.4923 40.0143 42.6703C38.8264 42.5283 37.6194 42.4475 36.3938 42.4475C19.251 42.4475 5.35327 56.7487 5.35327 74.3908C5.35327 92.0329 19.2514 106.334 36.3938 106.334H64.4909H79.0647L90.8073 84.3617C93.2567 79.5798 95.0233 76.5111 97.4639 71.8144L109.012 50.1207C110.021 48.2491 111.67 44.4179 113.084 43.1977C115.559 41.0619 118.686 42.2562 120.098 44.8096L127.988 59.2064C130.405 63.7325 133.166 68.771 135.78 73.4881C136.772 75.2785 141.226 82.6362 141.313 84.6407C141.603 91.3335 133.866 89.9505 130.254 89.9768L109.146 90.1224C105.704 90.1463 101.873 90.0043 98.4805 90.2215C97.3181 92.0503 93.1136 100.044 89.8196 106.334H154.161H154.162C171.305 106.334 185.202 92.0329 185.202 74.3908C185.202 56.7487 171.304 42.4475 154.162 42.4475C152.562 42.4475 150.992 42.5726 149.458 42.8123C150.32 28.9065 138.469 15.7711 122.744 15.343Z" fill="white"/>
<path d="M232.016 33.8094H217.443V40.2907H233.755C238.659 40.2907 243.21 42.7956 243.21 48.7297C243.21 54.615 239.088 57.0471 234.184 57.0471H217.443V79.2025H224.162V63.5285H234.108C244.055 63.5285 249.942 56.8404 249.942 48.3284C249.942 39.7556 244.269 33.8094 232.016 33.8094ZM285.122 62.9203C292.119 61.0964 296.115 55.3569 296.115 48.3284C296.115 39.7435 290.442 33.8094 278.189 33.8094H263.616V40.2907H280.496C285.4 40.2907 289.383 42.7956 289.383 48.7297C289.383 54.615 285.261 57.0471 280.357 57.0471H263.616V79.2025H270.335V63.5285H277.697L289.383 79.2025H297.237L285.122 62.9203ZM310.016 56.4999C310.016 68.7207 319.786 78.716 332.191 79.6646V73.1591C323.442 72.247 316.735 65.1943 316.735 56.4999C316.735 47.8056 323.442 40.7649 332.191 39.8531V33.3473C319.786 34.2838 310.016 44.2914 310.016 56.4999ZM336.023 33.3473V39.8531C344.772 40.7649 351.478 47.8056 351.478 56.4999C351.478 65.1943 344.772 72.247 336.023 73.1591V79.6646C348.44 78.716 358.197 68.7207 358.197 56.4999C358.197 44.2914 348.44 34.2838 336.023 33.3473ZM372.073 79.2025H378.793V59.7466H395.609V53.3504H372.073V79.2025ZM372.073 33.8094V40.2907H398.963V33.8094H372.073ZM439.564 40.1812V33.8094H408.187V40.1812H439.564ZM427.235 79.2025V43.8779H420.516V79.2025H427.235ZM472.173 73.2563C462.579 73.2563 454.801 65.7536 454.801 56.4999C454.801 47.2463 462.579 39.7556 472.173 39.7556C477.493 39.7556 481.212 41.4338 484.426 44.6195L487.3 38.5396C483.38 35.0255 477.707 33.2622 472.589 33.2622C459.075 33.2622 448.082 43.6712 448.082 56.4999C448.082 69.3407 459.075 79.7376 472.589 79.7376C477.707 79.7376 483.38 77.9135 487.3 74.4114L484.426 68.3314C481.212 71.5661 477.493 73.2563 472.173 73.2563ZM502.197 79.2025H508.917V33.8094H502.197V79.2025ZM527.965 79.2025V72.7212H512.762V79.2025H527.965ZM536.571 56.4999C536.571 68.7207 546.341 78.716 558.746 79.6646V73.1591C549.997 72.247 543.29 65.1943 543.29 56.4999C543.29 47.8056 549.997 40.7649 558.746 39.8531V33.3473C546.341 34.2838 536.571 44.2914 536.571 56.4999ZM562.578 33.3473V39.8531C571.327 40.7649 578.033 47.8056 578.033 56.4999C578.033 65.1943 571.327 72.247 562.578 73.1591V79.6646C574.995 78.716 584.753 68.7207 584.753 56.4999C584.753 44.2914 574.995 34.2838 562.578 33.3473ZM628.518 33.8094V61.3638C628.518 68.3924 624.32 73.2563 617.311 73.2563C610.239 73.2563 606.104 68.3924 606.104 61.3638V33.8094H599.385V59.2115C599.385 71.1649 604.705 79.7376 617.311 79.7376C629.64 79.7376 635.237 71.1649 635.237 59.2115V33.8094H628.518ZM663.346 33.8094H649.264V40.2907H665.098C674.263 40.2907 680.642 47.5137 680.642 56.4999C680.642 65.4861 674.263 72.7212 665.098 72.7212H649.264V79.2025H663.346C678.675 79.2025 687.361 69.0733 687.361 56.4999C687.361 43.9386 679.028 33.8094 663.346 33.8094Z" fill="white"/>
<path d="M287.336 93.5083L282.853 103.602H284.31L285.219 101.487H285.226L287.336 96.6189L289.447 101.487H289.45L290.362 103.602H291.82L287.336 93.5083ZM325.551 100.066C326.951 99.6683 327.749 98.424 327.749 96.8977C327.749 95.0346 326.616 93.7427 324.165 93.7427H321.25V95.1502H324.626C325.607 95.1502 326.405 95.6941 326.405 96.986C326.405 98.2608 325.577 98.7878 324.597 98.7878H321.25V103.602H322.594V100.199H324.064L326.405 103.602H327.973L325.551 100.066ZM362.65 98.305C363.267 98.0568 363.77 97.3091 363.77 96.3232C363.77 94.6232 362.565 93.7427 360.533 93.7427H357.718V95.1502H360.744C361.809 95.1502 362.426 95.548 362.426 96.3843C362.426 97.2342 361.809 97.615 360.744 97.615H357.718V99.0224H360.968C362.13 99.0224 362.874 99.5222 362.874 100.61C362.874 101.694 362.13 102.194 360.968 102.194H357.718V103.602H361.192C363.085 103.602 364.218 102.34 364.218 100.637C364.218 99.6547 363.757 98.5838 362.65 98.305ZM395.765 103.602V93.7427H394.421V103.602H395.765ZM431.672 95.1263V93.7427H425.396V95.1263H431.672ZM429.207 103.602V95.9287H427.86V103.602H429.207ZM465.368 100.066C466.767 99.6683 467.566 98.424 467.566 96.8977C467.566 95.0346 466.432 93.7427 463.981 93.7427H461.066V95.1502H464.442C465.423 95.1502 466.221 95.6941 466.221 96.986C466.221 98.2608 465.394 98.7878 464.413 98.7878H461.066V103.602H462.41V100.199H463.881L466.221 103.602H467.79L465.368 100.066ZM501.395 93.5083L496.911 103.602H498.369L499.278 101.487H499.284L501.395 96.6189L503.505 101.487H503.508L504.42 103.602H505.878L501.395 93.5083ZM544.012 98.2167L539.11 98.2032V99.6105H543.964C544.016 99.308 544.042 98.9917 544.042 98.6721C544.042 98.5089 544.029 98.3493 544.012 98.2167ZM539.444 102.31C537.526 102.31 535.971 100.681 535.971 98.6721C535.971 96.6631 537.526 95.0346 539.444 95.0346C540.707 95.0346 541.714 95.7383 542.246 96.7956L543.607 96.3843C542.808 94.7389 541.35 93.6237 539.444 93.6237C536.785 93.6237 534.626 95.8844 534.626 98.6721C534.626 101.46 536.785 103.717 539.444 103.717C541.587 103.717 543.256 102.255 543.828 100.236H542.431C541.967 101.453 540.915 102.31 539.444 102.31ZM573.394 93.7427V95.1502H578.773V93.7427H573.394ZM578.101 99.3759V97.989H573.394V99.3759H578.101ZM574.738 102.187H573.394V103.602H578.773V102.194H574.738V102.187ZM607.973 103.602H609.346L610.038 99.1041L609.008 97.0609L607.973 103.602ZM616.911 93.5083L613.242 100.96L609.57 93.5083L609.216 95.7383L613.242 103.836L617.265 95.7519L616.911 93.5083ZM617.466 97.0234L616.443 99.0903L617.135 103.602H618.508L617.466 97.0234Z" fill="white"/>
<defs>
<filter id="filter0_f_213_112" x="0" y="0" width="187.849" height="107.897" filterUnits="userSpaceOnUse" color-interpolation-filters="sRGB">
<feFlood flood-opacity="0" result="BackgroundImageFix"/>
<feBlend mode="normal" in="SourceGraphic" in2="BackgroundImageFix" result="shape"/>
<feGaussianBlur stdDeviation="2" result="effect1_foregroundBlur_213_112"/>
</filter>
<filter id="filter1_f_213_112" x="2.86865" y="5.10352" width="187.849" height="107.897" filterUnits="userSpaceOnUse" color-interpolation-filters="sRGB">
<feFlood flood-opacity="0" result="BackgroundImageFix"/>
<feBlend mode="normal" in="SourceGraphic" in2="BackgroundImageFix" result="shape"/>
<feGaussianBlur stdDeviation="2" result="effect1_foregroundBlur_213_112"/>
</filter>
<radialGradient id="paint0_radial_213_112" cx="0" cy="0" r="1" gradientUnits="userSpaceOnUse" gradientTransform="translate(96.7897 52.0531) scale(24.8943 23.2583)">
<stop stop-color="#2FAEE4"/>
<stop offset="1" stop-color="#0000FF"/>
</radialGradient>
<radialGradient id="paint1_radial_213_112" cx="0" cy="0" r="1" gradientUnits="userSpaceOnUse" gradientTransform="translate(96.7897 52.0531) scale(24.8943 23.2583)">
<stop stop-color="#2FAEE4"/>
<stop offset="1" stop-color="#0000FF"/>
</radialGradient>
</defs>
</svg>
