<svg width="431" height="85" viewBox="0 0 431 85" fill="none" xmlns="http://www.w3.org/2000/svg">
<path d="M408.16 74.8954V12.1074H421.445V74.8954H408.16ZM398.609 42.359V30.4777H430.996V42.359H398.609Z" fill="white"/>
<path d="M373.307 75.9007C368.966 75.9007 365.029 74.8954 361.498 72.8847C358.025 70.8131 355.276 68.0103 353.25 64.4764C351.224 60.9425 350.211 56.9821 350.211 52.5951C350.211 48.2082 351.224 44.2782 353.25 40.8052C355.276 37.3322 358.025 34.5904 361.498 32.5797C364.972 30.5081 368.908 29.4723 373.307 29.4723C377.706 29.4723 381.642 30.4776 385.115 32.4883C388.589 34.499 391.338 37.2713 393.364 40.8052C395.39 44.2782 396.403 48.2082 396.403 52.5951C396.403 56.9821 395.39 60.9425 393.364 64.4764C391.338 68.0103 388.589 70.8131 385.115 72.8847C381.642 74.8954 377.706 75.9007 373.307 75.9007ZM373.307 63.1969C375.217 63.1969 376.896 62.7704 378.343 61.9174C379.79 61.0034 380.89 59.7544 381.642 58.1702C382.453 56.5251 382.858 54.6667 382.858 52.5951C382.858 50.5235 382.453 48.7261 381.642 47.2028C380.832 45.6187 379.703 44.4001 378.256 43.5471C376.867 42.6331 375.217 42.1761 373.307 42.1761C371.455 42.1761 369.805 42.6331 368.358 43.5471C366.911 44.4001 365.782 45.6187 364.972 47.2028C364.161 48.787 363.756 50.6149 363.756 52.6865C363.756 54.6972 364.161 56.5251 364.972 58.1702C365.782 59.7544 366.911 61.0034 368.358 61.9174C369.805 62.7704 371.455 63.1969 373.307 63.1969Z" fill="white"/>
<path d="M309.005 74.8954V63.7453H323.418C326.081 63.7453 328.165 62.9227 329.67 61.2776C331.175 59.6325 331.928 57.6219 331.928 55.2456C331.928 53.6005 331.58 52.1382 330.886 50.8587C330.191 49.5791 329.207 48.5738 327.933 47.8426C326.718 47.1115 325.213 46.7459 323.418 46.7459H309.005V35.8699H322.29C324.547 35.8699 326.371 35.2911 327.76 34.1334C329.149 32.9149 329.844 31.087 329.844 28.6498C329.844 26.2735 329.149 24.5065 327.76 23.3489C326.371 22.1303 324.547 21.521 322.29 21.521H309.005V10.3708H324.895C328.831 10.3708 332.159 11.1325 334.88 12.6557C337.658 14.179 339.771 16.2201 341.218 18.7792C342.665 21.3382 343.389 24.1714 343.389 27.2789C343.389 31.2393 342.173 34.5904 339.742 37.3323C337.311 40.0741 333.722 41.9629 328.975 42.9987L329.323 38.1548C334.474 39.1906 338.44 41.2927 341.218 44.461C344.054 47.6294 345.473 51.5289 345.473 56.1595C345.473 59.6935 344.633 62.8923 342.955 65.756C341.334 68.5587 338.961 70.7827 335.835 72.4278C332.767 74.0729 329.062 74.8954 324.721 74.8954H309.005ZM298.586 74.8954V10.3708H312.044V74.8954H298.586Z" fill="white"/>
<path d="M270.64 75.9007C266.068 75.9007 261.987 74.9259 258.398 72.9761C254.867 70.9654 252.088 68.1931 250.062 64.6592C248.036 61.1253 247.023 57.1344 247.023 52.6865C247.023 48.2386 248.007 44.2782 249.976 40.8052C252.002 37.2713 254.722 34.499 258.137 32.4883C261.553 30.4776 265.402 29.4723 269.685 29.4723C273.853 29.4723 277.529 30.4167 280.712 32.3055C283.896 34.1943 286.385 36.8143 288.179 40.1655C290.032 43.5166 290.958 47.3552 290.958 51.6812C290.958 52.4733 290.9 53.3263 290.784 54.2402C290.726 55.0932 290.582 56.0986 290.35 57.2562L253.97 57.3476V47.7512L284.706 47.6598L278.976 51.6812C278.918 49.1221 278.542 47.0201 277.847 45.375C277.152 43.6689 276.111 42.3894 274.721 41.5364C273.39 40.6224 271.74 40.1655 269.772 40.1655C267.688 40.1655 265.865 40.6834 264.302 41.7192C262.797 42.694 261.61 44.0954 260.742 45.9233C259.932 47.7512 259.527 49.9751 259.527 52.5951C259.527 55.2151 259.961 57.4695 260.829 59.3583C261.755 61.1862 263.029 62.6181 264.649 63.6539C266.328 64.6287 268.296 65.1162 270.554 65.1162C272.637 65.1162 274.519 64.7506 276.197 64.0195C277.876 63.2274 279.352 62.0697 280.626 60.5465L287.919 68.2236C285.835 70.7826 283.317 72.7019 280.365 73.9815C277.413 75.261 274.171 75.9007 270.64 75.9007Z" fill="white"/>
<path d="M225.401 75.9921C222.912 75.9921 220.451 75.657 218.02 74.9868C215.647 74.3166 213.418 73.3722 211.335 72.1536C209.309 70.8741 207.572 69.4117 206.125 67.7666L213.679 59.7239C215.068 61.3081 216.718 62.5571 218.628 63.4711C220.538 64.3241 222.622 64.7506 224.88 64.7506C226.443 64.7506 227.629 64.5069 228.44 64.0195C229.308 63.532 229.742 62.8618 229.742 62.0088C229.742 60.912 229.221 60.0895 228.179 59.5411C227.195 58.9318 225.922 58.4139 224.359 57.9874C222.796 57.5 221.146 56.9821 219.41 56.4337C217.673 55.8853 216.023 55.1237 214.46 54.1488C212.898 53.174 211.624 51.8335 210.64 50.1275C209.656 48.3605 209.164 46.1366 209.164 43.4557C209.164 40.592 209.859 38.1243 211.248 36.0527C212.637 33.9202 214.605 32.2446 217.152 31.026C219.699 29.8074 222.68 29.1981 226.095 29.1981C229.684 29.1981 232.984 29.8683 235.994 31.2088C239.061 32.4883 241.55 34.4076 243.461 36.9667L235.907 45.0094C234.575 43.3643 233.07 42.2066 231.392 41.5364C229.771 40.8662 228.179 40.531 226.616 40.531C225.111 40.531 223.982 40.7748 223.23 41.2622C222.477 41.6887 222.101 42.3285 222.101 43.1815C222.101 44.0954 222.593 44.8266 223.577 45.375C224.561 45.9233 225.835 46.4108 227.398 46.8373C228.961 47.2638 230.61 47.7817 232.347 48.391C234.083 49.0003 235.733 49.8228 237.296 50.8586C238.859 51.8944 240.132 53.2958 241.116 55.0628C242.1 56.7688 242.592 59.0232 242.592 61.826C242.592 66.152 241.029 69.5945 237.904 72.1536C234.836 74.7126 230.668 75.9921 225.401 75.9921Z" fill="white"/>
<path d="M187.392 74.8955V30.4777H200.677V74.8955H187.392ZM194.078 24.3543C191.994 24.3543 190.257 23.6231 188.868 22.1608C187.537 20.6376 186.871 18.8097 186.871 16.6771C186.871 14.4837 187.537 12.6558 188.868 11.1935C190.257 9.73116 191.994 9 194.078 9C196.162 9 197.869 9.73116 199.201 11.1935C200.532 12.6558 201.198 14.4837 201.198 16.6771C201.198 18.8097 200.532 20.6376 199.201 22.1608C197.869 23.6231 196.162 24.3543 194.078 24.3543Z" fill="white"/>
<path d="M116.893 74.8954L97.1836 10.3708H110.729L125.142 59.9981H119.845L133.911 10.3708H144.591L158.657 59.9981H153.448L167.774 10.3708H181.232L161.522 74.8954H150.843L136.69 25.2682H141.726L127.573 74.8954H116.893Z" fill="white"/>
<path d="M44.5048 29.0037C47.17 24.7935 49.2172 20.2425 50.5982 15.4674C56.1986 27.5181 68.3778 35.8892 82.466 35.8892V48.1624C82.4267 48.1624 82.3872 48.1624 82.3479 48.1622C62.9686 48.1622 47.2014 64.0021 47.2014 83.47H34.9844V83.4625C34.9844 65.6853 44.7391 50.1552 59.1567 41.9903C53.4236 38.7203 48.4321 34.2835 44.5048 29.0037Z" fill="#589CFF"/>
<path d="M30.9194 66.976C25.6614 55.7643 14.5448 47.854 1.56466 47.2627C1.0446 47.2801 0.522922 47.289 0 47.2892V35.2875C0.524886 35.2875 1.04781 35.2965 1.56859 35.3141C10.1013 34.9284 18.0719 31.4017 24.1573 25.29C30.614 18.8053 34.154 10.1713 34.154 1H46.0287C46.0287 13.3651 41.2417 24.9839 32.5437 33.73C29.5619 36.7279 26.2447 39.2637 22.6768 41.3021C28.2268 44.4737 33.0609 48.7717 36.8691 53.8849C34.3141 57.9044 32.2963 62.3026 30.9194 66.976Z" fill="#589CFF"/>
</svg>
