<svg width="372" height="81" viewBox="0 0 372 81" fill="none" xmlns="http://www.w3.org/2000/svg">
<path d="M160.531 57.0088L158.229 62.1931H158.977L159.444 61.1071H159.448L160.531 58.6065L161.615 61.1071H161.617L162.086 62.1931H162.834L160.531 57.0088ZM180.16 60.3771C180.879 60.1728 181.289 59.5337 181.289 58.7497C181.289 57.7927 180.707 57.1292 179.448 57.1292H177.951V57.8521H179.685C180.189 57.8521 180.599 58.1315 180.599 58.7951C180.599 59.4498 180.174 59.7205 179.67 59.7205H177.951V62.1931H178.641V60.4452H179.397L180.599 62.1931H181.404L180.16 60.3771ZM199.215 59.4726C199.532 59.3451 199.791 58.961 199.791 58.4546C199.791 57.5815 199.172 57.1292 198.128 57.1292H196.682V57.8521H198.237C198.784 57.8521 199.1 58.0565 199.1 58.486C199.1 58.9225 198.784 59.1182 198.237 59.1182H196.682V59.841H198.352C198.949 59.841 199.331 60.0978 199.331 60.6565C199.331 61.2135 198.949 61.4702 198.352 61.4702H196.682V62.1931H198.467C199.439 62.1931 200.021 61.5453 200.021 60.6704C200.021 60.1658 199.784 59.6158 199.215 59.4726ZM216.225 62.1931V57.1292H215.534V62.1931H216.225ZM234.668 57.8399V57.1292H231.444V57.8399H234.668ZM233.402 62.1931V58.252H232.71V62.1931H233.402ZM251.975 60.3771C252.694 60.1728 253.104 59.5337 253.104 58.7497C253.104 57.7927 252.522 57.1292 251.263 57.1292H249.766V57.8521H251.5C252.004 57.8521 252.414 58.1315 252.414 58.7951C252.414 59.4498 251.989 59.7205 251.485 59.7205H249.766V62.1931H250.456V60.4452H251.211L252.414 62.1931H253.219L251.975 60.3771ZM270.48 57.0088L268.177 62.1931H268.926L269.393 61.1071H269.396L270.48 58.6065L271.564 61.1071H271.566L272.034 62.1931H272.783L270.48 57.0088ZM292.37 59.4272L289.852 59.4203V60.1431H292.345C292.372 59.9877 292.385 59.8253 292.385 59.6611C292.385 59.5773 292.379 59.4953 292.37 59.4272ZM290.024 61.5296C289.038 61.5296 288.24 60.6931 288.24 59.6611C288.24 58.6292 289.038 57.7927 290.024 57.7927C290.673 57.7927 291.19 58.1542 291.463 58.6973L292.162 58.486C291.752 57.6409 291.003 57.0681 290.024 57.0681C288.658 57.0681 287.549 58.2293 287.549 59.6611C287.549 61.093 288.658 62.2525 290.024 62.2525C291.124 62.2525 291.982 61.5016 292.275 60.4644H291.558C291.32 61.0895 290.779 61.5296 290.024 61.5296ZM307.461 57.1292V57.8521H310.225V57.1292H307.461ZM309.879 60.0226V59.3102H307.461V60.0226H309.879ZM308.152 61.4667H307.461V62.1931H310.225V61.4702H308.152V61.4667ZM325.223 62.1931H325.928L326.283 59.883L325.755 58.8335L325.223 62.1931ZM329.814 57.0088L327.929 60.8364L326.043 57.0088L325.861 58.1542L327.929 62.3136L329.995 58.1612L329.814 57.0088ZM330.099 58.8143L329.573 59.8759L329.929 62.1931H330.634L330.099 58.8143Z" fill="white"/>
<path d="M39.5283 50.0376C39.6244 49.4027 44.3172 40.8477 44.7224 40.0792L48.6036 32.7601C48.9394 32.1539 49.5878 30.7175 49.9423 30.3494C50.0874 30.486 50.048 30.4441 50.1637 30.6256L53.9964 37.6502C54.7725 39.0344 54.6907 38.7336 53.912 40.1278C53.0311 41.7051 52.1767 43.4984 51.2912 45.0782L48.6825 49.9667L39.5283 50.0376ZM63.6522 49.8687C63.7497 49.289 64.1365 48.7755 64.4137 48.2455C64.6799 47.7363 64.9023 47.3357 65.1865 46.8048L68.2746 40.9798C68.5525 40.4601 69.4963 38.3885 69.9323 38.1363C70.2074 38.8432 73.9659 45.5956 74.6739 46.8675C74.9901 47.4358 75.1683 47.7863 75.4483 48.2929C75.7365 48.8139 76.0695 49.2916 76.2123 49.7826L63.6522 49.8687ZM73.2964 16.5741C72.8231 16.5741 72.3555 16.5992 71.8943 16.6474C71.6678 16.9696 71.4748 17.4389 71.2749 17.8178C70.9702 18.3951 70.7616 18.7786 70.4801 19.3144L59.3366 40.2896C58.2127 42.4001 57.2574 44.2437 56.2007 46.2536L52.2279 53.6827C51.2439 55.5804 49.5177 55.0947 46.876 55.1124C43.9359 55.1316 40.9957 55.1532 38.0554 55.1734C36.9026 55.1813 34.9004 55.4101 34.0403 54.8357C33.1644 54.2509 32.5088 52.9374 33.1044 51.568L36.2888 45.5506C38.3788 41.5666 40.557 37.5593 42.6649 33.6086L45.8013 27.648C46.339 26.6554 46.886 25.6217 47.3947 24.6391C47.9173 23.6289 48.4627 22.5662 49.8947 22.5537C51.3917 22.5404 51.8086 23.5482 52.4193 24.6043C52.9672 25.5515 53.4735 26.5471 54.0545 27.5901L57.3122 33.5346C57.6451 33.3866 58.6808 31.1455 58.9278 30.6742C59.4469 29.6843 60.0283 28.6244 60.5273 27.6705C61.0221 26.7242 62.8753 23.2114 64.8236 19.5397C61.34 14.9508 55.9132 12 49.8158 12C39.6216 12 31.299 20.2463 30.8032 30.6105C30.1931 30.5375 29.5731 30.496 28.9436 30.496C20.1383 30.496 13 37.8416 13 46.9033C13 55.9649 20.1386 63.3108 28.9436 63.3108H43.3753H50.861L56.8924 52.0247C58.1505 49.5686 59.0579 47.9923 60.3115 45.58L66.2429 34.4373C66.7615 33.476 67.6082 31.508 68.3346 30.8813C69.6056 29.7843 71.2119 30.3977 71.9372 31.7092L75.9896 39.104C77.2314 41.4288 78.6496 44.0168 79.9923 46.4397C80.5018 47.3592 82.7895 51.1384 82.8343 52.1681C82.9828 55.6058 79.009 54.8953 77.1537 54.9089L66.3121 54.9836C64.544 54.9959 62.5763 54.923 60.8336 55.0346C60.2366 55.9739 58.077 60.08 56.3851 63.3108H89.4335H89.4337C98.239 63.3108 105.377 55.9649 105.377 46.9033C105.377 37.8416 98.2388 30.496 89.4337 30.496C88.6122 30.496 87.8055 30.5603 87.0178 30.6834C87.4603 23.5409 81.3734 16.794 73.2964 16.5741Z" fill="url(#paint0_linear_421_329)"/>
<g filter="url(#filter0_f_421_329)">
<path d="M41.001 52.6587C41.0972 52.0238 45.7899 43.4688 46.1951 42.7002L50.0763 35.3812C50.4121 34.775 51.0605 33.3386 51.415 32.9705C51.5602 33.1071 51.5207 33.0652 51.6365 33.2467L55.4691 40.2713C56.2453 41.6555 56.1635 41.3547 55.3846 42.7489C54.5038 44.3262 53.6494 46.1195 52.764 47.6993L50.1552 52.5878L41.001 52.6587ZM65.1248 52.4898C65.2225 51.9101 65.6092 51.3966 65.8864 50.8666C66.1527 50.3574 66.3751 49.9568 66.6592 49.4259L69.7472 43.6009C70.0252 43.0812 70.969 41.0096 71.405 40.7574C71.6801 41.4643 75.4386 48.2167 76.1466 49.4886C76.4628 50.0569 76.641 50.4074 76.9211 50.914C77.2093 51.435 77.5422 51.9127 77.685 52.4037L65.1248 52.4898ZM74.7691 19.1952C74.2958 19.1952 73.8282 19.2203 73.3671 19.2685C73.1406 19.5907 72.9475 20.06 72.7476 20.4389C72.4428 21.0161 72.2343 21.3997 71.9528 21.9355L60.8093 42.9107C59.6854 45.0212 58.7301 46.8648 57.6734 48.8747L53.7006 56.3037C52.7166 58.2015 50.9904 57.7158 48.3487 57.7335C45.4087 57.7527 42.4684 57.7742 39.5282 57.7944C38.3752 57.8024 36.3731 58.0312 35.513 57.4568C34.6371 56.872 33.9815 55.5585 34.5771 54.1891L37.7615 48.1716C39.8515 44.1877 42.0297 40.1804 44.1377 36.2297L47.2741 30.2691C47.8117 29.2765 48.3587 28.2428 48.8675 27.2602C49.3901 26.25 49.9354 25.1873 51.3673 25.1748C52.8644 25.1615 53.2813 26.1693 53.8919 27.2254C54.4399 28.1726 54.9462 29.1682 55.5272 30.2112L58.7849 36.1557C59.1178 36.0077 60.1535 33.7666 60.4006 33.2953C60.9196 32.3054 61.501 31.2455 61.9999 30.2916C62.4948 29.3453 64.348 25.8325 66.2964 22.1608C62.8127 17.5719 57.3859 14.6211 51.2885 14.6211C41.0943 14.6211 32.7718 22.8674 32.2759 33.2316C31.6658 33.1586 31.0458 33.1171 30.4162 33.1171C21.611 33.1171 14.4727 40.4627 14.4727 49.5244C14.4727 58.586 21.6113 65.9319 30.4162 65.9319H44.848H52.3336L58.3651 54.6458C59.6232 52.1896 60.5307 50.6134 61.7842 48.2011L67.7157 37.0584C68.2343 36.0971 69.0809 34.1291 69.8073 33.5024C71.0783 32.4054 72.6847 33.0188 73.4099 34.3303L77.4623 41.7251C78.7042 44.0499 80.1222 46.6379 81.465 49.0607C81.9745 49.9803 84.2623 53.7595 84.3069 54.7892C84.4555 58.2269 80.4818 57.5164 78.6264 57.53L67.7848 57.6047C66.0168 57.617 64.049 57.5441 62.3063 57.6557C61.7094 58.595 59.5498 62.7011 57.8578 65.9319H90.9062H90.9065C99.7117 65.9319 106.85 58.586 106.85 49.5244C106.85 40.4627 99.7114 33.1171 90.9065 33.1171C90.0849 33.1171 89.2781 33.1814 88.4905 33.3045C88.933 26.162 82.8461 19.4151 74.7691 19.1952Z" fill="url(#paint1_linear_421_329)"/>
</g>
<path d="M40.2236 51.2895C40.3198 50.6546 45.0125 42.0996 45.4177 41.3311L49.2989 34.0121C49.6347 33.4059 50.2831 31.9694 50.6376 31.6012C50.7827 31.738 50.7433 31.696 50.8591 31.8775L54.6917 38.9021C55.4679 40.2863 55.3861 39.9855 54.6073 41.3797C53.7264 42.957 52.872 44.7503 51.9866 46.3302L49.3778 51.2186L40.2236 51.2895ZM64.3475 51.1205C64.4451 50.5409 64.8318 50.0274 65.1091 49.4975C65.3752 48.9883 65.5977 48.5876 65.8818 48.0566L68.9699 42.2317C69.2478 41.712 70.1916 39.6404 70.6276 39.3883C70.9027 40.0951 74.6613 46.8475 75.3692 48.1193C75.6854 48.6877 75.8636 49.0382 76.1437 49.5448C76.4319 50.0658 76.7648 50.5435 76.9076 51.0345L64.3475 51.1205ZM73.9917 17.8261C73.5184 17.8261 73.0508 17.8511 72.5897 17.8992C72.3632 18.2216 72.1701 18.6908 71.9702 19.0697C71.6655 19.647 71.4569 20.0305 71.1754 20.5663L60.0319 41.5415C58.908 43.6521 57.9527 45.4956 56.896 47.5054L52.9232 54.9345C51.9392 56.8323 50.213 56.3467 47.5713 56.3643C44.6312 56.3835 41.691 56.405 38.7507 56.4253C37.5979 56.4332 35.5957 56.6621 34.7356 56.0876C33.8597 55.5029 33.2041 54.1893 33.7997 52.8199L36.9842 46.8024C39.0741 42.8185 41.2523 38.8112 43.3603 34.8605L46.4966 28.8998C47.0343 27.9073 47.5813 26.8736 48.09 25.891C48.6127 24.8808 49.158 23.8181 50.59 23.8055C52.0871 23.7923 52.5039 24.8002 53.1146 25.8562C53.6625 26.8034 54.1689 27.7991 54.7499 28.842L58.0075 34.7865C58.3404 34.6385 59.3761 32.3974 59.6231 31.9261C60.1422 30.9362 60.7237 29.8762 61.2226 28.9224C61.7175 27.9762 63.5706 24.4633 65.519 20.7916C62.0353 16.2027 56.6085 13.252 50.5111 13.252C40.3169 13.252 31.9943 21.4982 31.4985 31.8624C30.8884 31.7894 30.2684 31.7479 29.6389 31.7479C20.8337 31.7479 13.6953 39.0936 13.6953 48.1552C13.6953 57.2169 20.8339 64.5627 29.6389 64.5627H44.0706H51.5563L57.5878 53.2766C58.8459 50.8205 59.7533 49.2443 61.0069 46.8319L66.9383 35.6892C67.4568 34.7278 68.3036 32.76 69.03 32.1333C70.3009 31.0362 71.9073 31.6497 72.6325 32.9612L76.685 40.356C77.9268 42.6807 79.3449 45.2687 80.6877 47.6916C81.1971 48.6112 83.4849 52.3904 83.5296 53.42C83.6781 56.8577 79.7044 56.1473 77.8491 56.1608L67.0074 56.2356C65.2394 56.2479 63.2716 56.1749 61.529 56.2865C60.932 57.2258 58.7724 61.3319 57.0804 64.5627H90.1288H90.1291C98.9343 64.5627 106.072 57.2169 106.072 48.1552C106.072 39.0936 98.9341 31.7479 90.1291 31.7479C89.3075 31.7479 88.5008 31.8122 87.7132 31.9353C88.1556 24.7927 82.0687 18.0459 73.9917 17.8261Z" fill="white"/>
<g filter="url(#filter1_f_421_329)">
<path d="M131.505 26.2826H124V29.6296H132.401C134.926 29.6296 137.27 30.9231 137.27 33.9875C137.27 37.0266 135.147 38.2826 132.621 38.2826H124V49.7237H127.46V41.6296H132.582C137.705 41.6296 140.736 38.1758 140.736 33.7802C140.736 29.3532 137.815 26.2826 131.505 26.2826ZM158.854 41.3155C162.457 40.3736 164.515 37.4097 164.515 33.7802C164.515 29.347 161.594 26.2826 155.283 26.2826H147.778V29.6296H156.471C158.997 29.6296 161.048 30.9231 161.048 33.9875C161.048 37.0266 158.925 38.2826 156.4 38.2826H147.778V49.7237H151.239V41.6296H155.03L161.048 49.7237H165.093L158.854 41.3155ZM171.674 38C171.674 44.3109 176.705 49.4724 183.093 49.9623V46.6028C178.588 46.1318 175.134 42.4898 175.134 38C175.134 33.5102 178.588 29.8744 183.093 29.4035V26.044C176.705 26.5276 171.674 31.6955 171.674 38ZM185.067 26.044V29.4035C189.572 29.8744 193.026 33.5102 193.026 38C193.026 42.4898 189.572 46.1318 185.067 46.6028V49.9623C191.462 49.4724 196.486 44.3109 196.486 38C196.486 31.6955 191.462 26.5276 185.067 26.044ZM203.632 49.7237H207.093V39.6766H215.753V36.3736H203.632V49.7237ZM203.632 26.2826V29.6296H217.48V26.2826H203.632ZM238.389 29.573V26.2826H222.23V29.573H238.389ZM232.04 49.7237V31.482H228.579V49.7237H232.04ZM255.182 46.653C250.241 46.653 246.236 42.7786 246.236 38C246.236 33.2214 250.241 29.3532 255.182 29.3532C257.922 29.3532 259.837 30.2198 261.492 31.865L262.972 28.7253C260.953 26.9105 258.032 26 255.396 26C248.437 26 242.775 31.3752 242.775 38C242.775 44.631 248.437 50 255.396 50C258.032 50 260.953 49.058 262.972 47.2495L261.492 44.1098C259.837 45.7802 257.922 46.653 255.182 46.653ZM270.644 49.7237H274.104V26.2826H270.644V49.7237ZM283.914 49.7237V46.3767H276.084V49.7237H283.914ZM288.346 38C288.346 44.3109 293.377 49.4724 299.765 49.9623V46.6028C295.26 46.1318 291.806 42.4898 291.806 38C291.806 33.5102 295.26 29.8744 299.765 29.4035V26.044C293.377 26.5276 288.346 31.6955 288.346 38ZM301.739 26.044V29.4035C306.245 29.8744 309.698 33.5102 309.698 38C309.698 42.4898 306.245 46.1318 301.739 46.6028V49.9623C308.134 49.4724 313.159 44.3109 313.159 38C313.159 31.6955 308.134 26.5276 301.739 26.044ZM335.697 26.2826V40.5117C335.697 44.1413 333.535 46.653 329.926 46.653C326.284 46.653 324.154 44.1413 324.154 40.5117V26.2826H320.694V39.4003C320.694 45.573 323.434 50 329.926 50C336.275 50 339.157 45.573 339.157 39.4003V26.2826H335.697ZM353.633 26.2826H346.381V29.6296H354.535C359.255 29.6296 362.54 33.3595 362.54 38C362.54 42.6405 359.255 46.3767 354.535 46.3767H346.381V49.7237H353.633C361.527 49.7237 366 44.4929 366 38C366 31.5133 361.709 26.2826 353.633 26.2826Z" fill="url(#paint2_linear_421_329)"/>
</g>
<path d="M132.118 26.3455H124.633V29.6746H133.012C135.53 29.6746 137.868 30.9612 137.868 34.0092C137.868 37.0321 135.751 38.2813 133.232 38.2813H124.633V49.6611H128.084V41.6103H133.193C138.302 41.6103 141.326 38.1751 141.326 33.803C141.326 29.3997 138.412 26.3455 132.118 26.3455ZM159.396 41.298C162.989 40.3611 165.042 37.4131 165.042 33.803C165.042 29.3935 162.128 26.3455 155.834 26.3455H148.349V29.6746H157.019C159.538 29.6746 161.584 30.9612 161.584 34.0092C161.584 37.0321 159.467 38.2813 156.948 38.2813H148.349V49.6611H151.8V41.6103H155.582L161.584 49.6611H165.618L159.396 41.298ZM172.182 38.0002C172.182 44.2773 177.2 49.4112 183.572 49.8985V46.557C179.078 46.0885 175.633 42.466 175.633 38.0002C175.633 33.5345 179.078 29.9181 183.572 29.4498V26.1082C177.2 26.5892 172.182 31.7295 172.182 38.0002ZM185.54 26.1082V29.4498C190.034 29.9181 193.479 33.5345 193.479 38.0002C193.479 42.466 190.034 46.0885 185.54 46.557V49.8985C191.918 49.4112 196.93 44.2773 196.93 38.0002C196.93 31.7295 191.918 26.5892 185.54 26.1082ZM204.057 49.6611H207.508V39.6679H216.146V36.3825H204.057V49.6611ZM204.057 26.3455V29.6746H217.868V26.3455H204.057ZM238.723 29.6183V26.3455H222.606V29.6183H238.723ZM232.39 49.6611V31.5171H228.939V49.6611H232.39ZM255.472 46.6069C250.544 46.6069 246.549 42.7532 246.549 38.0002C246.549 33.2472 250.544 29.3997 255.472 29.3997C258.204 29.3997 260.115 30.2617 261.766 31.898L263.242 28.7751C261.228 26.9701 258.314 26.0645 255.686 26.0645C248.744 26.0645 243.098 31.4109 243.098 38.0002C243.098 44.5958 248.744 49.936 255.686 49.936C258.314 49.936 261.228 48.999 263.242 47.2002L261.766 44.0773C260.115 45.7388 258.204 46.6069 255.472 46.6069ZM270.894 49.6611H274.345V26.3455H270.894V49.6611ZM284.129 49.6611V46.3321H276.32V49.6611H284.129ZM288.549 38.0002C288.549 44.2773 293.568 49.4112 299.939 49.8985V46.557C295.445 46.0885 292.001 42.466 292.001 38.0002C292.001 33.5345 295.445 29.9181 299.939 29.4498V26.1082C293.568 26.5892 288.549 31.7295 288.549 38.0002ZM301.907 26.1082V29.4498C306.401 29.9181 309.846 33.5345 309.846 38.0002C309.846 42.466 306.401 46.0885 301.907 46.557V49.8985C308.285 49.4112 313.297 44.2773 313.297 38.0002C313.297 31.7295 308.285 26.5892 301.907 26.1082ZM335.777 26.3455V40.4985C335.777 44.1086 333.621 46.6069 330.02 46.6069C326.388 46.6069 324.264 44.1086 324.264 40.4985V26.3455H320.813V39.393C320.813 45.5327 323.545 49.936 330.02 49.936C336.353 49.936 339.228 45.5327 339.228 39.393V26.3455H335.777ZM353.666 26.3455H346.433V29.6746H354.566C359.273 29.6746 362.549 33.3846 362.549 38.0002C362.549 42.6159 359.273 46.3321 354.566 46.3321H346.433V49.6611H353.666C361.539 49.6611 366.001 44.4584 366.001 38.0002C366.001 31.5483 361.721 26.3455 353.666 26.3455Z" fill="white"/>
<defs>
<filter id="filter0_f_421_329" x="0.372656" y="0.521093" width="120.577" height="79.511" filterUnits="userSpaceOnUse" color-interpolation-filters="sRGB">
<feFlood flood-opacity="0" result="BackgroundImageFix"/>
<feBlend mode="normal" in="SourceGraphic" in2="BackgroundImageFix" result="shape"/>
<feGaussianBlur stdDeviation="7.05" result="effect1_foregroundBlur_421_329"/>
</filter>
<filter id="filter1_f_421_329" x="118.2" y="20.2" width="253.6" height="35.6" filterUnits="userSpaceOnUse" color-interpolation-filters="sRGB">
<feFlood flood-opacity="0" result="BackgroundImageFix"/>
<feBlend mode="normal" in="SourceGraphic" in2="BackgroundImageFix" result="shape"/>
<feGaussianBlur stdDeviation="2.9" result="effect1_foregroundBlur_421_329"/>
</filter>
<linearGradient id="paint0_linear_421_329" x1="59.1886" y1="4.30338" x2="59.1886" y2="78.0044" gradientUnits="userSpaceOnUse">
<stop stop-color="#06AFEA"/>
<stop offset="0.469666" stop-color="#6F3ABB"/>
<stop offset="1" stop-color="#A300A3"/>
</linearGradient>
<linearGradient id="paint1_linear_421_329" x1="53" y1="40" x2="97" y2="62" gradientUnits="userSpaceOnUse">
<stop stop-color="#06AFEA"/>
<stop offset="0.469666" stop-color="#6F3ABB"/>
<stop offset="1" stop-color="#A300A3"/>
</linearGradient>
<linearGradient id="paint2_linear_421_329" x1="245" y1="22.4" x2="245" y2="56.8727" gradientUnits="userSpaceOnUse">
<stop stop-color="#06AFEA"/>
<stop offset="0.469666" stop-color="#6F3ABB"/>
<stop offset="1" stop-color="#A300A3"/>
</linearGradient>
</defs>
</svg>
