<svg width="4170" height="837" viewBox="0 0 4170 837" fill="none" xmlns="http://www.w3.org/2000/svg">
<g clip-path="url(#clip0_12_11)">
<g filter="url(#filter0_f_12_11)">
<path d="M919.017 679.757C934.919 675.179 948.353 664.434 956.365 649.886C964.377 635.339 966.31 618.179 961.738 602.183C957.167 586.187 946.467 572.664 931.99 564.59C917.514 556.516 900.448 554.552 884.546 559.129C873.24 562.417 863.094 568.857 855.28 577.703L636.85 493.307C649.519 462.838 652.412 428.02 642.628 393.781C631.93 356.346 607.971 326.464 577.45 307.441L629.483 212.958C633.83 212.902 638.15 212.276 642.334 211.094C655.055 207.432 665.803 198.836 672.212 187.198C678.622 175.56 680.168 161.832 676.511 149.035C672.854 136.238 664.294 125.42 652.713 118.961C641.132 112.502 627.479 110.93 614.757 114.592C607.413 116.718 600.654 120.512 595.002 125.682C589.35 130.853 584.956 137.261 582.16 144.413C579.364 151.566 578.24 159.27 578.875 166.932C579.51 174.594 581.886 182.01 585.821 188.606L530.984 288.18C530.971 288.177 530.951 288.196 530.937 288.193C507.364 282.921 482.203 283.303 457.366 290.453C377.887 313.333 331.987 396.679 354.834 476.631C375.327 548.341 444.174 592.771 515.494 584.695L538.654 665.742C531.049 673.688 526.263 683.937 525.037 694.902C523.811 705.867 526.213 716.936 531.873 726.398C537.532 735.86 546.132 743.185 556.343 747.242C566.553 751.298 577.804 751.859 588.355 748.837C598.898 745.787 608.143 739.325 614.659 730.454C621.175 721.582 624.599 710.795 624.401 699.761C624.204 688.727 620.395 678.062 613.565 669.416C606.736 660.77 597.265 654.626 586.62 651.934L563.459 570.887C581.228 562.354 596.695 550.55 609.43 536.439L839.718 625.428C840.603 634.589 843.481 643.445 848.149 651.367C852.817 659.289 859.159 666.083 866.727 671.267C874.295 676.452 882.902 679.9 891.939 681.367C900.975 682.835 910.22 682.285 919.017 679.757ZM519.414 507.582C479.746 519.002 438.186 495.822 426.783 455.918C415.38 416.015 438.381 374.249 478.049 362.829C517.716 351.41 559.276 374.59 570.679 414.494C582.082 454.397 559.081 496.163 519.414 507.582Z" fill="#00A9FE"/>
</g>
<g filter="url(#filter1_f_12_11)">
<path d="M132.848 95.6791C116.367 97.121 101.136 105.089 90.5074 117.829C79.8786 130.57 74.7222 147.04 76.1724 163.616C77.6226 180.192 85.5607 195.516 98.2404 206.218C110.92 216.919 127.303 222.121 143.784 220.679C155.509 219.621 166.693 215.248 176.045 208.066L374.474 332.8C356.249 360.272 346.796 393.889 349.9 429.369C353.294 468.161 371.143 502.084 397.496 526.61L328.467 609.355C324.189 608.575 319.828 608.361 315.496 608.718C302.311 609.872 290.126 616.246 281.623 626.439C273.12 636.631 268.995 649.807 270.155 663.068C271.316 676.329 277.666 688.588 287.81 697.149C297.953 705.71 311.06 709.872 324.245 708.718C331.859 708.042 339.216 705.615 345.747 701.625C352.278 697.634 357.808 692.188 361.912 685.705C366.015 679.222 368.582 671.877 369.414 664.235C370.246 656.593 369.321 648.86 366.71 641.631L439.458 554.428C439.471 554.433 439.494 554.418 439.507 554.423C461.65 564.12 486.426 568.573 512.169 566.32C594.546 559.113 655.439 486.122 648.19 403.272C641.689 328.962 582.532 272.149 510.976 266.391L503.628 182.407C512.604 176.067 519.249 166.927 522.535 156.401C525.821 145.875 525.565 134.55 521.805 124.179C518.046 113.807 510.993 104.967 501.739 99.0274C492.484 93.0875 481.544 90.3786 470.612 91.32C459.681 92.2914 449.378 96.8588 441.296 104.316C433.213 111.772 427.803 121.702 425.902 132.569C424 143.436 425.714 154.634 430.778 164.429C435.842 174.225 443.973 182.072 453.913 186.757L461.261 270.741C442.195 275.707 424.768 284.324 409.585 295.73L200.387 164.213C201.258 155.052 200.113 145.808 197.035 137.138C193.957 128.468 189.02 120.583 182.574 114.043C176.129 107.502 168.333 102.467 159.74 99.2934C151.146 96.1198 141.965 94.8859 132.848 95.6791ZM492.484 341.32C533.598 337.723 570 368.446 573.618 409.796C577.235 451.146 546.721 487.723 505.607 491.32C464.493 494.917 428.091 464.194 424.473 422.844C420.855 381.494 451.369 344.917 492.484 341.32Z" fill="#430298"/>
</g>
<path d="M892.022 708.76C908.315 705.871 922.799 696.59 932.289 682.96C941.778 669.33 945.496 652.467 942.623 636.08C939.75 619.694 930.522 605.126 916.97 595.582C903.417 586.038 886.65 582.3 870.357 585.189C858.769 587.277 848.005 592.619 839.309 600.6L630.904 493.82C646.69 464.844 653.209 430.519 647.06 395.444C640.337 357.095 619.635 324.871 591.27 302.76L652.901 214.238C657.23 214.638 661.592 214.466 665.876 213.729C678.911 211.417 690.498 203.993 698.09 193.089C705.682 182.185 708.655 168.694 706.357 155.585C704.059 142.476 696.677 130.822 685.835 123.186C674.993 115.551 661.579 112.56 648.544 114.872C641.018 116.217 633.899 119.284 627.737 123.835C621.576 128.386 616.536 134.3 613.007 141.12C609.478 147.94 607.554 155.485 607.384 163.172C607.214 170.858 608.802 178.481 612.026 185.453L547.074 278.745C547.061 278.74 547.04 278.758 547.026 278.753C524.134 271.045 499.071 268.793 473.622 273.306C392.186 287.747 337.82 365.835 352.18 447.738C365.059 521.198 428.882 572.586 500.655 572.014L515.211 655.038C506.816 662.146 500.985 671.837 498.619 682.614C496.253 693.39 497.484 704.651 502.123 714.652C506.761 724.654 514.548 732.839 524.278 737.941C534.008 743.043 545.139 744.778 555.948 742.876C566.752 740.945 576.622 735.486 584.03 727.345C591.439 719.204 595.972 708.834 596.93 697.84C597.887 686.846 595.215 675.841 589.327 666.528C583.439 657.215 574.663 650.114 564.358 646.323L549.802 563.298C568.365 556.67 584.982 546.549 599.124 533.847L818.84 646.435C818.762 655.639 820.698 664.747 824.512 673.113C828.325 681.48 833.923 688.901 840.906 694.848C847.89 700.796 856.09 705.126 864.923 707.53C873.757 709.934 883.009 710.354 892.022 708.76ZM512.619 495.734C471.974 502.942 433.067 475.542 425.9 434.664C418.733 393.787 445.977 354.656 486.621 347.448C527.265 340.241 566.173 367.64 573.34 408.518C580.507 449.395 553.263 488.526 512.619 495.734Z" fill="white"/>
<path d="M159.381 76C142.837 76 126.97 82.61 115.271 94.3758C103.572 106.142 97 122.099 97 138.739C97 155.378 103.572 171.336 115.271 183.102C126.97 194.868 142.837 201.478 159.381 201.478C171.153 201.446 182.676 198.064 192.619 191.724L379.421 333.278C358.871 359.057 346.524 391.722 346.524 427.337C346.524 466.278 361.348 501.628 385.464 528.356L309.486 604.77C305.292 603.621 300.966 603.028 296.62 603.006C283.384 603.006 270.69 608.294 261.331 617.706C251.973 627.119 246.715 639.885 246.715 653.197C246.715 666.508 251.973 679.275 261.331 688.687C270.69 698.1 283.384 703.388 296.62 703.388C304.264 703.377 311.804 701.601 318.658 698.195C325.512 694.789 331.496 689.845 336.149 683.745C340.802 677.645 343.999 670.551 345.494 663.01C346.989 655.47 346.741 647.686 344.77 640.257L424.842 559.726C424.854 559.732 424.879 559.719 424.891 559.726C446.104 571.315 470.398 577.91 496.239 577.91C578.932 577.91 645.954 510.504 645.954 427.337C645.954 352.743 591.973 290.99 521.192 279.019V194.714C530.686 189.18 538.102 180.654 542.293 170.455C546.484 160.255 547.215 148.951 544.374 138.291C541.533 127.631 535.278 118.21 526.576 111.487C517.875 104.763 507.212 101.111 496.239 101.096C485.266 101.111 474.604 104.763 465.902 111.487C457.201 118.21 450.945 127.631 448.104 138.291C445.263 148.951 445.994 160.255 450.185 170.455C454.376 180.654 461.792 189.18 471.287 194.714V279.019C451.861 282.304 433.749 289.37 417.629 299.409L220.69 150.159C222.356 141.109 222.021 131.801 219.71 122.896C217.4 113.99 213.169 105.705 207.318 98.6277C201.467 91.5506 194.14 85.8548 185.855 81.9443C177.571 78.0338 168.533 76.0044 159.381 76ZM496.239 352.051C537.511 352.051 571.097 385.829 571.097 427.337C571.097 468.845 537.511 502.624 496.239 502.624C454.968 502.624 421.382 468.845 421.382 427.337C421.382 385.829 454.968 352.051 496.239 352.051Z" fill="white"/>
</g>
<g filter="url(#filter2_f_12_11)">
<path d="M1118.36 686.672V173.977L1154.59 156.887H1284.13C1318.54 156.887 1350.21 162.925 1379.15 175.002C1430.88 196.421 1456.74 227.98 1456.74 269.68V385.891C1456.74 427.59 1430.88 459.149 1379.15 480.568C1350.21 492.645 1318.54 498.684 1284.13 498.684H1186.72V655.91L1121.78 686.672H1118.36ZM1186.72 437.16H1284.13C1306.92 437.16 1327.88 433.4 1347.02 425.881C1374.59 414.943 1388.38 401.613 1388.38 385.891V269.68C1388.38 253.729 1374.59 240.399 1347.02 229.689C1327.88 222.17 1306.92 218.41 1284.13 218.41H1186.72V437.16ZM1542.19 686.672V373.928C1542.19 343.394 1563.49 319.924 1606.1 303.518C1629.12 294.631 1655.09 290.188 1684.03 290.188H1730.18V293.605L1702.83 351.711H1684.03C1663.53 351.711 1646.09 354.559 1631.74 360.256C1617.61 365.952 1610.55 374.497 1610.55 385.891V655.91L1545.61 686.672H1542.19ZM1856.64 584.133C1856.64 595.526 1863.7 604.071 1877.83 609.768C1892.19 615.464 1909.62 618.312 1930.13 618.312C1950.63 618.312 1967.95 615.464 1982.08 609.768C1996.44 604.071 2003.61 595.526 2003.61 584.133V385.891C2003.61 374.497 1996.44 365.952 1982.08 360.256C1967.95 354.559 1950.63 351.711 1930.13 351.711C1909.62 351.711 1892.19 354.559 1877.83 360.256C1863.7 365.952 1856.64 374.497 1856.64 385.891V584.133ZM1788.28 596.096V373.928C1788.28 343.85 1809.59 320.38 1852.2 303.518C1875.21 294.631 1901.19 290.188 1930.13 290.188C1959.07 290.188 1985.04 294.631 2008.06 303.518C2050.67 320.38 2071.97 343.85 2071.97 373.928V596.096C2071.97 626.174 2050.67 649.644 2008.06 666.506C1985.04 675.393 1959.07 679.836 1930.13 679.836C1901.19 679.836 1875.21 675.393 1852.2 666.506C1809.59 649.644 1788.28 626.174 1788.28 596.096ZM2191.6 686.672V393.41H2140.33V389.992L2168.02 331.203H2191.6V233.791C2191.6 203.257 2212.91 179.787 2255.52 163.381C2278.53 154.494 2304.51 150.051 2333.45 150.051H2379.59V153.469L2352.25 211.574H2333.45C2312.94 211.574 2295.51 214.423 2281.15 220.119C2267.02 225.816 2259.96 234.361 2259.96 245.754V331.203H2373.1V334.621L2345.41 393.41H2259.96V655.91L2195.02 686.672H2191.6ZM2504.35 221.486C2496.37 213.283 2492.38 203.485 2492.38 192.092C2492.38 180.471 2496.37 170.559 2504.35 162.355C2512.32 154.152 2522.01 150.051 2533.4 150.051C2544.79 150.051 2554.48 154.152 2562.45 162.355C2570.43 170.559 2574.41 180.471 2574.41 192.092C2574.41 203.485 2570.43 213.283 2562.45 221.486C2554.48 229.689 2544.79 233.791 2533.4 233.791C2522.01 233.791 2512.32 229.689 2504.35 221.486ZM2499.22 686.672V314.113L2564.16 283.352H2567.58V655.91L2502.64 686.672H2499.22ZM2732.32 686.672V359.23H2644.48V355.812L2672.17 297.023H2732.32V173.977L2797.27 143.215H2800.68V297.023H2888.53V300.441L2860.84 359.23H2800.68V655.91L2735.74 686.672H2732.32ZM2965.43 686.672V173.977L3030.37 143.215H3033.79V383.84H3235.45V173.977L3300.39 143.215H3303.81V655.91L3238.87 686.672H3235.45V446.047H3033.79V655.91L2968.85 686.672H2965.43ZM3423.44 314.113L3488.38 283.352H3491.8V584.133C3491.8 595.526 3498.86 604.071 3512.99 609.768C3527.34 615.464 3544.78 618.312 3565.28 618.312C3585.79 618.312 3603.11 615.464 3617.24 609.768C3631.59 604.071 3638.77 595.526 3638.77 584.133V314.113L3703.71 283.352H3707.13V596.096C3707.13 626.63 3685.82 650.1 3643.21 666.506C3620.2 675.393 3594.22 679.836 3565.28 679.836C3536.34 679.836 3510.37 675.393 3487.35 666.506C3444.74 650.1 3423.44 626.63 3423.44 596.096V314.113ZM3826.76 596.096V173.977L3891.7 143.215H3895.12V301.809C3916.99 294.061 3941.49 290.188 3968.6 290.188C3997.54 290.188 4023.52 294.631 4046.53 303.518C4089.14 320.38 4110.45 343.85 4110.45 373.928V596.096C4110.45 626.63 4089.14 650.1 4046.53 666.506C4023.52 675.393 3997.54 679.836 3968.6 679.836C3939.66 679.836 3913.69 675.393 3890.67 666.506C3848.06 649.644 3826.76 626.174 3826.76 596.096ZM3895.12 385.891V584.133C3895.12 595.526 3902.18 604.071 3916.31 609.768C3930.66 615.464 3948.1 618.312 3968.6 618.312C3989.11 618.312 4006.43 615.464 4020.56 609.768C4034.91 604.071 4042.09 595.526 4042.09 584.133V385.891C4042.09 374.497 4034.91 365.952 4020.56 360.256C4006.43 354.559 3989.11 351.711 3968.6 351.711C3948.1 351.711 3930.66 354.559 3916.31 360.256C3902.18 365.952 3895.12 374.497 3895.12 385.891Z" fill="white"/>
</g>
<path d="M1123.36 686.672V173.977L1159.59 156.887H1289.13C1323.54 156.887 1355.21 162.925 1384.15 175.002C1435.88 196.421 1461.74 227.98 1461.74 269.68V385.891C1461.74 427.59 1435.88 459.149 1384.15 480.568C1355.21 492.645 1323.54 498.684 1289.13 498.684H1191.72V655.91L1126.78 686.672H1123.36ZM1191.72 437.16H1289.13C1311.92 437.16 1332.88 433.4 1352.02 425.881C1379.59 414.943 1393.38 401.613 1393.38 385.891V269.68C1393.38 253.729 1379.59 240.399 1352.02 229.689C1332.88 222.17 1311.92 218.41 1289.13 218.41H1191.72V437.16ZM1547.19 686.672V373.928C1547.19 343.394 1568.49 319.924 1611.1 303.518C1634.12 294.631 1660.09 290.188 1689.03 290.188H1735.18V293.605L1707.83 351.711H1689.03C1668.53 351.711 1651.09 354.559 1636.74 360.256C1622.61 365.952 1615.55 374.497 1615.55 385.891V655.91L1550.61 686.672H1547.19ZM1861.64 584.133C1861.64 595.526 1868.7 604.071 1882.83 609.768C1897.19 615.464 1914.62 618.312 1935.13 618.312C1955.63 618.312 1972.95 615.464 1987.08 609.768C2001.44 604.071 2008.61 595.526 2008.61 584.133V385.891C2008.61 374.497 2001.44 365.952 1987.08 360.256C1972.95 354.559 1955.63 351.711 1935.13 351.711C1914.62 351.711 1897.19 354.559 1882.83 360.256C1868.7 365.952 1861.64 374.497 1861.64 385.891V584.133ZM1793.28 596.096V373.928C1793.28 343.85 1814.59 320.38 1857.2 303.518C1880.21 294.631 1906.19 290.188 1935.13 290.188C1964.07 290.188 1990.04 294.631 2013.06 303.518C2055.67 320.38 2076.97 343.85 2076.97 373.928V596.096C2076.97 626.174 2055.67 649.644 2013.06 666.506C1990.04 675.393 1964.07 679.836 1935.13 679.836C1906.19 679.836 1880.21 675.393 1857.2 666.506C1814.59 649.644 1793.28 626.174 1793.28 596.096ZM2196.6 686.672V393.41H2145.33V389.992L2173.02 331.203H2196.6V233.791C2196.6 203.257 2217.91 179.787 2260.52 163.381C2283.53 154.494 2309.51 150.051 2338.45 150.051H2384.59V153.469L2357.25 211.574H2338.45C2317.94 211.574 2300.51 214.423 2286.15 220.119C2272.02 225.816 2264.96 234.361 2264.96 245.754V331.203H2378.1V334.621L2350.41 393.41H2264.96V655.91L2200.02 686.672H2196.6ZM2509.35 221.486C2501.37 213.283 2497.38 203.485 2497.38 192.092C2497.38 180.471 2501.37 170.559 2509.35 162.355C2517.32 154.152 2527.01 150.051 2538.4 150.051C2549.79 150.051 2559.48 154.152 2567.45 162.355C2575.43 170.559 2579.41 180.471 2579.41 192.092C2579.41 203.485 2575.43 213.283 2567.45 221.486C2559.48 229.689 2549.79 233.791 2538.4 233.791C2527.01 233.791 2517.32 229.689 2509.35 221.486ZM2504.22 686.672V314.113L2569.16 283.352H2572.58V655.91L2507.64 686.672H2504.22ZM2737.32 686.672V359.23H2649.48V355.812L2677.17 297.023H2737.32V173.977L2802.27 143.215H2805.68V297.023H2893.53V300.441L2865.84 359.23H2805.68V655.91L2740.74 686.672H2737.32ZM2970.43 686.672V173.977L3035.37 143.215H3038.79V383.84H3240.45V173.977L3305.39 143.215H3308.81V655.91L3243.87 686.672H3240.45V446.047H3038.79V655.91L2973.85 686.672H2970.43ZM3428.44 314.113L3493.38 283.352H3496.8V584.133C3496.8 595.526 3503.86 604.071 3517.99 609.768C3532.34 615.464 3549.78 618.312 3570.28 618.312C3590.79 618.312 3608.11 615.464 3622.24 609.768C3636.59 604.071 3643.77 595.526 3643.77 584.133V314.113L3708.71 283.352H3712.13V596.096C3712.13 626.63 3690.82 650.1 3648.21 666.506C3625.2 675.393 3599.22 679.836 3570.28 679.836C3541.34 679.836 3515.37 675.393 3492.35 666.506C3449.74 650.1 3428.44 626.63 3428.44 596.096V314.113ZM3831.76 596.096V173.977L3896.7 143.215H3900.12V301.809C3921.99 294.061 3946.49 290.188 3973.6 290.188C4002.54 290.188 4028.52 294.631 4051.53 303.518C4094.14 320.38 4115.45 343.85 4115.45 373.928V596.096C4115.45 626.63 4094.14 650.1 4051.53 666.506C4028.52 675.393 4002.54 679.836 3973.6 679.836C3944.66 679.836 3918.69 675.393 3895.67 666.506C3853.06 649.644 3831.76 626.174 3831.76 596.096ZM3900.12 385.891V584.133C3900.12 595.526 3907.18 604.071 3921.31 609.768C3935.66 615.464 3953.1 618.312 3973.6 618.312C3994.11 618.312 4011.43 615.464 4025.56 609.768C4039.91 604.071 4047.09 595.526 4047.09 584.133V385.891C4047.09 374.497 4039.91 365.952 4025.56 360.256C4011.43 354.559 3994.11 351.711 3973.6 351.711C3953.1 351.711 3935.66 354.559 3921.31 360.256C3907.18 365.952 3900.12 374.497 3900.12 385.891Z" fill="white"/>
<defs>
<filter id="filter0_f_12_11" x="248.967" y="12.6554" width="815.2" height="838.1" filterUnits="userSpaceOnUse" color-interpolation-filters="sRGB">
<feFlood flood-opacity="0" result="BackgroundImageFix"/>
<feBlend mode="normal" in="SourceGraphic" in2="BackgroundImageFix" result="shape"/>
<feGaussianBlur stdDeviation="50" result="effect1_foregroundBlur_12_11"/>
</filter>
<filter id="filter1_f_12_11" x="-24.0679" y="-8.86304" width="772.844" height="817.77" filterUnits="userSpaceOnUse" color-interpolation-filters="sRGB">
<feFlood flood-opacity="0" result="BackgroundImageFix"/>
<feBlend mode="normal" in="SourceGraphic" in2="BackgroundImageFix" result="shape"/>
<feGaussianBlur stdDeviation="50" result="effect1_foregroundBlur_12_11"/>
</filter>
<filter id="filter2_f_12_11" x="1068.36" y="93.2148" width="3092.09" height="643.457" filterUnits="userSpaceOnUse" color-interpolation-filters="sRGB">
<feFlood flood-opacity="0" result="BackgroundImageFix"/>
<feBlend mode="normal" in="SourceGraphic" in2="BackgroundImageFix" result="shape"/>
<feGaussianBlur stdDeviation="25" result="effect1_foregroundBlur_12_11"/>
</filter>
<clipPath id="clip0_12_11">
<rect width="1050" height="835.991" fill="white" transform="translate(0 0.544067)"/>
</clipPath>
</defs>
</svg>
