<svg width="111" height="120" viewBox="0 0 111 120" fill="none" xmlns="http://www.w3.org/2000/svg">
<path d="M46.8317 60L14.1981 60" stroke="#fff" stroke-width="6" stroke-miterlimit="10" stroke-linecap="round" stroke-linejoin="round"/>
<path d="M46.8317 43L14.1981 43" stroke="#fff" stroke-width="6" stroke-miterlimit="10" stroke-linecap="round" stroke-linejoin="round"/>
<path d="M46.8317 26L14.1981 26" stroke="#fff" stroke-width="6" stroke-miterlimit="10" stroke-linecap="round" stroke-linejoin="round"/>
<path d="M90.9743 86.0002C86.871 86.0002 83.5446 89.069 83.5446 92.8546C83.5446 96.6402 86.871 99.709 90.9743 99.709C95.0776 99.709 98.4039 96.6402 98.4039 92.8546C98.4039 89.069 95.0776 86.0002 90.9743 86.0002Z" stroke="#fff" stroke-width="6" stroke-miterlimit="10" stroke-linecap="round" stroke-linejoin="round"/>
<path d="M73.599 92.9998L14.1981 93.1909" stroke="#fff" stroke-width="6" stroke-miterlimit="10" stroke-linecap="round" stroke-linejoin="round"/>
<path d="M73.599 75.9998L14.1981 76.1909" stroke="#fff" stroke-width="6" stroke-miterlimit="10" stroke-linecap="round" stroke-linejoin="round"/>
<path d="M107 95.7843V107.405C107 112.12 101.965 115.825 95.5556 115.825L15.4444 115.825C9.03554 115.825 3.99998 112.12 3.99998 107.405L3.99998 12.4208C3.99998 7.70524 9.03554 4.0002 15.4444 4.0002L95.5556 4.0002C101.965 4.0002 107 7.70524 107 12.4208L107 24.0411" stroke="#fff" stroke-width="7" stroke-miterlimit="10" stroke-linecap="round" stroke-linejoin="round"/>
<g clip-path="url(#clip0_52_119)">
<path d="M78.7972 41.1744C78.8551 41.1744 78.9131 41.1744 78.9827 41.1744C79.0059 41.1744 79.0291 41.1744 79.0523 41.1744C79.0871 41.1744 79.1335 41.1744 79.1682 41.1744C82.5661 41.1164 85.3144 39.9219 87.3439 37.6374C91.8085 32.6045 91.0664 23.9766 90.9852 23.1532C90.6953 16.9723 87.7729 14.0151 85.3608 12.6351C83.5634 11.603 81.4644 11.0464 79.1219 11H79.0407C79.0291 11 79.0059 11 78.9943 11H78.9247C77.6375 11 75.1094 11.2087 72.6857 12.5887C70.2505 13.9687 67.2817 16.9259 66.9918 23.1532C66.9106 23.9766 66.1685 32.6045 70.6331 37.6374C72.651 39.9219 75.3994 41.1164 78.7972 41.1744ZM70.0881 23.4432C70.0881 23.4084 70.0997 23.3736 70.0997 23.3504C70.4824 15.0356 76.3851 14.1427 78.9131 14.1427H78.9595C78.9827 14.1427 79.0175 14.1427 79.0523 14.1427C82.1834 14.2123 87.5062 15.4879 87.8657 23.3504C87.8657 23.3852 87.8657 23.42 87.8773 23.4432C87.8889 23.5243 88.7007 31.41 85.0129 35.5616C83.5518 37.2083 81.6035 38.0201 79.0407 38.0433C79.0175 38.0433 79.0059 38.0433 78.9827 38.0433C78.9595 38.0433 78.9479 38.0433 78.9247 38.0433C76.3735 38.0201 74.4136 37.2083 72.9641 35.5616C69.2879 31.4332 70.0765 23.5127 70.0881 23.4432Z" fill="#fff"/>
<path d="M102.814 55.4845C102.814 55.4729 102.814 55.4613 102.814 55.4497C102.814 55.357 102.802 55.2642 102.802 55.1598C102.733 52.8637 102.582 47.4945 97.5488 45.7782C97.514 45.7666 97.4677 45.755 97.4329 45.7434C92.2028 44.4098 87.8541 41.3947 87.8077 41.3599C87.1003 40.8612 86.1262 41.0352 85.6275 41.7426C85.1289 42.45 85.3028 43.4241 86.0102 43.9227C86.2074 44.0619 90.8228 47.2741 96.5979 48.7585C99.2999 49.721 99.6014 52.6086 99.6826 55.2526C99.6826 55.357 99.6826 55.4497 99.6942 55.5425C99.7058 56.5862 99.6362 58.1981 99.4507 59.1259C97.572 60.1928 90.2082 63.8805 79.0059 63.8805C67.8499 63.8805 60.4397 60.1812 58.5495 59.1143C58.3639 58.1865 58.2827 56.5746 58.3059 55.5309C58.3059 55.4381 58.3175 55.3454 58.3175 55.241C58.3987 52.597 58.7002 49.7094 61.4022 48.7469C67.1773 47.2625 71.7928 44.0387 71.9899 43.9111C72.6973 43.4125 72.8713 42.4384 72.3726 41.731C71.874 41.0236 70.8998 40.8496 70.1924 41.3483C70.1461 41.3831 65.8205 44.3982 60.5673 45.7318C60.5209 45.7434 60.4861 45.755 60.4513 45.7666C55.4184 47.4945 55.2676 52.8637 55.198 55.1482C55.198 55.2526 55.198 55.3454 55.1864 55.4381C55.1864 55.4497 55.1864 55.4613 55.1864 55.4729C55.1748 56.076 55.1633 59.1723 55.7779 60.7262C55.8938 61.0277 56.1026 61.2828 56.3809 61.4568C56.7288 61.6887 65.0668 67 79.0175 67C92.9682 67 101.306 61.6771 101.654 61.4568C101.921 61.2828 102.141 61.0277 102.257 60.7262C102.837 59.1838 102.825 56.0876 102.814 55.4845Z" fill="#fff"/>
</g>
<defs>
<clipPath id="clip0_52_119">
<rect width="56" height="56" fill="white" transform="translate(51.0001 11)"/>
</clipPath>
</defs>
</svg>
