<svg width="103" height="120" viewBox="0 0 103 120" fill="none" xmlns="http://www.w3.org/2000/svg">
<path d="M19.0698 89.9354C22.8439 89.9354 25.9034 86.8665 25.9034 83.081C25.9034 79.2954 22.8439 76.2266 19.0698 76.2266C15.2958 76.2266 12.2363 79.2954 12.2363 83.081C12.2363 86.8665 15.2958 89.9354 19.0698 89.9354Z" stroke="#fff" stroke-width="6" stroke-miterlimit="10" stroke-linecap="round" stroke-linejoin="round"/>
<path d="M35.3414 83.0807L89.9765 82.8896" stroke="#fff" stroke-width="6" stroke-miterlimit="10" stroke-linecap="round" stroke-linejoin="round"/>
<path d="M19.0698 43.0735C22.8439 43.0735 25.9034 40.0047 25.9034 36.2191C25.9034 32.4336 22.8439 29.3647 19.0698 29.3647C15.2958 29.3647 12.2363 32.4336 12.2363 36.2191C12.2363 40.0047 15.2958 43.0735 19.0698 43.0735Z" stroke="#fff" stroke-width="6" stroke-miterlimit="10" stroke-linecap="round" stroke-linejoin="round"/>
<path d="M35.3414 36.2189L89.9765 36.0278" stroke="#fff" stroke-width="6" stroke-miterlimit="10" stroke-linecap="round" stroke-linejoin="round"/>
<path d="M35.3414 59.6496L89.9765 59.4585" stroke="#fff" stroke-width="6" stroke-miterlimit="10" stroke-linecap="round" stroke-linejoin="round"/>
<path d="M11 58.7397L16.7428 64.5L27.2109 54" stroke="#fff" stroke-width="6" stroke-miterlimit="10" stroke-linecap="round" stroke-linejoin="round"/>
<path d="M4 24.0409V12.4206C4 7.70505 8.63155 4 14.5262 4H88.2099C94.1046 4 98.7362 7.70505 98.7362 12.4206V107.404C98.7362 112.12 94.1046 115.825 88.2099 115.825H14.5262C8.63155 115.825 4 112.12 4 107.404V95.7841" stroke="#fff" stroke-width="7" stroke-miterlimit="10" stroke-linecap="round" stroke-linejoin="round"/>
</svg>
