<?xml version="1.0" encoding="UTF-8"?>
<!DOCTYPE svg PUBLIC "-//W3C//DTD SVG 1.1//EN" "http://www.w3.org/Graphics/SVG/1.1/DTD/svg11.dtd">
<!-- Creator: CorelDRAW -->
<svg xmlns="http://www.w3.org/2000/svg" xml:space="preserve" width="232.986mm" height="48.7878mm" version="1.1" style="shape-rendering:geometricPrecision; text-rendering:geometricPrecision; image-rendering:optimizeQuality; fill-rule:evenodd; clip-rule:evenodd"
viewBox="0 0 23298.58 4878.78"
 xmlns:xlink="http://www.w3.org/1999/xlink"
 xmlns:xodm="http://www.corel.com/coreldraw/odm/2003">
 <defs>
  <style type="text/css">
   <![CDATA[
    .fil1 {fill:#FEFEFE}
    .fil3 {fill:white;fill-rule:nonzero}
    .fil0 {fill:url(#id0)}
    .fil2 {fill:url(#id1);fill-rule:nonzero}
   ]]>
  </style>
  <linearGradient id="id0" gradientUnits="userSpaceOnUse" x1="451.17" y1="1355.73" x2="4348.93" y2="3631.4">
   <stop offset="0" style="stop-opacity:1; stop-color:#0A96CC"/>
   <stop offset="1" style="stop-opacity:1; stop-color:#112982"/>
  </linearGradient>
  <linearGradient id="id1" gradientUnits="userSpaceOnUse" x1="6925.03" y1="-106.58" x2="12661.86" y2="4030.26">
   <stop offset="0" style="stop-opacity:1; stop-color:#0F91C6"/>
   <stop offset="1" style="stop-opacity:1; stop-color:#173291"/>
  </linearGradient>
 </defs>
 <g id="Camada_x0020_1">
  <metadata id="CorelCorpID_0Corel-Layer"/>
  <path class="fil0" d="M3537.89 544.68c1076.34,628.41 1439.45,2010.38 811.04,3086.72 -628.41,1076.34 -2010.38,1439.46 -3086.71,811.05 -1076.34,-628.41 -1439.46,-2010.38 -811.05,-3086.72 628.41,-1076.34 2010.38,-1439.46 3086.72,-811.05z"/>
  <path class="fil1" d="M1538.8 2755.55c4.42,-29.21 230.9,-424.69 250.44,-460.2l187.2 -338.28c16.22,-28.02 47.37,-94.35 64.63,-111.44 7.19,6.2 5.24,4.28 11.02,12.56l191.93 320.64c38.84,63.19 34.67,49.42 -2.92,113.87 -42.53,72.92 -83.66,155.76 -126.4,228.78l-125.84 225.95 -450.06 8.12zm703.08 -1038.87c-29.09,-47.6 -54.47,-93.06 -81.88,-136.28 -30.56,-48.19 -51.54,-94.26 -125.14,-92.85 -70.41,1.34 -96.69,50.44 -121.89,97.13 -24.52,45.39 -50.9,93.17 -76.85,139.06l-151.24 275.47c-101.69,182.6 -206.8,367.83 -307.58,551.95l-153.59 278.1c-28.6,63.23 4.29,123.22 47.64,149.62 42.57,25.93 140.91,14.35 197.59,13.37 144.55,-2.49 289.1,-5.03 433.64,-7.49 129.89,-2.2 215.01,19.19 262.44,-68.51l191.65 -343.38c50.95,-92.89 97.01,-178.06 151.22,-275.63l537.49 -969.43c13.57,-24.75 23.64,-42.49 38.33,-69.18 12.34,-22.42 24.07,-51.62 39.58,-64.83 37.29,14.01 106.82,63.61 136.53,84.77 48.18,34.32 86.17,67.03 123.19,97.8 841.65,699.52 543.63,2125.17 -498.26,2472.56 -98.29,32.78 -211.5,61.13 -328.79,71.28 -201.01,17.39 -318.31,-14.05 -379.39,-10.33 -20.95,49.61 -108.77,182.08 -115.42,215.76 114.58,29.48 267.99,38.5 394.95,36.54 1691.24,-26.15 2276.12,-2300.31 820.8,-3154.56 -48.54,-28.49 -203.23,-111.08 -253.8,-120.56 -14.6,15.64 -408.6,730.32 -462.93,829.89 -24.05,44.07 -52.12,93.07 -77.15,138.83 -11.91,21.77 -61.73,125.28 -78.02,132.24l-163.12 -271.34z"/>
  <path class="fil1" d="M2686.26 2735.4c4.49,-26.69 23.26,-50.48 36.62,-74.96 12.84,-23.55 23.58,-42.06 37.29,-66.61l148.94 -269.21c13.4,-24.02 58.77,-119.69 80.09,-131.5 13.87,32.34 202.03,340.52 237.46,398.56 15.83,25.94 24.77,41.95 38.79,65.07 14.42,23.78 31.03,45.54 38.3,68.02l-617.49 10.63zm97.34 -1682.64c17.89,-47.38 100.6,-172.39 110.59,-206.81 -16.77,-13.12 -46.14,-17.03 -69.94,-23.13 -73.4,-18.8 -147.24,-32.13 -223.56,-39.77 -319.02,-31.91 -618.18,16.88 -899.94,147.43 -322.07,149.22 -562.41,378.93 -744.82,675.79 -81.5,132.62 -161.09,326.66 -197.66,507.52 -96.07,475.21 10.12,1000.63 312.44,1385.45 93.79,109.05 200.89,227.07 314.19,314.18 52.93,40.69 103.44,74.75 163.75,110.84 73.87,44.22 310.58,163.14 382.53,165.27 22.52,-46.12 50.82,-94.33 77.65,-141.78l231.21 -416.61c47.5,-84.93 266.19,-490.72 310.2,-556.94 85.62,-6.06 182.4,-3.75 269.33,-5.25l533.02 -9.19c91.21,-1.62 286.94,28.9 277.93,-128.92 -2.7,-47.28 -117.05,-219.67 -142.57,-261.64 -67.23,-110.58 -138.23,-228.71 -200.44,-334.84l-202.92 -337.54c-36.3,-59.86 -115.58,-87.18 -177.54,-36.11 -35.4,29.17 -76.05,120.02 -101.08,164.46l-286.1 515c-60.44,111.47 -104.27,184.36 -164.91,297.86l-533.23 959.49c-33.46,-4.96 -143.13,-70.82 -171.94,-88.31 -153.74,-93.31 -293.59,-221.13 -404.96,-371.62 -78.12,-105.57 -139.11,-214.07 -186.64,-335.72 -147.23,-376.75 -141.86,-745.18 25.84,-1129.61 168.66,-386.64 519.53,-689.72 929.78,-807.19 178.76,-51.19 393.12,-71.23 584.46,-44.57 29.79,4.16 62.82,8.64 91.98,14.96 23.93,5.18 71.08,16.96 93.35,17.3z"/>
  <g id="_1832280610160">
   <path class="fil2" d="M5472.44 2768.24l0 -977.74 1089.67 0c28.94,0 53.3,-4.18 73.1,-12.56 19.8,-8.38 35.03,-19.42 45.69,-32.36 10.66,-12.95 18.27,-27.42 22.84,-42.65 4.57,-15.23 6.86,-30.84 6.86,-46.07 0,-29.31 -10.28,-57.87 -30.84,-86.42 -20.56,-28.56 -59.78,-42.65 -117.65,-42.65l-1089.67 0 0 -372.36 1088.15 0c77.67,0 150.01,12.95 217.78,38.84 67.77,25.89 124.5,63.96 169.81,114.22 89.85,102.04 134.78,218.54 134.78,349.52 0,62.44 -11.42,123.74 -34.27,183.89 -22.84,60.16 -56.35,116.89 -100.13,170.19 -45.69,51.78 -102.42,91 -170.19,117.65 -67.39,26.65 -140.11,39.98 -217.4,39.98l-716.17 0 0 598.52 -372.36 0zm2975.09 0l-282.89 -600.81 -551.69 0 0 600.81 -372.36 0 0 -980.02 1089.67 0c28.94,0 53.3,-4.19 73.1,-12.56 19.8,-8.38 35.03,-18.66 45.69,-30.84 10.66,-12.19 18.27,-25.51 22.84,-39.98 4.57,-14.47 6.86,-28.56 6.86,-42.26 0,-13.71 -2.29,-28.56 -6.86,-44.55 -4.57,-15.99 -12.56,-30.46 -23.98,-43.4 -11.42,-12.95 -26.65,-23.99 -45.69,-33.13 -19.04,-9.14 -43.02,-13.71 -71.96,-13.71l-1089.67 0 0 -372.36 1088.15 0c77.67,0 150.01,13.71 217.78,41.12 67.77,27.42 124.5,65.49 169.81,114.22 44.16,51.78 77.67,107.37 100.51,166.77 22.85,59.39 34.27,121.07 34.27,185.04 0,57.87 -11.42,116.88 -34.27,177.04 -22.84,60.16 -56.35,116.89 -100.13,170.19 -21.32,24.37 -44.55,45.69 -69.68,63.96 -25.13,18.28 -52.16,33.51 -81.09,45.69l305.73 648.78 -424.14 0zm586.34 -529.99l0 -543.69c0,-76.15 14.08,-146.97 42.26,-212.45 28.17,-65.49 66.25,-122.6 114.22,-171.34 47.97,-48.73 104.7,-86.8 170.19,-114.22 65.49,-27.41 136.3,-41.12 212.45,-41.12l689.9 0c73.1,0 141.63,13.71 205.6,41.12 63.96,27.42 119.93,65.49 167.9,114.22 47.98,48.74 86.05,105.85 114.23,171.34 28.17,65.48 42.26,136.3 42.26,212.45l0 543.69c0,73.1 -14.09,141.64 -42.26,205.6 -28.18,63.96 -66.25,119.93 -114.23,167.91 -47.97,47.97 -103.94,86.04 -167.9,114.22 -63.97,28.17 -132.5,42.26 -205.6,42.26l-689.9 0c-76.15,0 -146.96,-14.09 -212.45,-42.26 -65.49,-28.18 -122.22,-66.25 -170.19,-114.22 -47.97,-47.98 -86.05,-103.95 -114.22,-167.91 -28.18,-63.96 -42.26,-132.5 -42.26,-205.6zm1386.65 0l0 -543.69c0,-48.74 -15.23,-88.71 -45.69,-119.93 -30.46,-31.23 -67.77,-46.84 -111.94,-46.84l-689.9 0c-45.69,0 -84.9,15.61 -117.65,46.84 -32.74,31.22 -49.11,71.19 -49.11,119.93l0 543.69c0,42.64 16.37,78.82 49.11,108.51 32.75,29.7 71.96,44.55 117.65,44.55l689.9 0c44.17,0 81.48,-14.85 111.94,-44.55 30.46,-29.69 45.69,-65.87 45.69,-108.51zm943.47 529.99l-372.36 0 0 -920.63c0,-216.25 55.96,-385.68 167.9,-508.28 111.94,-122.6 276.8,-183.9 494.58,-183.9l868.08 0 0 372.36 -868.08 0c-105.08,0 -178.18,22.09 -219.3,66.25 -41.12,44.17 -64.73,106.61 -70.82,187.33l1089.67 0 0 372.36 -1089.67 0 0 614.51zm1857.24 0l0 -1240.45 -518.56 0 0 -372.36 1411.77 0 0 372.36 -520.85 0 0 1240.45 -372.36 0z"/>
   <path class="fil3" d="M14294.92 1705.98c0,-68.53 12.56,-135.92 37.69,-202.17 25.13,-66.25 62.06,-124.88 110.79,-175.9 48.74,-51.02 108.9,-92.52 180.47,-124.5 71.58,-31.99 153.06,-47.98 244.44,-47.98l973.17 0 0 372.36 -945.76 0c-36.55,0 -68.91,6.86 -97.09,20.56 -28.17,13.71 -51.78,31.99 -70.81,54.83 -19.04,22.84 -33.89,49.5 -44.55,79.96 -10.66,30.45 -15.99,62.44 -15.99,95.94l0 178.19 0 196.46c0,63.96 20.18,119.55 60.54,166.76 40.35,47.21 96.32,70.82 167.9,70.82l945.76 0 0 376.93 -973.17 0c-94.43,0 -177.43,-16.37 -249,-49.12 -71.58,-32.74 -131.36,-75 -179.33,-126.78 -47.98,-51.78 -84.15,-109.65 -108.51,-173.62 -24.37,-63.96 -36.55,-126.4 -36.55,-187.32l0 -269.56 0 -255.86zm2113.1 374.65c0,50.25 4.19,94.8 12.56,133.64 8.38,38.83 23.23,71.19 44.55,97.08 21.32,25.89 50.64,45.69 87.95,59.4 37.31,13.71 85.67,20.56 145.06,20.56l619.08 0 0 376.93 -619.08 0c-109.65,0 -205.6,-15.99 -287.84,-47.97 -82.24,-31.99 -151.15,-78.05 -206.74,-138.21 -55.59,-60.16 -97.47,-133.26 -125.64,-219.31 -28.18,-86.04 -42.26,-183.13 -42.26,-291.26l0 -916.06 372.36 0 0 925.2zm1103.38 157.62l0 -543.69c0,-76.15 14.08,-146.97 42.26,-212.45 28.17,-65.49 66.25,-122.6 114.22,-171.34 47.97,-48.73 104.7,-86.8 170.19,-114.22 65.49,-27.41 136.3,-41.12 212.45,-41.12l689.9 0c73.1,0 141.63,13.71 205.6,41.12 63.96,27.42 119.93,65.49 167.9,114.22 47.98,48.74 86.05,105.85 114.23,171.34 28.17,65.48 42.26,136.3 42.26,212.45l0 543.69c0,73.1 -14.09,141.64 -42.26,205.6 -28.18,63.96 -66.25,119.93 -114.23,167.91 -47.97,47.97 -103.94,86.04 -167.9,114.22 -63.97,28.17 -132.5,42.26 -205.6,42.26l-689.9 0c-76.15,0 -146.96,-14.09 -212.45,-42.26 -65.49,-28.18 -122.22,-66.25 -170.19,-114.22 -47.97,-47.98 -86.05,-103.95 -114.22,-167.91 -28.18,-63.96 -42.26,-132.5 -42.26,-205.6zm1386.65 0l0 -543.69c0,-48.74 -15.23,-88.71 -45.69,-119.93 -30.46,-31.23 -67.77,-46.84 -111.94,-46.84l-689.9 0c-45.69,0 -84.9,15.61 -117.65,46.84 -32.74,31.22 -49.11,71.19 -49.11,119.93l0 543.69c0,42.64 16.37,78.82 49.11,108.51 32.75,29.7 71.96,44.55 117.65,44.55l689.9 0c44.17,0 81.48,-14.85 111.94,-44.55 30.46,-29.69 45.69,-65.87 45.69,-108.51zm1119.37 529.99c-68.53,0 -135.92,-12.56 -202.17,-37.69 -66.25,-25.13 -124.88,-62.06 -175.9,-110.8 -51.02,-48.73 -92.14,-108.89 -123.36,-180.47 -31.22,-71.58 -46.83,-153.82 -46.83,-246.72l0 -1037.13 372.36 0 0 1012c0,73.11 23.98,128.69 71.96,166.77 47.97,38.07 104.7,57.11 170.19,57.11l189.61 0 185.03 0c31.99,0 62.45,-4.95 91.38,-14.85 28.94,-9.9 54.45,-24.37 76.53,-43.4 22.08,-19.04 39.6,-42.65 52.54,-70.82 12.95,-28.18 19.42,-59.78 19.42,-94.81l0 -1012 376.93 0 0 1037.13c0,94.43 -16.75,177.43 -50.26,249.01 -33.5,71.58 -76.14,131.35 -127.93,179.32 -51.78,47.98 -110.03,84.53 -174.75,109.66 -64.73,25.13 -127.55,37.69 -188.47,37.69l-264.99 0 -251.29 0zm2871.52 -1062.26l0 525.42c0,60.92 -12.18,123.36 -36.55,187.32 -24.36,63.97 -60.92,121.84 -109.27,173.62 -48.73,51.78 -108.89,94.04 -180.47,126.78 -71.58,32.75 -153.44,49.12 -246.34,49.12l-1040.17 0 0 -989.16 372.36 0 0 612.23 644.21 0c70.05,0 124.88,-23.61 164.48,-70.82 39.59,-47.21 59.39,-102.8 59.39,-166.76l0 -374.65c0,-33.5 -4.95,-65.49 -14.85,-95.94 -9.9,-30.46 -23.98,-57.12 -42.26,-79.96 -18.27,-22.84 -41.5,-41.12 -69.67,-54.83 -28.18,-13.7 -60.54,-20.56 -97.09,-20.56l-1016.57 0 0 -372.36 1040.17 0c92.9,0 174.38,15.99 245.2,47.98 70.82,31.98 130.59,73.48 179.33,124.5 48.35,51.02 85.28,109.65 110.41,175.9 25.13,66.25 37.69,133.64 37.69,202.17z"/>
  </g>
  <path class="fil3" d="M9296.39 3698.35l-188.26 -369.45 -188.25 369.45 -41.12 80.31 89.95 0 41.12 -80.31 98.3 -192.76 98.31 192.76 41.12 80.31 89.95 0 -41.12 -80.31zm1231.15 -127.22c0,0 0,0 0,0 12.21,-1.29 23.78,-4.5 34.7,-9.64 41.76,-19.27 70.67,-61.68 70.67,-110.83 0,-33.73 -13.49,-63.93 -35.33,-86.42 -21.85,-21.84 -52.05,-35.34 -85.46,-35.34l-283.99 0 0 449.76 80.32 0 0 -206.25 80.31 0c28.91,0 53.97,15.32 68.11,38.45l1.92 3.75 43.05 83.95 41.12 80.1 89.95 0 -41.12 -80.1 -64.25 -127.43zm-219.09 -78.39l0 -83.52 203.67 0c14.14,0 23.78,6.42 28.92,11.67 4.49,4.5 12.2,14.88 12.2,29.77 0,16.17 -9.63,31.05 -24.41,37.59 -5.14,2.57 -10.92,3.85 -16.71,3.85l-203.67 0.64zm1627.58 23.13c12.21,-18.63 19.28,-41.12 19.28,-65.53 0,-66.82 -54.62,-121.44 -121.44,-121.44l-283.34 0 0 449.76 0 0 0 0 306.47 0c79.03,0 143.28,-64.25 143.28,-143.28 0,-50.12 -25.7,-93.81 -64.25,-119.51l0 0zm-305.19 -106.65l203.67 0c22.49,0 41.13,18.63 41.13,41.12 0,22.49 -18.64,41.12 -41.13,41.12l-203.67 0 0 -82.24zm226.16 289.13l-226.16 0 0 -126.58 226.16 0c34.7,0 62.97,28.27 62.97,62.97 0,34.69 -28.27,62.96 -62.97,62.96l0 0.65zm1124.51 80.31l0 -449.76 -80.31 0 0 449.76 80.31 0zm916.97 -449.76l0 80.32 184.4 0 0 369.44 80.31 0 0 -369.44 184.4 0 0 -80.32 -449.11 0zm1665.49 242.23c0,0 0,0 0,0 12.21,-1.29 23.78,-4.5 34.7,-9.64 41.76,-19.27 70.67,-61.68 70.67,-110.83 0,-33.73 -13.49,-63.93 -35.33,-86.42 -21.85,-21.84 -52.05,-35.34 -85.46,-35.34l-283.99 0 0 449.76 80.32 0 0 -206.25 80.31 0c28.91,0 53.97,15.32 68.11,38.45l1.92 3.75 43.05 83.95 41.12 80.1 89.95 0 -41.12 -80.1 -64.25 -127.43zm-219.09 -78.39l0 -83.52 203.67 0c14.14,0 23.78,6.42 28.92,11.67 4.49,4.5 12.2,14.88 12.2,29.77 0,16.17 -9.63,31.05 -24.41,37.59 -5.14,2.57 -10.92,3.85 -16.71,3.85l-203.67 0.64zm1322.39 285.92l0 -449.76 -80.31 0 0 449.76 80.31 0zm1286.41 -449.76l0 224.88c0,79.67 -64.89,144.57 -144.57,144.57 -79.67,0 -144.56,-64.9 -144.56,-144.57l0 -224.88 -80.31 0 0 224.88c0,124.01 100.87,224.88 224.87,224.88 124.01,0 224.88,-100.87 224.88,-224.88l0 -224.88 -80.31 0zm1366.73 61.68l-144.57 111.16 -144.56 -111.16 -80.31 -61.68 0 449.76 80.31 0 0 -286.56 79.03 60.4 65.53 50.75 65.54 -50.75 79.03 -60.4 0 286.56 80.31 0 0 -449.76 -80.31 61.68z"/>
 </g>
</svg>
