<svg width="142" height="160" viewBox="0 0 142 160" fill="none" xmlns="http://www.w3.org/2000/svg">
<path d="M63 118.2L28.6 83.7998L39.8 72.5998L63 95.9998L102.2 56.7998L113.4 67.9998L63 118.2Z" fill="white"/>
<path d="M75.3999 4L71 0L66.5999 4C66.1999 4.2 36 30.4 6.99995 30.4H0.199951V37.2C0.199951 63.4 0.19995 93.2 13 116.2C26 139.2 51.1999 155.4 69.5999 159.6L71.2 160L72.8 159.6C90.4 155.2 115 138.8 127.8 116.2C140.8 93.4 142 64.8 142 37.4V30.6H135C106 30.4 75.7999 4.4 75.3999 4ZM116 109.4C105.4 127.8 85.2 141.8 70.8 146C56 142 35.1999 128.4 24.7999 109.6C14.5999 91.4 13.7999 67.4 13.5999 43.6C38.3999 41 61.4 25 71 17.6C80.4 25 103.6 40.8 128.2 43.6C128 67.2 126.4 91.2 116 109.4Z" fill="white"/>
</svg>
