<svg width="131" height="170" viewBox="0 0 131 170" fill="none" xmlns="http://www.w3.org/2000/svg">
<path d="M67.1053 6.00006V6.00003H67.0974C45.0372 6.00003 26.5704 21.6058 22.1257 42.354C21.9535 43.1536 21.9621 43.9816 22.1509 44.7775C22.3398 45.5736 22.7043 46.3174 23.2176 46.9546C23.731 47.5917 24.3803 48.106 25.118 48.4599C25.8557 48.8138 26.6631 48.9983 27.4813 49H27.4834H34.7574C37.3033 49 39.4233 47.2407 40.0601 44.836C43.2335 32.8573 54.1427 24 67.0973 24C67.4324 24 67.7674 24.0058 68.1022 24.0174C83.2718 24.5512 95.0974 37.5657 95.0974 52.816V79.5V80.5H96.0974H112.097H113.097V79.5V53.104C113.097 27.8482 93.1911 6.42778 67.876 6.00617V6.00613L67.8673 6.00606L67.1053 6.00006ZM67.0974 1.00003L67.0985 1.00003C67.3844 0.999702 67.6702 1.00231 67.956 1.00784L67.9588 1.00789C95.5832 1.4665 118.097 24.8218 118.097 53.104V86.5H90.0974V52.816C90.0974 40.1528 80.1937 29.4475 67.9278 29.0147C67.6474 29.0042 67.3711 29 67.0974 29C56.6922 29 47.5646 36.0388 44.8928 46.1157L44.8927 46.1163C43.6627 50.765 39.488 54 34.7574 54H27.4834H27.4817C25.9202 54.0027 24.378 53.6548 22.9689 52.982C21.5598 52.3092 20.3197 51.3286 19.3401 50.1127L19.3377 50.1097C18.3507 48.894 17.6494 47.472 17.2857 45.9488C16.9221 44.4256 16.9053 42.8402 17.2367 41.3097L17.2372 41.3074C22.2384 17.9547 43.2128 1.00003 67.0974 1.00003Z" fill="white" stroke="white" stroke-width="2"/>
<path d="M118.332 166.346H13C10.6131 166.346 8.32387 165.398 6.63604 163.71C4.94821 162.022 4 159.733 4 157.346V93C4 90.6131 4.94821 88.3239 6.63604 86.636C8.32387 84.9482 10.6131 84 13 84H118.332C120.719 84 123.008 84.9482 124.696 86.636C126.384 88.3239 127.332 90.6131 127.332 93V157.346C127.332 159.733 126.384 162.022 124.696 163.71C123.008 165.398 120.719 166.346 118.332 166.346Z" stroke="white" stroke-width="7" stroke-miterlimit="10"/>
<path d="M70.8659 124.037L71.4895 123.649C73.0728 122.663 74.3789 121.29 75.2846 119.66C76.1903 118.029 76.6657 116.195 76.666 114.33L70.8659 124.037ZM70.8659 124.037L71.0499 124.749M70.8659 124.037L71.0499 124.749M71.0499 124.749L75.6364 142.47C75.9867 144.694 74.3925 146.568 72.5 146.568H58.83C56.9401 146.568 55.3451 144.693 55.6937 142.47L60.2821 124.749L60.4662 124.037M71.0499 124.749L60.4662 124.037M60.4662 124.037L59.8426 123.649M60.4662 124.037L59.8426 123.649M59.8426 123.649C58.2592 122.663 56.9531 121.29 56.0474 119.66C55.1417 118.029 54.6663 116.195 54.666 114.33L59.8426 123.649ZM75.8287 110.121C76.3815 111.455 76.666 112.885 76.666 114.33H54.666C54.666 112.885 54.9506 111.455 55.5033 110.121C56.0561 108.786 56.8664 107.573 57.8878 106.552C58.9093 105.53 60.1219 104.72 61.4565 104.167C62.7911 103.615 64.2215 103.33 65.666 103.33C67.1106 103.33 68.541 103.615 69.8755 104.167C71.2101 104.72 72.4227 105.53 73.4442 106.552C74.4656 107.573 75.2759 108.786 75.8287 110.121Z" fill="white" stroke="white" stroke-width="2"/>
<rect x="53" y="102" width="25" height="25" rx="12.5" fill="white"/>
</svg>
