<?xml version="1.0" encoding="UTF-8"?>
<!DOCTYPE svg PUBLIC "-//W3C//DTD SVG 1.1//EN" "http://www.w3.org/Graphics/SVG/1.1/DTD/svg11.dtd">
<!-- Creator: CorelDRAW 2020 (64 Bit) -->
<svg xmlns="http://www.w3.org/2000/svg" xml:space="preserve" width="38.0998mm" height="21.1666mm" version="1.1" style="shape-rendering:geometricPrecision; text-rendering:geometricPrecision; image-rendering:optimizeQuality; fill-rule:evenodd; clip-rule:evenodd"
viewBox="0 0 3809.98 2116.66"
 xmlns:xlink="http://www.w3.org/1999/xlink"
 xmlns:xodm="http://www.corel.com/coreldraw/odm/2003"
 enable-background="new 0 0 632.014 126.611">
 <defs>
  <style type="text/css">
   <![CDATA[
    .fil0 {fill:#F3BA2F;fill-rule:nonzero}
   ]]>
  </style>
 </defs>
 <g id="Camada_x0020_1">
  <metadata id="CorelCorpID_0Corel-Layer"/>
  <g id="_2145950561024">
   <polygon class="fil0" points="350.3,1001.79 487.9,864.2 625.58,1001.87 705.65,921.8 487.9,704.05 270.23,921.73 "/>
   <rect class="fil0" transform="matrix(0.149563 0.149563 -0.149563 0.149563 213.689 978.254)" width="535.33" height="535.36"/>
   <polygon class="fil0" points="350.3,1114.87 487.9,1252.47 625.57,1114.8 705.69,1194.83 705.65,1194.87 487.9,1412.61 270.23,1194.94 270.11,1194.83 "/>
   <rect class="fil0" transform="matrix(-0.149563 0.149563 -0.149563 -0.149563 842.192 1058.36)" width="535.36" height="535.33"/>
   <polygon class="fil0" points="569.12,1058.29 569.15,1058.29 487.9,977.04 427.86,1037.09 427.85,1037.09 420.96,1043.98 406.73,1058.22 406.73,1058.22 406.61,1058.33 406.73,1058.45 487.9,1139.62 569.15,1058.37 569.19,1058.33 "/>
   <path class="fil0" d="M967.01 875.74l174.15 0c43.22,0 75.9,11.09 98.05,33.28 17.14,17.18 25.71,38.47 25.71,63.88l0 1.07c0,10.74 -1.32,20.22 -3.99,28.45 -2.67,8.24 -6.23,15.65 -10.68,22.27 -4.43,6.63 -9.6,12.44 -15.46,17.44 -5.87,5.02 -12.18,9.32 -18.93,12.89 21.72,8.24 38.83,19.41 51.29,33.55 12.47,14.14 18.71,33.73 18.71,58.78l0 1.06c0,17.19 -3.3,32.21 -9.91,45.1 -6.61,12.88 -16.08,23.62 -28.41,32.21 -12.33,8.59 -27.16,15.02 -44.48,19.32 -17.33,4.29 -36.53,6.44 -57.6,6.44l-178.45 0 0 -375.74zm156.74 151.91c18.25,0 32.75,-3.13 43.47,-9.4 10.74,-6.26 16.1,-16.37 16.1,-30.32l0 -1.08c0,-12.52 -4.65,-22.09 -13.95,-28.71 -9.31,-6.62 -22.73,-9.94 -40.26,-9.94l-81.59 0 0 79.45 76.23 0zm22.01 151.37c18.25,0 32.55,-3.3 42.94,-9.93 10.37,-6.62 15.57,-16.91 15.57,-30.87l0 -1.07c0,-12.52 -4.84,-22.45 -14.5,-29.79 -9.66,-7.33 -25.23,-11 -46.7,-11l-95.55 0 0 82.67 98.24 0 0 -0.01z"/>
   <polygon class="fil0" points="1389.57,875.74 1472.24,875.74 1472.24,1251.49 1389.57,1251.49 "/>
   <polygon class="fil0" points="1597.45,875.74 1673.66,875.74 1849.73,1107.1 1849.73,875.74 1931.32,875.74 1931.32,1251.49 1861,1251.49 1679.03,1012.63 1679.03,1251.49 1597.45,1251.49 "/>
   <path class="fil0" d="M2181.58 873.06l76.22 0 161.04 378.43 -86.42 0 -34.36 -84.27 -158.89 0 -34.35 84.27 -84.28 0 161.04 -378.43zm86.96 221.15l-49.92 -121.85 -49.91 121.85 99.83 0z"/>
   <polygon class="fil0" points="2508.08,875.74 2584.31,875.74 2760.36,1107.1 2760.36,875.74 2841.95,875.74 2841.95,1251.49 2771.64,1251.49 2589.67,1012.63 2589.67,1251.49 2508.08,1251.49 "/>
   <path class="fil0" d="M3139.46 1257.92c-27.57,0 -53.15,-5.01 -76.77,-15.02 -23.62,-10.01 -44.01,-23.71 -61.19,-41.07 -17.18,-17.35 -30.61,-37.84 -40.25,-61.46 -9.67,-23.62 -14.5,-48.85 -14.5,-75.69l0 -1.07c0,-26.84 4.83,-51.97 14.5,-75.41 9.65,-23.44 23.07,-44.02 40.25,-61.73 17.17,-17.72 37.75,-31.68 61.72,-41.88 23.97,-10.19 50.47,-15.29 79.45,-15.29 17.53,0 33.54,1.44 48.03,4.29 14.5,2.87 27.64,6.8 39.46,11.81 11.82,5.02 22.72,11.1 32.75,18.25 10,7.16 19.32,15.03 27.91,23.62l-52.6 60.66c-14.69,-13.24 -29.62,-23.63 -44.83,-31.14 -15.21,-7.51 -32.29,-11.27 -51.26,-11.27 -15.75,0 -30.33,3.05 -43.74,9.13 -13.42,6.08 -24.97,14.49 -34.63,25.22 -9.65,10.74 -17.17,23.18 -22.55,37.31 -5.35,14.14 -8.03,29.25 -8.03,45.35l0 1.07c0,16.1 2.68,31.32 8.03,45.63 5.38,14.32 12.79,26.83 22.29,37.57 9.47,10.73 20.93,19.24 34.34,25.5 13.43,6.27 28.19,9.39 44.29,9.39 21.48,0 39.62,-3.93 54.48,-11.81 14.85,-7.86 29.62,-18.6 44.29,-32.2l52.6 53.14c-9.66,10.38 -19.7,19.69 -30.06,27.91 -10.38,8.24 -21.74,15.3 -34.09,21.21 -12.34,5.9 -25.86,10.38 -40.52,13.41 -14.68,3.05 -31.14,4.57 -49.37,4.57z"/>
   <polygon class="fil0" points="3390.79,875.74 3673.67,875.74 3673.67,949.28 3472.38,949.28 3472.38,1025.51 3649.52,1025.51 3649.52,1099.04 3472.38,1099.04 3472.38,1177.95 3676.37,1177.95 3676.37,1251.49 3390.79,1251.49 "/>
  </g>
 </g>
</svg>
