<svg width="134" height="54" viewBox="0 0 134 54" fill="none" xmlns="http://www.w3.org/2000/svg">
<path d="M47.0996 0.155762C45.6502 0.155762 44.3874 0.985747 43.7797 2.202H7.94449C7.33636 0.986125 6.07362 0.155762 4.62417 0.155762C2.57793 0.155762 0.90625 1.81611 0.90625 3.87368C0.90625 5.91992 2.5666 7.5916 4.62417 7.5916C4.74096 7.5916 4.84603 7.57951 4.96357 7.57951L12.9138 24.0069C12.3522 24.6618 12.0249 25.5035 12.0249 26.4155C12.0249 28.4618 13.6852 30.1335 15.7428 30.1335C15.7897 30.1335 15.8361 30.1335 15.883 30.1335L24.3011 47.5193C23.6352 48.1852 23.2255 49.1093 23.2255 50.126C23.2255 52.1723 24.8858 53.844 26.9434 53.844C28.9897 53.844 30.6613 52.1836 30.6613 50.126C30.6613 49.0504 30.2051 48.0798 29.4799 47.4017L36.9508 30.0983C38.7752 29.8644 40.1778 28.2981 40.1778 26.4155C40.1778 25.609 39.9204 24.8606 39.4763 24.2408L46.679 7.56817C46.8192 7.58027 46.959 7.5916 47.0996 7.5916C49.1459 7.5916 50.8176 5.93126 50.8176 3.87368C50.8062 1.8282 49.1459 0.155762 47.0996 0.155762ZM43.4754 4.70405L26.4755 17.1326L8.9026 4.69233H43.4634C43.4754 4.69233 43.4754 4.70405 43.4754 4.70405ZM24.3597 18.6875L17.9054 23.4108C17.2977 22.9667 16.5372 22.7097 15.7307 22.7097C15.5088 22.7097 15.2866 22.7328 15.0647 22.7679L7.21919 6.56357L24.3597 18.6875ZM36.4603 22.6976C35.8877 22.6976 35.3381 22.8261 34.8585 23.0601L28.6151 18.6524L44.0367 7.37013L37.3605 22.8152C37.0801 22.7328 36.7759 22.6976 36.4603 22.6976ZM26.9313 46.4089C26.7907 46.4089 26.6622 46.421 26.5224 46.4319L18.1866 29.198C18.958 28.52 19.4494 27.5263 19.4494 26.4155C19.4494 26.0882 19.4021 25.7606 19.3205 25.4571L26.4993 20.2073L33.0817 24.8606C32.8599 25.3285 32.7427 25.866 32.7427 26.4155C32.7427 27.7365 33.4325 28.8938 34.4734 29.5488L27.1891 46.4081C27.095 46.4089 27.0137 46.4089 26.9313 46.4089Z" fill="#ED3237"/>
<path d="M63.0005 42.0242C60.3937 42.0242 58.2299 41.1591 56.5 39.4171C54.7694 37.6865 53.8933 35.5355 53.8933 32.9749C53.8933 30.4147 54.7581 28.2747 56.5 26.5327C58.2307 24.8021 60.4051 23.926 63.0005 23.926C64.6842 23.926 66.2274 24.3236 67.6073 25.1184C68.9052 25.8668 69.9219 26.8604 70.6703 28.0997C70.7519 28.2286 70.7054 28.4039 70.5648 28.4739L66.1802 31.0111C66.0517 31.0814 65.888 31.0462 65.8064 30.9177C65.1865 29.9471 64.2394 29.4679 62.9653 29.4679C62.0068 29.4679 61.2116 29.7956 60.5687 30.4385C59.9258 31.0931 59.6102 31.9231 59.6102 32.9519C59.6102 33.9806 59.9258 34.8223 60.5687 35.4652C61.2116 36.1202 62.0068 36.4358 62.9653 36.4358C64.2753 36.4358 65.2217 35.9445 65.8185 34.9629C65.8997 34.8344 66.0634 34.7872 66.1923 34.8696L70.5769 37.3947C70.7054 37.4763 70.7527 37.64 70.6824 37.7689C69.934 39.0316 68.9169 40.0249 67.6194 40.7853C66.2274 41.6266 64.696 42.0242 63.0005 42.0242Z" fill="black"/>
<path d="M83.0634 23.9486C84.9108 23.9486 86.4188 24.5794 87.5999 25.8543C88.781 27.117 89.3657 28.941 89.3657 31.3145V41.2759C89.3657 41.4274 89.2372 41.5563 89.0853 41.5563H83.9523C83.8008 41.5563 83.6719 41.4274 83.6719 41.2759V32.0391C83.6719 31.1501 83.4379 30.4721 82.9708 30.0163C82.5029 29.5601 81.8838 29.3261 81.1003 29.3261C80.2113 29.3261 79.522 29.5952 79.0306 30.1327C78.5397 30.6701 78.2944 31.4427 78.2944 32.4473V41.2744C78.2944 41.4263 78.1659 41.5548 78.0139 41.5548L72.8802 41.5563C72.7286 41.5563 72.5997 41.4274 72.5997 41.2759L72.5994 12.3269C72.5994 12.175 72.7279 12.0465 72.8794 12.0465H78.0128C78.1643 12.0465 78.2932 12.175 78.2932 12.3269V25.3629C78.2932 25.6082 78.5971 25.7367 78.7721 25.55C79.8016 24.4868 81.228 23.9486 83.0634 23.9486Z" fill="black"/>
<path d="M95.2576 17.8459C94.4159 17.8459 93.691 17.5416 93.0829 16.9335C92.4752 16.3257 92.1709 15.6125 92.1709 14.7939C92.1709 13.9522 92.4752 13.2269 93.0829 12.6192C93.691 12.0114 94.4159 11.7072 95.2576 11.7072C96.0763 11.7072 96.7895 12.0114 97.3976 12.6192C98.0054 13.2269 98.3096 13.9522 98.3096 14.7939C98.3096 15.6125 98.0054 16.3257 97.3976 16.9335C96.7895 17.5416 96.0763 17.8459 95.2576 17.8459ZM92.4521 41.2638V24.7087C92.4521 24.5568 92.5806 24.4283 92.7325 24.4283H97.8655C98.0171 24.4283 98.146 24.5568 98.146 24.7087V41.2759C98.146 41.4275 98.0171 41.5563 97.8655 41.5563H92.7325C92.5693 41.545 92.4521 41.4165 92.4521 41.2638Z" fill="black"/>
<path d="M101.42 41.2638V12.6894C101.42 12.5375 101.548 12.409 101.7 12.409H106.833C106.985 12.409 107.113 12.5375 107.113 12.6894V41.2759C107.113 41.4275 106.985 41.5563 106.833 41.5563H101.7C101.537 41.545 101.42 41.4165 101.42 41.2638Z" fill="black"/>
<path d="M113.193 22.955C112.351 22.955 111.626 22.6507 111.018 22.0426C110.41 21.4349 110.106 20.7217 110.106 19.903C110.106 19.0613 110.41 18.336 111.018 17.7283C111.626 17.1205 112.351 16.8163 113.193 16.8163C114.012 16.8163 114.725 17.1205 115.333 17.7283C115.94 18.336 116.245 19.0613 116.245 19.903C116.245 20.7217 115.94 21.4349 115.333 22.0426C114.725 22.6507 114.012 22.955 113.193 22.955ZM110.387 41.2638V24.7087C110.387 24.5568 110.516 24.4283 110.667 24.4283H115.8C115.952 24.4283 116.081 24.5568 116.081 24.7087V41.2759C116.081 41.4274 115.952 41.5563 115.8 41.5563H110.667C110.516 41.545 110.387 41.4165 110.387 41.2638Z" fill="black"/>
<path d="M127.246 36.2722H132.812C132.964 36.2722 133.092 36.4007 133.092 36.5523V41.2759C133.092 41.4275 132.964 41.5563 132.812 41.5563H119.367C119.215 41.5563 119.086 41.4275 119.086 41.2759V37.7447C119.086 37.6865 119.109 37.6283 119.145 37.581L124.803 30.1565C124.944 29.9698 124.815 29.7124 124.581 29.7124H119.694C119.542 29.7124 119.414 29.5839 119.414 29.432V24.7087C119.414 24.5568 119.542 24.4283 119.694 24.4283H132.461C132.613 24.4283 132.741 24.5568 132.741 24.7087L132.742 28.2396C132.742 28.2981 132.719 28.3563 132.684 28.4036L127.025 35.8281C126.885 36.0148 127.013 36.2722 127.246 36.2722Z" fill="black"/>
</svg>
