<?xml version="1.0" encoding="UTF-8"?>
<!DOCTYPE svg PUBLIC "-//W3C//DTD SVG 1.1//EN" "http://www.w3.org/Graphics/SVG/1.1/DTD/svg11.dtd">
<!-- Creator: CorelDRAW 2020 (64 Bit) -->
<svg xmlns="http://www.w3.org/2000/svg" xml:space="preserve" width="21.1666mm" height="21.1666mm" version="1.1" style="shape-rendering:geometricPrecision; text-rendering:geometricPrecision; image-rendering:optimizeQuality; fill-rule:evenodd; clip-rule:evenodd"
viewBox="0 0 2116.66 2116.66"
 xmlns:xlink="http://www.w3.org/1999/xlink"
 enable-background="new 0 0 632.014 126.611"
 xmlns:xodm="http://www.corel.com/coreldraw/odm/2003">
 <defs>
  <style type="text/css">
   <![CDATA[
    .fil0 {fill:#F3BA2F;fill-rule:nonzero}
   ]]>
  </style>
 </defs>
 <g id="Camada_x0020_1">
  <metadata id="CorelCorpID_0Corel-Layer"/>
  <g id="_2146371149664">
   <polygon class="fil0" points="653.39,891.95 1058.31,487.05 1463.47,892.18 1699.1,656.56 1058.31,15.77 417.76,656.35 "/>
   <rect class="fil0" transform="matrix(0.440129 0.440129 -0.440129 0.440129 251.376 822.69)" width="535.33" height="535.36"/>
   <polygon class="fil0" points="653.39,1224.72 1058.31,1629.64 1463.44,1224.51 1699.22,1460.02 1699.1,1460.14 1058.31,2100.89 417.76,1460.34 417.41,1460.02 "/>
   <rect class="fil0" transform="matrix(-0.440129 0.440129 -0.440129 -0.440129 2100.91 1058.42)" width="535.36" height="535.33"/>
   <polygon class="fil0" points="1297.32,1058.21 1297.41,1058.21 1058.31,819.12 881.63,995.83 881.6,995.83 861.32,1016.1 819.45,1058.01 819.45,1058.01 819.1,1058.33 819.45,1058.69 1058.31,1297.55 1297.41,1058.45 1297.53,1058.33 "/>
  </g>
 </g>
</svg>
