<svg width="136" height="46" viewBox="0 0 136 46" fill="none" xmlns="http://www.w3.org/2000/svg">
<path fill-rule="evenodd" clip-rule="evenodd" d="M51.1653 6.06683V21.5557H53.7191C53.7191 20.5447 53.6862 19.6346 53.6862 18.6413L53.6488 15.7318C53.6091 15.3781 53.5555 10.3286 53.5555 9.93102C53.6945 9.96768 53.6632 10.0183 53.7531 10.2247C53.8042 10.3426 53.8635 10.4715 53.9149 10.5864L54.5487 12.0483C54.6651 12.2913 54.76 12.5423 54.8643 12.7804C55.463 14.1482 56.2026 15.7908 56.7688 17.1631L58.6631 21.5557H60.661L61.9267 18.5975C62.5602 17.1722 63.1812 15.5916 63.8154 14.1664L65.7032 9.7016H65.8015C65.8015 9.9794 65.7679 10.1325 65.7686 10.422L65.7357 13.4018C65.7361 13.6875 65.7017 13.8719 65.7025 14.1218C65.7044 14.6006 65.7286 15.1585 65.7032 15.6287L65.6704 16.349C65.6704 17.9697 65.5985 19.5665 65.6057 21.1963C65.6065 21.3769 65.5834 21.4227 65.5721 21.5557H68.1588V6.06683C68.1588 5.99162 68.1361 5.96857 68.0609 5.96857H64.9829C64.8336 5.96857 64.7024 6.43987 64.6011 6.6674C64.4843 6.92894 64.3872 7.15874 64.2765 7.42368C63.4389 9.42381 62.4755 11.5608 61.6807 13.5378C61.4713 14.0586 61.2324 14.5632 61.0257 15.0772L59.8162 17.9277C59.7671 18.0555 59.7992 18.0525 59.6783 18.0846L54.6031 6.29587C54.5506 6.18778 54.5075 5.96857 54.3741 5.96857H51.2632C51.188 5.96857 51.1653 5.99162 51.1653 6.06683Z" fill="#EE4723"/>
<path fill-rule="evenodd" clip-rule="evenodd" d="M58.4015 39.0421H53.6537V34.1631H58.3686C58.7458 34.1631 59.1533 34.2375 59.4454 34.3305C61.2883 34.9175 61.3545 36.9293 60.6352 38.0016C60.1462 38.7299 59.2761 39.0421 58.4015 39.0421ZM58.0738 32.067H53.6537V27.7122H57.9102C59.1567 27.7122 60.4315 28.2549 60.4315 29.5785C60.4315 30.1621 60.3752 30.7086 59.9957 31.1735C59.9046 31.2854 59.8472 31.3746 59.7304 31.4645C59.2742 31.8164 58.6959 32.067 58.0738 32.067ZM51.0999 41.1707H58.5652C59.3264 41.1707 60.046 41.0328 60.6239 40.8392C61.181 40.6533 61.7566 40.3415 62.1584 39.9836C62.271 39.883 62.3738 39.8188 62.4664 39.702C62.8829 39.177 62.8723 39.2636 63.1932 38.6275C63.9786 37.0695 63.7764 34.8162 62.2888 33.7137C61.7506 33.3142 61.2411 33.1422 60.5623 32.9843C60.6073 32.8157 60.6949 32.9011 61.0207 32.7548C61.1836 32.6819 61.3352 32.6029 61.4936 32.5077C61.7982 32.3243 62.0457 32.1021 62.2729 31.8459C62.7363 31.325 63.0182 30.452 63.0182 29.7093C63.0182 26.7295 60.9017 25.5836 57.9102 25.5836H51.0999V41.1707Z" fill="#EE4723"/>
<path fill-rule="evenodd" clip-rule="evenodd" d="M113.738 16.2179C113.738 11.6167 118.532 11.4183 119.53 14.5515C120.134 16.4477 119.496 18.9641 117.602 19.4607C116.237 19.8186 114.949 19.3832 114.227 18.1847C113.945 17.7172 113.738 16.9723 113.738 16.2179ZM119.763 9.83274C119.763 10.007 119.759 10.1842 119.761 10.3577L119.861 11.8956H119.763C119.718 11.7267 119.339 11.3634 119.193 11.2538C118.121 10.4499 116.49 10.3146 115.148 10.5879C114.557 10.7085 113.756 11.0679 113.289 11.447C112.792 11.8499 112.323 12.3174 112.014 12.8892C111.923 13.0567 111.847 13.1689 111.778 13.3409C111.739 13.4373 111.712 13.4834 111.675 13.5658C111.639 13.6463 111.61 13.7442 111.577 13.8277C111.066 15.1165 111.069 17.0101 111.523 18.3348C111.747 18.9868 112.036 19.4747 112.423 19.9562C112.753 20.3663 113.34 20.8232 113.835 21.0651C115.15 21.7084 117.232 21.7658 118.492 21.0058C118.787 20.8274 118.992 20.6709 119.231 20.4343C119.371 20.2952 119.716 19.8545 119.763 19.6565H119.861V21.5557H122.12C122.196 21.5557 122.218 21.533 122.218 21.4574V5.05164C122.218 4.97605 122.196 4.95337 122.12 4.95337H119.763V9.83274Z" fill="#EE4723"/>
<path fill-rule="evenodd" clip-rule="evenodd" d="M75.3624 12.3212C75.8333 12.3212 76.1504 12.3371 76.5862 12.4728C77.3085 12.6976 77.8145 13.251 78.0081 13.9653C78.0534 14.132 78.0742 14.2847 78.1128 14.4498H72.6116C72.6683 14.3319 72.7213 14.1414 72.7704 14.019C73.1835 12.9917 74.1537 12.3212 75.3624 12.3212ZM69.9924 15.4321V16.0871C69.9924 17.6208 70.6387 19.1803 71.4086 19.943C71.9412 20.4706 72.2598 20.7117 72.9722 21.0315C74.2368 21.5992 76.1927 21.646 77.536 21.1755C78.0572 20.9929 78.5047 20.745 78.9034 20.4468C79.4688 20.025 80.0377 19.3485 80.2784 18.6787C80.4391 18.2309 80.402 18.2894 80.5029 17.8556H78.0802C77.9506 18.4119 77.6309 18.8152 77.2291 19.1002C76.4539 19.6493 75.1761 19.6981 74.2448 19.268C73.1351 18.7547 72.5138 17.3037 72.5138 16.12H80.6012C80.6012 14.8569 80.6594 14.2503 80.162 13.0556C78.9783 10.2118 74.6719 9.69745 72.3365 11.227C72.2004 11.3162 72.0689 11.3963 71.9491 11.495C71.8195 11.6019 71.7208 11.6893 71.5919 11.7924C71.4517 11.9047 71.0866 12.3356 70.9808 12.4913C70.7487 12.8326 70.6939 12.9146 70.494 13.3141C70.2351 13.8315 69.9924 14.6705 69.9924 15.4321Z" fill="#EE4723"/>
<path fill-rule="evenodd" clip-rule="evenodd" d="M104.569 19.6894C103.999 19.6894 103.487 19.6773 103.012 19.3481C102.454 18.9626 102.358 18.0552 102.711 17.5691C102.847 17.3816 102.967 17.2822 103.163 17.1689C104.056 16.6518 106.235 16.7006 107.015 16.2735C107.147 16.2013 107.148 16.1605 107.287 16.0872C107.287 17.2051 107.384 17.817 106.74 18.6837C106.339 19.2234 105.499 19.6894 104.569 19.6894ZM100.476 14.1222H102.834C102.834 13.6297 103.115 13.0598 103.507 12.7653C103.713 12.6104 103.919 12.4977 104.182 12.4259C104.535 12.3292 104.54 12.3439 104.862 12.3186C105.421 12.2751 104.995 12.2974 105.551 12.3216C106.142 12.3473 106.859 12.7075 107.106 13.3217C107.261 13.7095 107.287 13.954 107.287 14.3841C107.287 14.7462 106.783 14.8562 106.449 14.9219C105.004 15.2069 103.01 15.3426 101.787 15.891C100.782 16.3415 100.051 17.1953 100.051 18.3794C100.051 19.4645 100.314 20.1547 101.141 20.8256C102.279 21.7485 104.67 21.7398 105.978 21.0977C107.189 20.5035 107.112 19.9438 107.418 19.9181V21.5233H109.743V14.2208C109.743 13.5772 109.605 13.0254 109.394 12.5722C109.174 12.0982 108.936 11.7641 108.522 11.4138C107.858 10.8514 106.643 10.4545 105.421 10.4545C104.566 10.4545 103.978 10.4662 103.173 10.7285C102.717 10.8771 102.16 11.1515 101.844 11.43C101.07 12.1115 100.476 12.9917 100.476 14.1222Z" fill="#EE4723"/>
<path fill-rule="evenodd" clip-rule="evenodd" d="M126.344 16.12C126.344 14.906 126.782 13.6913 127.555 13.1066C128.514 12.3813 129.612 12.2664 130.728 12.7184C131.809 13.1568 132.5 14.4366 132.5 15.7269C132.5 16.8842 132.393 17.7463 131.671 18.599C130.465 20.0254 128.024 19.9052 126.979 18.334C126.562 17.7066 126.344 16.919 126.344 16.12ZM135.054 15.6169V16.487C135.007 17.2342 134.837 17.9523 134.552 18.565C134.322 19.059 133.822 19.8387 133.416 20.1475C133.117 20.3765 133.141 20.4279 132.637 20.7435C132.355 20.9204 132.069 21.053 131.733 21.1819C130.127 21.7961 128.045 21.6993 126.529 20.9446C126.125 20.7431 125.637 20.4098 125.321 20.0904C124.406 19.1667 123.79 17.8763 123.79 16.0546C123.79 14.5609 124.303 13.1504 125.271 12.1001C125.397 11.9636 125.504 11.899 125.631 11.7728C125.738 11.6666 125.896 11.5547 126.017 11.47C126.269 11.292 126.574 11.1049 126.872 10.9832C128.072 10.493 128.522 10.4874 129.815 10.4874C131.195 10.4874 132.621 11.0539 133.572 12.0018C134.486 12.9134 134.969 14.2642 135.054 15.6169Z" fill="#EE4723"/>
<path fill-rule="evenodd" clip-rule="evenodd" d="M93.437 38.7802C89.2058 38.7802 89.3623 31.6418 93.4041 31.6418C94.4779 31.6418 95.1926 32.0734 95.7043 32.6486C96.4251 33.4601 96.5993 34.8332 96.4477 35.93C96.2266 37.5322 95.1056 38.7802 93.437 38.7802ZM87.7722 35.2437C87.7722 36.0857 87.9344 36.9153 88.1694 37.5314C88.358 38.0254 88.6786 38.5953 89.041 38.9846L89.5482 39.4926C89.7262 39.66 90.1235 39.9239 90.3483 40.0353C90.8945 40.306 91.1481 40.456 91.8239 40.5898C93.8437 40.9885 96.0014 40.6892 97.506 39.2481C97.89 38.8807 98.3572 38.1637 98.5586 37.6811C99.2181 36.1024 99.206 34.2028 98.5356 32.6328C98.1693 31.7748 97.4119 30.8794 96.602 30.4414C96.2849 30.2698 96.015 30.1269 95.6597 30.0079C95.2247 29.8624 94.434 29.6726 93.9279 29.6768C93.6842 29.6787 93.5084 29.6171 93.2495 29.653C92.7801 29.7176 92.6437 29.6753 92.0204 29.7993C90.2803 30.1462 88.8785 31.2589 88.2212 32.9094C87.9597 33.5656 87.7722 34.3404 87.7722 35.2437Z" fill="#EE4723"/>
<path fill-rule="evenodd" clip-rule="evenodd" d="M107.91 31.4777V29.6439H105.519V40.6794H107.975V35.5384C107.975 34.2126 108.167 32.9321 109.134 32.1788C109.452 31.9316 109.735 31.7771 110.177 31.6822C111.429 31.4112 112.64 31.9063 112.959 33.304C113.046 33.6853 113.083 34.2394 113.083 34.7194V40.6794H115.539V34.2938C115.539 33.2458 115.367 32.07 114.804 31.2305L114.319 30.6341C113.506 29.888 112.487 29.6114 111.315 29.6114C110.017 29.6114 108.87 30.0823 108.197 31.0778C108.016 31.3462 108.052 31.4399 107.91 31.4777Z" fill="#EE4723"/>
<path fill-rule="evenodd" clip-rule="evenodd" d="M76.3447 35.2437C76.3447 37.3942 77.256 39.487 79.3336 40.3098C80.3952 40.7308 80.9108 40.778 82.1074 40.778C83.6226 40.778 85.1125 40.1446 85.9013 39.1687C86.3998 38.5515 86.8552 37.6429 86.8552 36.8485H84.4322C84.3925 37.3273 84.0584 37.9011 83.6872 38.2314C83.1192 38.7375 82.415 38.7802 81.6493 38.7802C81.0393 38.7802 80.4293 38.4759 80.0041 38.1006C79.8536 37.9676 79.7561 37.8497 79.6329 37.6856C78.631 36.3484 78.6729 34.0577 79.6371 32.7734C80.1821 32.0477 80.918 31.6743 82.0091 31.6743C82.9101 31.6743 83.7352 32.0904 84.1366 32.7889C84.2526 32.99 84.4083 33.3207 84.4322 33.6064H86.8881L86.6715 32.7095C86.5767 32.4242 86.4773 32.169 86.342 31.9256C85.7867 30.929 84.888 30.3269 83.8388 29.9758C82.2 29.427 80.0577 29.6349 78.6495 30.5737C78.5176 30.6614 78.3706 30.7653 78.2534 30.8655C78.0179 31.0669 77.7416 31.3292 77.5557 31.5753C76.7435 32.6487 76.3447 33.8604 76.3447 35.2437Z" fill="#EE4723"/>
<path fill-rule="evenodd" clip-rule="evenodd" d="M88.5908 15.8581C88.5908 16.854 88.6777 17.6201 89.0115 18.4497C89.5187 19.7098 90.363 20.5549 91.6171 21.0833C92.9116 21.629 94.8845 21.6831 96.2243 21.1997C96.4779 21.1082 96.7546 20.9918 96.9719 20.8667C97.9236 20.3175 98.5828 19.5548 98.9093 18.4818C98.9732 18.2724 99.0956 17.8503 99.1013 17.5933H96.7436C96.6008 17.5933 96.6087 18.0117 96.391 18.3866C96.2447 18.6372 96.1045 18.8432 95.8743 19.0163C95.496 19.3001 95.115 19.443 94.6354 19.5129C93.9555 19.6115 93.3927 19.5371 92.8246 19.2536C92.6871 19.1844 92.4535 19.0389 92.3484 18.9441C91.9119 18.5502 91.6084 18.2048 91.3854 17.5487C90.8634 16.013 91.1201 13.8266 92.5325 12.8908C93.0261 12.5635 93.4657 12.4195 94.1573 12.4195C94.8063 12.4195 95.5391 12.6523 95.8679 12.9679C95.9337 13.0306 95.9431 13.0318 96.01 13.0877C96.2633 13.2993 96.5452 13.8118 96.6291 14.1717C96.6525 14.2714 96.6291 14.3516 96.7436 14.3516H99.1013C99.0907 13.8651 98.7695 13.0926 98.5563 12.6701C98.331 12.2244 98.037 11.9141 97.6859 11.6084C96.1945 10.3063 93.6331 10.1245 91.7993 10.8472C89.8645 11.6099 88.5908 13.5424 88.5908 15.8581Z" fill="#EE4723"/>
<path fill-rule="evenodd" clip-rule="evenodd" d="M70.5818 26.4676V29.7422H68.5193V31.6418H70.5818V36.619C70.5818 37.949 70.6596 38.9226 71.2315 39.702C72.1892 41.0074 74.2188 40.778 75.8863 40.778V38.813C75.8863 38.6615 75.6252 38.714 75.4608 38.7144C75.0382 38.7159 74.2305 38.7461 73.9168 38.6539C73.3544 38.4891 73.0702 38.0859 73.0702 37.3723V31.6418H75.8863V29.7422H73.0702V26.4676C73.0702 26.3924 73.0475 26.3693 72.972 26.3693H70.68C70.6048 26.3693 70.5818 26.3924 70.5818 26.4676Z" fill="#EE4723"/>
<path fill-rule="evenodd" clip-rule="evenodd" d="M82.1074 10.5203V21.49H84.563V16.2837C84.563 15.3603 84.6726 14.6634 85.0543 13.8927C85.3249 13.3462 85.9811 12.7143 86.7895 12.7143C87.212 12.7143 87.4014 12.6927 87.8092 12.8405C87.9048 12.8757 87.9944 12.9097 88.0889 12.9543C88.194 13.0038 88.2473 13.048 88.3614 13.0745L88.6823 11.8563C88.7458 11.5993 88.9835 10.8188 88.9835 10.6185C88.4468 10.5739 88.5443 10.422 87.2812 10.422C86.2668 10.422 85.5449 10.8653 84.9663 11.5453C84.7467 11.8034 84.5932 12.1859 84.4976 12.2558L84.498 10.8147C84.4987 10.6544 84.5486 10.422 84.3997 10.422H82.2057C82.1305 10.422 82.1074 10.4447 82.1074 10.5203Z" fill="#EE4723"/>
<path fill-rule="evenodd" clip-rule="evenodd" d="M100.673 40.7123H103.129V29.6439H100.673V40.7123Z" fill="#EE4723"/>
<path fill-rule="evenodd" clip-rule="evenodd" d="M64.95 40.8105H67.4059V29.7422H64.95V40.8105Z" fill="#EE4723"/>
<path fill-rule="evenodd" clip-rule="evenodd" d="M64.8521 26.7295H67.5041V24.2407H64.8521V26.7295Z" fill="#EE4723"/>
<path fill-rule="evenodd" clip-rule="evenodd" d="M100.575 26.6313H103.227V24.1428H100.575V26.6313Z" fill="#EE4723"/>
<path d="M17.8467 1.15346C20.4168 -0.32622 23.5954 -0.32622 26.1655 1.15346L38.9172 8.49633C41.4828 9.97488 43.0679 12.7128 43.0668 15.6657V30.3337C43.0713 33.2889 41.485 36.0321 38.9172 37.5121L26.1655 44.8459C23.5954 46.3256 20.4168 46.3256 17.8467 44.8459L5.09462 37.5031C2.52946 36.0245 0.943944 33.2866 0.945078 30.3337V15.6657C0.940543 12.7105 2.52681 9.96619 5.09462 8.48726L17.8467 1.15346Z" fill="#EF4723"/>
<path d="M6.11743 30.9962V15.2216H9.47365L14.8005 27.4983H14.864L20.1183 15.2216H23.439V30.9962H20.8391L21.0398 18.9652H20.9475L15.804 31.0061H13.7971L8.62477 19.1833H8.53368L8.71699 30.9962H6.11743ZM25.9925 31.0148V15.2216H32.9974C33.8641 15.2216 34.612 15.3116 35.2591 15.4937C35.8975 15.6755 36.4447 15.9477 36.8737 16.312C37.3027 16.6752 37.6119 17.1016 37.8126 17.6016C38.1758 18.5004 38.234 19.494 37.9773 20.4275C37.8863 20.7643 37.7317 21.0822 37.5211 21.3728C37.3201 21.6638 37.0559 21.9182 36.7365 22.1279C36.4262 22.346 36.0622 22.5093 35.642 22.6367V22.7266C36.1257 22.8177 36.5547 22.9723 36.9376 23.1817C37.6954 23.5725 38.2748 24.2403 38.5522 25.0442C38.7068 25.4437 38.7801 25.8625 38.7801 26.3255C38.7801 26.9979 38.6705 27.6343 38.4335 28.2069C38.2045 28.7761 37.8534 29.2886 37.4025 29.7063C36.9561 30.1156 36.4001 30.4338 35.7153 30.6693C34.9892 30.9097 34.228 31.0261 33.4623 31.0148H25.9925ZM33.2529 23.8903H28.6007V28.8702H33.2529C33.7454 28.8702 34.1646 28.8068 34.521 28.6885C35.1967 28.4965 35.7395 27.9919 35.9799 27.335C36.221 26.6796 36.221 25.9627 35.9799 25.3077C35.71 24.6942 35.1703 24.2381 34.521 24.0725C34.1559 23.9451 33.7265 23.8903 33.2529 23.8903ZM32.8153 17.3472H28.6007V21.7999H32.7967C33.234 21.7999 33.6271 21.7458 33.9639 21.6362C34.329 21.5191 34.612 21.3456 34.84 21.1271C35.5006 20.4582 35.7077 19.46 35.3687 18.5835C35.278 18.3205 35.1219 18.102 34.8849 17.9198C34.6755 17.738 34.3925 17.5929 34.0372 17.5022C33.6403 17.388 33.2276 17.3363 32.8153 17.3472Z" fill="white"/>
</svg>
