<svg width="328" height="66" viewBox="0 0 328 66" fill="none" xmlns="http://www.w3.org/2000/svg">
<path d="M105.939 19.337C103.286 17.3882 98.8833 16.1502 94.8431 16.1502C89.9589 16.1502 85.6167 18.0064 85.6167 22.7706C85.6167 31.339 100.421 28.617 100.421 32.5458C100.421 33.9067 98.6724 34.5257 96.4413 34.5257C93.2449 34.5257 88.9937 33.35 87.0039 31.4628L84.5011 35.794C87.0638 37.8355 91.6467 39.1038 95.9283 39.1038C101.174 39.1038 105.999 37.1854 105.999 32.422C105.999 23.7913 91.1344 26.637 91.1344 22.8632C91.1344 21.3784 92.8229 20.7291 95.0541 20.7291C97.8885 20.7291 101.536 21.8113 103.466 23.5437L105.939 19.337ZM109.949 38.3922H115.044V30.8445H121.376C125.989 30.8445 128.31 27.3175 128.31 23.7913C128.31 20.2651 125.989 16.7381 121.376 16.7381H109.949V38.3922ZM115.044 21.0997H120.833C122.522 21.0997 123.366 22.4615 123.366 23.7913C123.366 25.1523 122.522 26.4829 120.833 26.4829H115.044V21.0997ZM127.979 38.3922H133.375L134.853 35.2366H146.672L148.15 38.3922H153.546L143.355 16.429H138.199L127.979 38.3922ZM140.763 22.6156L144.622 30.8749H136.903L140.763 22.6156ZM156.321 27.5651C156.321 35.1751 162.682 39.1038 168.109 39.1038C172.3 39.1038 175.919 37.1854 178.24 34.247L174.471 30.8749C173.174 32.5769 171.305 34.0617 168.35 34.0617C163.858 34.0617 161.597 30.8134 161.597 27.5651C161.597 24.2865 163.858 21.0382 168.35 21.0382C170.672 21.0382 173.115 22.3992 174.471 24.1627L178.24 20.7906C175.979 17.7899 172.361 16.0264 168.139 16.0264C162.713 16.0264 156.321 19.9552 156.321 27.5651ZM181.768 16.7381V21.0997H200.612V16.7381H181.768ZM181.768 25.3999V29.7304H200.612V25.3999H181.768ZM181.858 34.0305V38.3922H200.612V34.0305H181.858ZM203.567 16.7381V21.0382H212.793V38.3922H217.889V21.0693H227.115V16.7381H203.567ZM253.708 27.5651C253.708 19.8314 247.195 16.0264 241.678 16.0264C236.13 16.0264 229.648 19.8314 229.648 27.5651C229.648 35.2989 236.13 39.1038 241.678 39.1038C247.195 39.1038 253.708 35.2989 253.708 27.5651ZM248.492 27.5651C248.492 31.9891 244.813 34.1232 241.678 34.1232C238.512 34.1232 234.833 31.9891 234.833 27.5651C234.833 23.1419 238.512 20.9759 241.678 20.9759C244.813 20.9759 248.492 23.1419 248.492 27.5651ZM239.326 27.5963C239.326 29.0499 240.23 29.978 241.678 29.978C243.095 29.978 244 29.0499 244 27.5963C244 26.1426 243.095 25.1834 241.678 25.1834C240.23 25.1834 239.326 26.1426 239.326 27.5963ZM281.176 27.5651C281.176 19.8314 274.663 16.0264 269.145 16.0264C263.598 16.0264 257.115 19.8314 257.115 27.5651C257.115 35.2989 263.598 39.1038 269.145 39.1038C274.663 39.1038 281.176 35.2989 281.176 27.5651ZM275.96 27.5651C275.96 31.9891 272.281 34.1232 269.145 34.1232C265.98 34.1232 262.301 31.9891 262.301 27.5651C262.301 23.1419 265.98 20.9759 269.145 20.9759C272.281 20.9759 275.96 23.1419 275.96 27.5651ZM266.793 27.5963C266.793 29.0499 267.698 29.978 269.145 29.978C270.563 29.978 271.467 29.0499 271.467 27.5963C271.467 26.1426 270.563 25.1834 269.145 25.1834C267.698 25.1834 266.793 26.1426 266.793 27.5963ZM290.221 34.0305V16.7381H285.126V38.3922H303.729V34.0305H290.221ZM327.94 19.337C325.287 17.3882 320.885 16.1502 316.844 16.1502C311.96 16.1502 307.618 18.0064 307.618 22.7706C307.618 31.339 322.422 28.617 322.422 32.5458C322.422 33.9067 320.674 34.5257 318.443 34.5257C315.246 34.5257 310.995 33.35 309.005 31.4628L306.502 35.794C309.065 37.8355 313.648 39.1038 317.93 39.1038C323.176 39.1038 328 37.1854 328 32.422C328 23.7913 313.136 26.637 313.136 22.8632C313.136 21.3784 314.824 20.7291 317.055 20.7291C319.89 20.7291 323.538 21.8113 325.468 23.5437L327.94 19.337Z" fill="white"/>
<path d="M111.821 44.1976H119.403C119.55 44.1976 119.652 44.2561 119.712 44.3753V44.809C119.712 45.2252 119.514 45.5867 119.12 45.892C118.8 46.0675 118.547 46.1556 118.358 46.1556H116.694C116.373 46.1556 116.214 46.2907 116.214 46.5619V52.0514C116.214 52.2845 116.073 52.4015 115.794 52.4015H114.384C114.082 52.4015 113.931 52.3035 113.931 52.1106V46.533C113.931 46.2809 113.753 46.1556 113.395 46.1556H110.667C110.516 46.1556 110.44 46.0675 110.44 45.892V45.3642C110.44 44.8584 110.778 44.4771 111.456 44.225C111.577 44.2075 111.7 44.1976 111.821 44.1976ZM131.818 44.2128H139.661C139.867 44.2128 139.97 44.3305 139.97 44.5629C139.97 45.3801 139.612 45.8981 138.897 46.1145H130.885C130.715 46.1145 130.63 46.0075 130.63 45.794V45.7378C130.63 45.0201 130.923 44.5318 131.503 44.2721C131.577 44.2326 131.683 44.2128 131.818 44.2128ZM132.24 47.4315H137.915C138.12 47.4315 138.224 47.5196 138.224 47.6958V47.8089C138.224 48.3406 137.922 48.7408 137.317 49.0127C137.247 49.0302 137.173 49.04 137.096 49.04H133.311C133.05 49.04 132.918 49.1767 132.918 49.4464V50.0312C132.918 50.2871 133.022 50.4139 133.227 50.4139H138.307C139.205 50.4139 139.749 50.8051 139.943 51.5828C139.943 51.6276 139.952 51.7764 139.97 52.024C139.97 52.2762 139.829 52.4015 139.55 52.4015H132.437C131.726 52.4015 131.294 52.2936 131.14 52.081C130.801 51.7977 130.63 51.3876 130.63 50.8499V48.8919C130.63 48.2274 130.942 47.7603 131.564 47.4884C131.804 47.4512 132.029 47.4315 132.24 47.4315ZM152.217 44.2128H159.753C159.96 44.2128 160.062 44.2933 160.062 44.4498V44.8265C160.062 45.3839 159.752 45.8039 159.13 46.0872C159.099 46.1047 159.054 46.1145 158.992 46.1145H151.398C151.211 46.1145 151.117 46.0363 151.117 45.8799V45.5594C151.117 44.9791 151.305 44.5903 151.681 44.3913C151.872 44.2736 152.051 44.2128 152.217 44.2128ZM152.526 47.6373H153.035C153.24 47.6373 153.345 47.7543 153.345 47.9867V50.0934C153.377 50.3084 153.482 50.4139 153.66 50.4139H158.427C159.36 50.4139 159.904 50.8324 160.062 51.6686V52.1379C160.062 52.3134 159.921 52.4015 159.638 52.4015H152.67C151.93 52.4015 151.449 52.1668 151.228 51.6982C151.153 51.4909 151.117 51.2873 151.117 51.0845V49.0697C151.117 48.1158 151.587 47.6373 152.526 47.6373ZM171.479 44.2128H173.088C173.294 44.2128 173.397 44.3009 173.397 44.4771V46.9333C173.397 47.2659 173.53 47.4315 173.796 47.4315H179.752C180.014 47.4315 180.145 47.5196 180.145 47.6958V52.1379C180.145 52.3134 180.003 52.4015 179.718 52.4015H178.338C178.017 52.4015 177.857 52.2936 177.857 52.081V49.419C177.857 49.1669 177.726 49.04 177.464 49.04H173.968C173.587 49.04 173.397 49.1851 173.397 49.476V52.081C173.397 52.2936 173.258 52.4015 172.978 52.4015H171.568C171.304 52.4015 171.17 52.3134 171.17 52.1379V44.4771C171.17 44.3009 171.274 44.2128 171.479 44.2128ZM179.835 44.2128C180.041 44.2128 180.145 44.2933 180.145 44.4498V45.6459C180.145 45.8016 180.05 45.8799 179.863 45.8799H178.111C177.942 45.8799 177.857 45.7234 177.857 45.4113V44.7976C177.857 44.4088 177.942 44.2128 178.111 44.2128H179.835ZM191.446 44.2128H193.121C193.392 44.2128 193.856 44.6176 194.513 45.4227C195.699 46.7457 196.695 47.8264 197.502 48.6633C197.569 48.7195 197.634 48.7492 197.7 48.7492C197.834 48.7492 197.9 48.6413 197.9 48.4287V45.6847C197.9 45.071 198.061 44.6685 198.381 44.4771C198.726 44.3009 199.039 44.2128 199.321 44.2128H199.802C200.03 44.2128 200.142 44.3617 200.142 44.6548V52.0749C200.142 52.2921 200.058 52.4015 199.888 52.4015H197.983C197.788 52.4015 197.495 52.1554 197.104 51.6625C196.753 51.323 195.996 50.4884 194.827 49.1616C194.069 48.3565 193.662 47.9532 193.605 47.9532H193.519C193.426 48.0026 193.379 48.0808 193.379 48.1879V50.7519C193.359 51.645 193.241 52.1395 193.028 52.2336C192.817 52.3255 192.459 52.3817 191.954 52.4015H191.329C191.178 52.4015 191.102 52.3233 191.102 52.1668V49.8998C191.102 49.1714 191.093 48.6201 191.076 48.2509C191.093 47.8773 191.102 47.3259 191.102 46.6014V44.4771C191.102 44.3009 191.217 44.2128 191.446 44.2128ZM212.73 44.1976H219.6C220.26 44.1976 220.705 44.4612 220.937 44.9928C221.011 45.1531 221.048 45.368 221.048 45.6399V50.9866C221.048 51.6899 220.737 52.1417 220.115 52.3445C219.934 52.3627 219.761 52.3719 219.6 52.3719H217.3C216.924 52.3719 216.671 52.3817 216.538 52.4015C216.325 52.3817 216.05 52.3719 215.713 52.3719H212.533C211.644 52.3719 211.201 51.8638 211.201 50.8438V45.7827C211.201 44.7255 211.71 44.1976 212.73 44.1976ZM213.443 49.9917C213.443 50.3615 213.622 50.5468 213.981 50.5468H218.153C218.591 50.5468 218.809 50.4101 218.809 50.1405C218.828 49.9491 218.838 49.7433 218.838 49.5208V46.8414C218.838 46.3925 218.763 46.1677 218.612 46.1677C218.612 46.132 218.515 46.113 218.323 46.1085H213.952C213.613 46.1085 213.443 46.2649 213.443 46.5801V49.9917ZM232.37 44.2128H232.796C233.838 44.2128 234.36 44.7445 234.36 45.8062V50.1344C234.36 50.4276 234.549 50.5742 234.928 50.5742H240.019C240.511 50.5742 240.874 50.9182 241.102 51.6063C241.137 51.7157 241.156 51.8721 241.156 52.0749C241.145 52.2921 241.059 52.4015 240.901 52.4015H233.365C232.746 52.4015 232.338 52.1455 232.144 51.6336L232.115 51.2858V44.5356C232.115 44.3207 232.2 44.2128 232.37 44.2128ZM252.778 44.1976H259.647C260.307 44.1976 260.752 44.4612 260.985 44.9928C261.058 45.1531 261.096 45.368 261.096 45.6399V50.9866C261.096 51.6899 260.785 52.1417 260.162 52.3445C259.982 52.3627 259.809 52.3719 259.647 52.3719H257.348C256.973 52.3719 256.718 52.3817 256.586 52.4015C256.373 52.3817 256.097 52.3719 255.762 52.3719H252.58C251.692 52.3719 251.248 51.8638 251.248 50.8438V45.7827C251.248 44.7255 251.758 44.1976 252.778 44.1976ZM253.49 49.9917C253.49 50.3615 253.67 50.5468 254.029 50.5468H258.201C258.638 50.5468 258.857 50.4101 258.857 50.1405C258.876 49.9491 258.885 49.7433 258.885 49.5208V46.8414C258.885 46.3925 258.81 46.1677 258.659 46.1677C258.659 46.132 258.563 46.113 258.37 46.1085H254C253.661 46.1085 253.49 46.2649 253.49 46.5801V49.9917ZM273.297 44.1976H280.619C280.806 44.1976 280.9 44.2759 280.9 44.4323V44.9579C280.9 45.3566 280.619 45.7158 280.056 46.0401C279.985 46.0834 279.909 46.1032 279.829 46.1032H272.418C272.248 46.1032 272.163 45.9756 272.163 45.7196C272.163 45.0634 272.352 44.6237 272.727 44.4027C272.92 44.266 273.108 44.1976 273.297 44.1976ZM273.578 47.6274H274.17C274.34 47.6487 274.425 47.7368 274.425 47.8894V49.8534C274.425 50.2241 274.547 50.4079 274.795 50.4079H279.01C279.216 50.4079 279.319 50.2522 279.319 49.9393V49.8534C279.319 49.5793 279.197 49.441 278.95 49.441H278.469C277.812 49.441 277.39 49.2671 277.198 48.9147C277.011 48.6633 276.916 48.3679 276.916 48.0337V47.9753C276.916 47.8188 277.011 47.7406 277.198 47.7406H280.027C280.551 47.7406 280.926 48.0823 281.155 48.7666C281.178 48.9793 281.187 49.1669 281.187 49.3271V50.758C281.187 51.5258 280.951 52.024 280.48 52.2526C280.304 52.3529 279.944 52.4015 279.402 52.4015H273.75C273.08 52.4015 272.635 52.2162 272.418 51.8463C272.264 51.7119 272.179 51.301 272.163 50.6152V49.5891C272.163 48.7545 272.268 48.2563 272.473 48.096C272.75 47.7839 273.118 47.6274 273.578 47.6274ZM291.622 44.1976H293.682C294.214 44.1976 294.653 44.4399 295.004 44.9244C295.964 45.9171 296.462 46.4115 296.496 46.4115C296.573 46.4548 296.63 46.4761 296.665 46.4761C296.839 46.4761 297.158 46.1928 297.622 45.6277C297.652 45.6277 297.897 45.3839 298.357 44.8948C298.705 44.43 299.136 44.1976 299.655 44.1976H301.794C301.934 44.1976 302.011 44.225 302.02 44.2835C302.02 44.3928 301.673 44.7839 300.977 45.45C298.891 47.6077 297.848 48.7157 297.848 48.778L297.822 49.0697V51.9033C297.822 52.2352 297.718 52.4015 297.513 52.4015H296.02C295.7 52.4015 295.539 52.3134 295.539 52.1379V49.3605C295.539 48.8312 295.351 48.4423 294.975 48.194C294.975 48.1553 294.863 48.0398 294.638 47.8439C294.638 47.8127 294.433 47.6001 294.019 47.2029C292.473 45.589 291.569 44.6336 291.313 44.3404V44.2835C291.313 44.225 291.415 44.1976 291.622 44.1976Z" fill="white"/>
<g filter="url(#filter0_d_420_3)">
<path d="M69.3757 27.9932C69.314 24.5531 68.7017 21.9366 67.5961 18.8048C67.4125 18.2859 67.2333 17.8942 67.0794 17.5578C66.7016 16.7322 66.4761 16.2392 66.7108 15.0123C66.9663 13.6821 69.4065 10.6119 69.4065 10.6119L76.6876 1.81561C75.5053 2.69167 74.3224 3.57145 73.1385 4.45202C69.6733 7.02931 66.1989 9.61349 62.7024 12.1316C62.6436 12.1736 62.5838 12.2159 62.5233 12.2588C62.3618 12.3732 62.1951 12.4911 62.0285 12.6161L36.9301 31.0237C36.8441 31.0856 36.7473 31.173 36.6515 31.2595C36.5362 31.3635 36.4225 31.4661 36.331 31.5214C36.5474 31.4983 43.1449 28.1931 47.9513 25.7851C50.4854 24.5156 52.5215 23.4955 52.8622 23.3373C53.0627 23.2437 53.2459 23.1493 53.4191 23.0601C54.2312 22.6419 54.8221 22.3376 55.9367 22.7515C57.8352 23.4607 57.9629 27.3545 57.9321 29.1032C57.8924 32.3055 56.6282 36.1508 54.8707 38.4986C53.5978 40.1944 52.5318 41.4498 50.7699 42.7139C46.396 45.8413 41.652 46.6694 36.4015 45.5286C33.6353 44.934 29.7591 42.6567 28.0501 40.5864L26.4599 38.7937C26.0324 38.9628 20.0904 43.3581 16.0242 46.3658C14.2668 47.6657 12.8598 48.7065 12.3999 49.0348C10.4622 50.4245 8.53701 51.8745 6.61714 53.3205C5.74388 53.9783 4.87173 54.6352 4 55.2852C6.25204 54.6362 8.69152 53.7366 11.0416 52.8699C11.9137 52.5483 12.7735 52.2312 13.6068 51.9331C14.3776 51.6292 17.8662 50.3959 18.5269 50.3166C21.0147 50.0433 22.1389 50.8908 23.5129 51.9266C24.0437 52.3268 24.6118 52.755 25.3103 53.1577L25.4219 53.2218C27.9463 54.6717 28.9319 55.2379 32.01 56.2234C50.9505 62.3108 69.7192 46.9469 69.3757 27.9932Z" fill="url(#paint0_linear_420_3)"/>
<path d="M69.3757 27.9932C69.314 24.5531 68.7017 21.9366 67.5961 18.8048C67.4125 18.2859 67.2333 17.8942 67.0794 17.5578C66.7016 16.7322 66.4761 16.2392 66.7108 15.0123C66.9663 13.6821 69.4065 10.6119 69.4065 10.6119L76.6876 1.81561C75.5053 2.69167 74.3224 3.57145 73.1385 4.45202C69.6733 7.02931 66.1989 9.61349 62.7024 12.1316C62.6436 12.1736 62.5838 12.2159 62.5233 12.2588C62.3618 12.3732 62.1951 12.4911 62.0285 12.6161L36.9301 31.0237C36.8441 31.0856 36.7473 31.173 36.6515 31.2595C36.5362 31.3635 36.4225 31.4661 36.331 31.5214C36.5474 31.4983 43.1449 28.1931 47.9513 25.7851C50.4854 24.5156 52.5215 23.4955 52.8622 23.3373C53.0627 23.2437 53.2459 23.1493 53.4191 23.0601C54.2312 22.6419 54.8221 22.3376 55.9367 22.7515C57.8352 23.4607 57.9629 27.3545 57.9321 29.1032C57.8924 32.3055 56.6282 36.1508 54.8707 38.4986C53.5978 40.1944 52.5318 41.4498 50.7699 42.7139C46.396 45.8413 41.652 46.6694 36.4015 45.5286C33.6353 44.934 29.7591 42.6567 28.0501 40.5864L26.4599 38.7937C26.0324 38.9628 20.0904 43.3581 16.0242 46.3658C14.2668 47.6657 12.8598 48.7065 12.3999 49.0348C10.4622 50.4245 8.53701 51.8745 6.61714 53.3205C5.74388 53.9783 4.87173 54.6352 4 55.2852C6.25204 54.6362 8.69152 53.7366 11.0416 52.8699C11.9137 52.5483 12.7735 52.2312 13.6068 51.9331C14.3776 51.6292 17.8662 50.3959 18.5269 50.3166C21.0147 50.0433 22.1389 50.8908 23.5129 51.9266C24.0437 52.3268 24.6118 52.755 25.3103 53.1577L25.4219 53.2218C27.9463 54.6717 28.9319 55.2379 32.01 56.2234C50.9505 62.3108 69.7192 46.9469 69.3757 27.9932Z" stroke="#BE00B4"/>
<path d="M25.253 20.9676C26.1032 19.4171 26.9533 18.2058 28.0413 17.0562C28.332 16.7478 28.5566 16.51 28.8694 16.2193C30.8647 14.3516 33.7234 12.6029 36.4103 11.9686C39.9518 11.1361 42.8677 11.2771 46.3607 12.3475C48.2856 12.9333 50.8183 14.3076 49.4793 16.7038C49.244 17.1229 48.8155 17.6401 48.4753 18.0507C48.4078 18.1321 48.3439 18.2093 48.2856 18.2807C47.8844 18.7702 47.5453 19.2048 47.1685 19.6879C47.1316 19.7351 47.0944 19.7829 47.0567 19.8312C46.968 19.9451 46.7969 20.1589 46.5846 20.4242C45.8692 21.3183 44.6857 22.7974 44.6076 23.0114C44.9496 22.876 53.7847 16.3449 58.6453 12.7518C59.7948 11.9021 60.722 11.2166 61.2621 10.819C61.9474 10.3147 62.2889 10.1489 62.3105 9.94856C62.3331 9.73941 62.0069 9.49267 61.359 8.78399C59.1786 6.3922 55.4918 3.9035 52.4834 2.52481C44.9292 -0.946155 35.1858 -0.884489 27.7726 2.99612C23.7995 5.07517 19.8087 8.24661 17.276 11.9158C16.536 12.9817 15.9678 13.9067 15.3159 15.0256C12.5629 20.0558 11.4529 25.9318 11.933 31.6227C12.0897 33.5007 12.6818 35.3267 13.2319 37.0229C13.6559 38.3306 14.055 39.5611 14.2103 40.679C14.545 43.0796 13.3161 45.0265 11.6819 46.6562L10.3517 48.1495C10.5675 48.1495 11.4749 47.4579 11.7216 47.2509L18.8044 42.0488C19.1216 41.8242 19.4255 41.5908 19.7515 41.3353C20.2506 40.9442 21.1273 40.3166 22.0486 39.657C23.493 38.6229 25.0473 37.5101 25.4292 37.1067C25.4022 36.931 25.1794 36.4716 24.9716 36.0431C24.8408 35.7734 24.7159 35.5159 24.6496 35.3492C23.1343 31.5567 22.967 28.5746 23.8479 24.5575C23.9404 24.1214 24.2443 23.214 24.4293 22.7824L25.253 20.9676Z" fill="url(#paint1_linear_420_3)"/>
<path d="M25.253 20.9676C26.1032 19.4171 26.9533 18.2058 28.0413 17.0562C28.332 16.7478 28.5566 16.51 28.8694 16.2193C30.8647 14.3516 33.7234 12.6029 36.4103 11.9686C39.9518 11.1361 42.8677 11.2771 46.3607 12.3475C48.2856 12.9333 50.8183 14.3076 49.4793 16.7038C49.244 17.1229 48.8155 17.6401 48.4753 18.0507C48.4078 18.1321 48.3439 18.2093 48.2856 18.2807C47.8844 18.7702 47.5453 19.2048 47.1685 19.6879C47.1316 19.7351 47.0944 19.7829 47.0567 19.8312C46.968 19.9451 46.7969 20.1589 46.5846 20.4242C45.8692 21.3183 44.6857 22.7974 44.6076 23.0114C44.9496 22.876 53.7847 16.3449 58.6453 12.7518C59.7948 11.9021 60.722 11.2166 61.2621 10.819C61.9474 10.3147 62.2889 10.1489 62.3105 9.94856C62.3331 9.73941 62.0069 9.49267 61.359 8.78399C59.1786 6.3922 55.4918 3.9035 52.4834 2.52481C44.9292 -0.946155 35.1858 -0.884489 27.7726 2.99612C23.7995 5.07517 19.8087 8.24661 17.276 11.9158C16.536 12.9817 15.9678 13.9067 15.3159 15.0256C12.5629 20.0558 11.4529 25.9318 11.933 31.6227C12.0897 33.5007 12.6818 35.3267 13.2319 37.0229C13.6559 38.3306 14.055 39.5611 14.2103 40.679C14.545 43.0796 13.3161 45.0265 11.6819 46.6562L10.3517 48.1495C10.5675 48.1495 11.4749 47.4579 11.7216 47.2509L18.8044 42.0488C19.1216 41.8242 19.4255 41.5908 19.7515 41.3353C20.2506 40.9442 21.1273 40.3166 22.0486 39.657C23.493 38.6229 25.0473 37.5101 25.4292 37.1067C25.4022 36.931 25.1794 36.4716 24.9716 36.0431C24.8408 35.7734 24.7159 35.5159 24.6496 35.3492C23.1343 31.5567 22.967 28.5746 23.8479 24.5575C23.9404 24.1214 24.2443 23.214 24.4293 22.7824L25.253 20.9676Z" stroke="#BE00B4"/>
<mask id="mask0_420_3" style="mask-type:luminance" maskUnits="userSpaceOnUse" x="10" y="0" width="53" height="49">
<path d="M25.253 20.9676C26.1032 19.4171 26.9533 18.2058 28.0413 17.0562C28.332 16.7478 28.5566 16.51 28.8694 16.2193C30.8647 14.3516 33.7234 12.6029 36.4103 11.9686C39.9518 11.1361 42.8677 11.2771 46.3607 12.3475C48.2856 12.9333 50.8183 14.3076 49.4793 16.7038C49.244 17.1229 48.8155 17.6401 48.4753 18.0507C48.4078 18.1321 48.3439 18.2093 48.2856 18.2807C47.8844 18.7702 47.5453 19.2048 47.1685 19.6879C47.1316 19.7351 47.0944 19.7829 47.0567 19.8312C46.968 19.9451 46.7969 20.1589 46.5846 20.4242C45.8692 21.3183 44.6857 22.7974 44.6076 23.0114C44.9496 22.876 53.7847 16.3449 58.6453 12.7518C59.7948 11.9021 60.722 11.2166 61.2621 10.819C61.9474 10.3147 62.2889 10.1489 62.3105 9.94856C62.3331 9.73941 62.0069 9.49267 61.359 8.78399C59.1786 6.3922 55.4918 3.9035 52.4834 2.52481C44.9292 -0.946155 35.1858 -0.884489 27.7726 2.99612C23.7995 5.07517 19.8087 8.24661 17.276 11.9158C16.536 12.9817 15.9678 13.9067 15.3159 15.0256C12.5629 20.0558 11.4529 25.9318 11.933 31.6227C12.0897 33.5007 12.6818 35.3267 13.2319 37.0229C13.6559 38.3306 14.055 39.5611 14.2103 40.679C14.545 43.0796 13.3161 45.0265 11.6819 46.6562L10.3517 48.1495C10.5675 48.1495 11.4749 47.4579 11.7216 47.2509L18.8044 42.0488C19.1216 41.8242 19.4255 41.5908 19.7515 41.3353C20.2506 40.9442 21.1273 40.3166 22.0486 39.657C23.493 38.6229 25.0473 37.5101 25.4292 37.1067C25.4022 36.931 25.1794 36.4716 24.9716 36.0431C24.8408 35.7734 24.7159 35.5159 24.6496 35.3492C23.1343 31.5567 22.967 28.5746 23.8479 24.5575C23.9404 24.1214 24.2443 23.214 24.4293 22.7824L25.253 20.9676Z" fill="white"/>
<path d="M25.253 20.9676C26.1032 19.4171 26.9533 18.2058 28.0413 17.0562C28.332 16.7478 28.5566 16.51 28.8694 16.2193C30.8647 14.3516 33.7234 12.6029 36.4103 11.9686C39.9518 11.1361 42.8677 11.2771 46.3607 12.3475C48.2856 12.9333 50.8183 14.3076 49.4793 16.7038C49.244 17.1229 48.8155 17.6401 48.4753 18.0507C48.4078 18.1321 48.3439 18.2093 48.2856 18.2807C47.8844 18.7702 47.5453 19.2048 47.1685 19.6879C47.1316 19.7351 47.0944 19.7829 47.0567 19.8312C46.968 19.9451 46.7969 20.1589 46.5846 20.4242C45.8692 21.3183 44.6857 22.7974 44.6076 23.0114C44.9496 22.876 53.7847 16.3449 58.6453 12.7518C59.7948 11.9021 60.722 11.2166 61.2621 10.819C61.9474 10.3147 62.2889 10.1489 62.3105 9.94856C62.3331 9.73941 62.0069 9.49267 61.359 8.78399C59.1786 6.3922 55.4918 3.9035 52.4834 2.52481C44.9292 -0.946155 35.1858 -0.884489 27.7726 2.99612C23.7995 5.07517 19.8087 8.24661 17.276 11.9158C16.536 12.9817 15.9678 13.9067 15.3159 15.0256C12.5629 20.0558 11.4529 25.9318 11.933 31.6227C12.0897 33.5007 12.6818 35.3267 13.2319 37.0229C13.6559 38.3306 14.055 39.5611 14.2103 40.679C14.545 43.0796 13.3161 45.0265 11.6819 46.6562L10.3517 48.1495C10.5675 48.1495 11.4749 47.4579 11.7216 47.2509L18.8044 42.0488C19.1216 41.8242 19.4255 41.5908 19.7515 41.3353C20.2506 40.9442 21.1273 40.3166 22.0486 39.657C23.493 38.6229 25.0473 37.5101 25.4292 37.1067C25.4022 36.931 25.1794 36.4716 24.9716 36.0431C24.8408 35.7734 24.7159 35.5159 24.6496 35.3492C23.1343 31.5567 22.967 28.5746 23.8479 24.5575C23.9404 24.1214 24.2443 23.214 24.4293 22.7824L25.253 20.9676Z" stroke="white"/>
</mask>
<g mask="url(#mask0_420_3)">
<path d="M-34.8446 28.947L50.1984 -48.1674L120.811 29.7091L35.7683 106.819L-34.8446 28.947Z" fill="url(#paint2_linear_420_3)"/>
<path d="M-34.8446 28.947L50.1984 -48.1674L120.811 29.7091L35.7683 106.819L-34.8446 28.947Z" stroke="#BE00B4"/>
<path d="M-34.8446 28.947L50.1984 -48.1674L120.811 29.7091L35.7683 106.819L-34.8446 28.947Z" stroke="black" stroke-opacity="0.2"/>
</g>
</g>
<defs>
<filter id="filter0_d_420_3" x="0" y="0" width="80.6876" height="65.5751" filterUnits="userSpaceOnUse" color-interpolation-filters="sRGB">
<feFlood flood-opacity="0" result="BackgroundImageFix"/>
<feColorMatrix in="SourceAlpha" type="matrix" values="0 0 0 0 0 0 0 0 0 0 0 0 0 0 0 0 0 0 127 0" result="hardAlpha"/>
<feOffset dy="4"/>
<feGaussianBlur stdDeviation="2"/>
<feComposite in2="hardAlpha" operator="out"/>
<feColorMatrix type="matrix" values="0 0 0 0 0 0 0 0 0 0 0 0 0 0 0 0 0 0 0.25 0"/>
<feBlend mode="normal" in2="BackgroundImageFix" result="effect1_dropShadow_420_3"/>
<feBlend mode="normal" in="SourceGraphic" in2="effect1_dropShadow_420_3" result="shape"/>
</filter>
<linearGradient id="paint0_linear_420_3" x1="40.3438" y1="1.81561" x2="40.3438" y2="57.5752" gradientUnits="userSpaceOnUse">
<stop offset="0.211458" stop-color="#FF00DF"/>
<stop offset="1" stop-color="#52006B"/>
</linearGradient>
<linearGradient id="paint1_linear_420_3" x1="36.3317" y1="0" x2="36.3317" y2="48.1495" gradientUnits="userSpaceOnUse">
<stop offset="0.211458" stop-color="#FF00DF"/>
<stop offset="1" stop-color="#52006B"/>
</linearGradient>
<linearGradient id="paint2_linear_420_3" x1="42.9834" y1="-48.1674" x2="42.9834" y2="106.819" gradientUnits="userSpaceOnUse">
<stop offset="0.211458" stop-color="#FF00DF"/>
<stop offset="1" stop-color="#52006B"/>
</linearGradient>
</defs>
</svg>
