<svg width="80" height="80" viewBox="0 0 80 80" fill="none" xmlns="http://www.w3.org/2000/svg">
<mask id="mask0_232_49" style="mask-type:alpha" maskUnits="userSpaceOnUse" x="0" y="0" width="80" height="80">
<rect width="80" height="80" fill="#D9D9D9"/>
</mask>
<g mask="url(#mask0_232_49)">
<path d="M11.3122 65.5021C14.1217 68.4613 29.5709 82.6403 53.8181 66.1836C71.3553 52.6221 70.9154 23.2215 69.2321 14.3378C68.6455 15.631 48.2988 59.9272 11.3122 65.5021ZM69.2321 14.332C69.0151 14.2446 46.4571 11.1921 24.1572 25.4584C10.3092 34.313 8.47339 47.2803 9.10684 55.9426C41.5244 52.3192 68.493 15.3514 69.2321 14.332Z" fill="#97C554"/>
<path d="M69 14.3324C68.7838 14.2449 46.3128 11.1882 24.0988 25.4741C10.3042 34.3408 8.47542 47.3258 9.10643 56C41.3991 52.3717 68.2638 15.3532 69 14.3324Z" fill="#709B30"/>
</g>
</svg>
