<svg width="80" height="80" viewBox="0 0 80 80" fill="none" xmlns="http://www.w3.org/2000/svg">
<rect width="80" height="80" rx="40" fill="black"/>
<g clip-path="url(#clip0_232_44)">
<path d="M53.1914 43.931V27.8027H56.394V43.931H53.1914Z" fill="#F7A600"/>
<path d="M15.8656 48.722H9V32.5938H15.5898C18.7924 32.5938 20.6581 34.3612 20.6581 37.1241C20.6581 38.9132 19.4595 40.0696 18.63 40.4548C19.6205 40.9071 20.8876 41.9265 20.8876 44.0791C20.8876 47.0909 18.7924 48.722 15.8656 48.722ZM15.3361 35.4029H12.2026V39.1181H15.3354C16.6944 39.1181 17.4548 38.3707 17.4548 37.2597C17.4548 36.151 16.6951 35.4029 15.3361 35.4029ZM15.5428 41.9495H12.2033V45.9143H15.5442C16.9959 45.9143 17.6857 45.0083 17.6857 43.9204C17.6857 42.8333 16.9944 41.9495 15.5442 41.9495H15.5428ZM30.6558 42.1083V48.722H27.476V42.1083L22.5452 32.5938H26.0243L29.0887 39.095L32.1068 32.5938H35.5852L30.6558 42.1083ZM44.665 48.722H37.7994V32.5938H44.3885C47.5911 32.5938 49.4575 34.3612 49.4575 37.1241C49.4575 38.9132 48.2588 40.0696 47.4293 40.4548C48.4199 40.9071 49.687 41.9265 49.687 44.0791C49.687 47.0909 47.5918 48.722 44.665 48.722ZM44.1355 35.4029H41.002V39.1181H44.1355C45.4945 39.1181 46.2549 38.3707 46.2549 37.2597C46.2549 36.151 45.4945 35.4029 44.1355 35.4029ZM44.3421 41.9495H41.0013V45.9143H44.3421C45.7945 45.9143 46.4843 45.0083 46.4843 43.9204C46.4843 42.8333 45.7945 41.9495 44.3421 41.9495ZM66.7142 35.4036V48.7235H63.5115V35.4029H59.2271V32.5938H71V35.4029L66.7142 35.4036Z" fill="white"/>
</g>
<defs>
<clipPath id="clip0_232_44">
<rect width="62" height="24.5272" fill="white" transform="translate(9 26)"/>
</clipPath>
</defs>
</svg>
