

<?xml version="1.0" encoding="UTF-8"?>
<!DOCTYPE svg PUBLIC "-//W3C//DTD SVG 1.1//EN" "http://www.w3.org/Graphics/SVG/1.1/DTD/svg11.dtd">
<!-- Creator: CorelDRAW 2020 (64 Bit) -->
<svg xmlns="http://www.w3.org/2000/svg" xml:space="preserve" width="21.1666mm" height="21.1666mm" version="1.1" style="shape-rendering:geometricPrecision; text-rendering:geometricPrecision; image-rendering:optimizeQuality; fill-rule:evenodd; clip-rule:evenodd"
viewBox="0 0 2116.66 2116.66"
 xmlns:xlink="http://www.w3.org/1999/xlink"
 enable-background="new 0 0 632.014 126.611"
 xmlns:xodm="http://www.corel.com/coreldraw/odm/2003">
 <defs>
  <style type="text/css">
   <![CDATA[
    .fil0 {fill:red;fill-rule:nonzero}
   ]]>
  </style>
 </defs>
 <g id="Camada_x0020_1">
  <metadata id="CorelCorpID_0Corel-Layer"/>
  <path class="fil0" d="M1871.63 30.33c-55.5,0 -103.86,31.78 -127.13,78.36l-1372.32 0c-23.29,-46.56 -71.65,-78.36 -127.15,-78.36 -78.36,0 -142.38,63.58 -142.38,142.38 0,78.36 63.58,142.38 142.38,142.38 4.47,0 8.49,-0.47 12.99,-0.47l304.46 629.09c-21.51,25.09 -34.04,57.32 -34.04,92.24 0,78.36 63.58,142.38 142.38,142.38 1.79,0 3.57,0 5.37,0l322.37 665.8c-25.5,25.5 -41.19,60.89 -41.19,99.82 0,78.36 63.58,142.38 142.38,142.38 78.36,0 142.38,-63.58 142.38,-142.38 0,-41.19 -17.47,-78.36 -45.25,-104.33l286.1 -662.63c69.87,-8.96 123.58,-68.94 123.58,-141.04 0,-30.88 -9.86,-59.54 -26.86,-83.28l275.82 -638.48c5.37,0.46 10.73,0.9 16.11,0.9 78.36,0 142.38,-63.59 142.38,-142.38 -0.43,-78.33 -64.02,-142.38 -142.38,-142.38zm-138.79 174.18l-651.01 475.95 -672.96 -476.4 1323.51 0c0.46,0 0.46,0.45 0.46,0.45zm-732.04 535.5l-247.16 180.88c-23.28,-17.01 -52.4,-26.85 -83.29,-26.85 -8.49,0 -17,0.88 -25.5,2.23l-300.45 -620.55 656.4 464.29zm463.4 153.56c-21.93,0 -42.98,4.93 -61.34,13.89l-239.1 -168.8 590.58 -432.05 -255.67 591.47c-10.74,-3.16 -22.39,-4.51 -34.47,-4.51zm-364.92 908.03c-5.38,0 -10.3,0.46 -15.66,0.88l-319.22 -659.97c29.55,-25.97 48.36,-64.02 48.36,-106.56 0,-12.53 -1.81,-25.08 -4.93,-36.7l274.91 -201.04 252.08 178.2c-8.5,17.92 -12.99,38.5 -12.99,59.54 0,50.59 26.42,94.91 66.28,119.99l-278.95 645.63c-3.61,0.03 -6.72,0.03 -9.88,0.03z"/>
 </g>
</svg>
