<svg width="80" height="80" viewBox="0 0 80 80" fill="none" xmlns="http://www.w3.org/2000/svg">
<path d="M39.8008 2.09961C60.5112 2.09961 77.3008 18.8892 77.3008 39.5996C77.3008 60.31 60.5112 77.0996 39.8008 77.0996C19.0904 77.0996 2.30078 60.31 2.30078 39.5996C2.30078 18.8892 19.0904 2.09961 39.8008 2.09961Z" fill="#0052FF"/>
<path d="M39.818 52.7765C32.5295 52.7765 26.6401 46.8708 26.6401 39.5986C26.6401 32.3263 32.5457 26.4207 39.818 26.4207C46.3418 26.4207 51.7594 31.1712 52.8006 37.4023H66.0761C64.9535 23.8665 53.6303 13.2266 39.8017 13.2266C25.241 13.2266 13.4297 25.0378 13.4297 39.5986C13.4297 54.1593 25.241 65.9706 39.8017 65.9706C53.6303 65.9706 64.9535 55.3307 66.0761 41.7949H52.7844C51.7431 48.0259 46.3418 52.7765 39.818 52.7765Z" fill="white"/>
</svg>
