<svg width="80" height="80" viewBox="0 0 80 80" fill="none" xmlns="http://www.w3.org/2000/svg">
<g clip-path="url(#clip0_231_12)">
<path d="M40.0005 0L5.34766 20V60L40.0005 80L74.6533 60V20L40.0005 0ZM40.0005 0L5.34766 20V60L40.0005 80L74.6533 60V20L40.0005 0Z" fill="white"/>
<path d="M53.6805 64.3744H48.7493L42.8485 58.9568V56.1792L48.9605 50.3456V41.1104L56.9477 35.9008L66.0453 42.7744L53.6805 64.3744ZM33.2645 49.792L34.1669 41.1104L31.1813 33.3312H48.8197L45.9013 41.1104L46.7365 49.792H39.9301H33.2645ZM37.2933 58.9568L31.3893 64.4416H26.3877L13.9557 42.7744L23.1237 35.968L31.1781 41.1072V50.3424L37.2901 56.176L37.2933 58.9568ZM26.3205 17.2928H53.6133L56.8773 31.1808H23.1269L26.3205 17.2928ZM40.0005 0L5.34766 20V60L40.0005 80L74.6533 60V20L40.0005 0Z" fill="#03316C"/>
</g>
<defs>
<clipPath id="clip0_231_12">
<rect width="80" height="80" fill="white"/>
</clipPath>
</defs>
</svg>
