<svg width="80" height="80" viewBox="0 0 80 80" fill="none" xmlns="http://www.w3.org/2000/svg">
<g clip-path="url(#clip0_232_29)">
<path d="M37.8832 14.0716C43.7793 13.6865 49.7678 14.86 55.054 17.4821C62.8538 21.2777 69.0641 28.1539 72.0029 36.2585C73.2967 39.8341 73.9991 43.6297 73.9991 47.4254V61.5444C73.9991 62.1128 74.0176 62.7179 73.8882 63.268C73.574 64.6982 72.5574 65.9451 71.1897 66.5502C70.247 66.9903 69.175 67.0453 68.1769 66.8802C65.9959 66.4768 64.3325 64.4598 64.2955 62.2778C64.277 57.8954 64.2955 53.5314 64.2955 49.1307C64.3325 47.8838 64.3325 46.5636 63.6486 45.4634C62.5581 43.4464 59.878 42.4746 57.734 43.3364C55.9227 43.9781 54.5919 45.7934 54.5734 47.7187C54.5549 52.1745 54.5734 56.6119 54.5734 61.0493C54.5734 61.8744 54.6104 62.7362 54.3701 63.5247C53.908 65.0833 52.5957 66.3485 51.0247 66.7886C48.9546 67.357 46.5703 66.4585 45.5167 64.5515C44.7959 63.3963 44.8513 62.0211 44.8698 60.7559C44.8513 56.3368 44.8883 51.9178 44.8513 47.4987C44.8144 45.2617 42.9476 43.2447 40.6927 42.9513C39.2325 42.7313 37.6984 43.208 36.6449 44.2348C35.6838 45.1333 35.1477 46.4169 35.1477 47.7187V60.5909C35.1293 61.6727 35.2586 62.7912 34.852 63.7997C34.2051 65.6334 32.3383 66.9903 30.3606 66.9352C28.346 67.0453 26.3683 65.67 25.7214 63.7814C25.3702 62.8462 25.4442 61.8561 25.4442 60.8659C25.4442 56.4285 25.4626 51.9911 25.4442 47.5354C25.4257 45.335 23.7067 43.3364 21.5257 42.933C19.5665 42.5112 17.3856 43.5014 16.3875 45.2617C15.9624 45.9951 15.7406 46.8386 15.7406 47.6821V62.1311C15.759 63.543 15.0937 64.9182 14.0216 65.8167C12.3766 67.247 9.73357 67.3203 7.99617 66.0184C6.73932 65.175 6 63.7264 6 62.2228V47.6271C6.01848 42.1078 7.42319 36.5886 10.0663 31.7478C12.2473 27.7871 15.223 24.2482 18.7903 21.4244C24.2428 17.0787 30.9891 14.4933 37.8832 14.0716Z" fill="#4B4C9B"/>
</g>
<defs>
<clipPath id="clip0_232_29">
<rect width="80" height="80" fill="white"/>
</clipPath>
</defs>
</svg>
