<svg width="80" height="80" viewBox="0 0 80 80" fill="none" xmlns="http://www.w3.org/2000/svg">
<path fill-rule="evenodd" clip-rule="evenodd" d="M27.4969 40.1901L49.5547 61.0343L63.4778 47.8794C65.9674 45.7614 69.7762 45.8556 72.1451 48.0938C74.514 50.332 74.6138 53.9308 72.3721 56.283L53.9985 73.6461C51.5305 75.9394 47.5722 75.9394 45.1042 73.6461L18.5957 48.5937V63.4842C18.5957 66.7705 15.7761 69.4346 12.2979 69.4346C8.81964 69.4346 6 66.7705 6 63.4842V16.8767C6 13.5904 8.81964 10.9263 12.2979 10.9263C15.7761 10.9263 18.5957 13.5904 18.5957 16.8767V31.7672L45.1007 6.72125C47.568 4.42625 51.5278 4.42625 53.9951 6.72125L72.3823 24.0811C74.624 26.4334 74.5243 30.0321 72.1554 32.2703C69.7865 34.5085 65.9776 34.6027 63.488 32.4847L49.565 19.3299L27.4969 40.1901ZM49.565 34.2333C47.0147 34.232 44.7147 35.6825 43.7378 37.9083C42.7609 40.1341 43.2994 42.6968 45.1023 44.4011C46.9051 46.1054 49.6172 46.6157 51.9735 45.6939C54.3298 44.772 55.8663 42.5998 55.8663 40.1901C55.8672 38.6103 55.2038 37.0948 54.0221 35.9771C52.8404 34.8593 51.2371 34.2309 49.565 34.2301V34.2333Z" fill="#23AF91"/>
<mask id="mask0_220_28" style="mask-type:alpha" maskUnits="userSpaceOnUse" x="0" y="0" width="80" height="80">
<rect width="80" height="80" fill="white"/>
</mask>
<g mask="url(#mask0_220_28)">
</g>
</svg>
