<svg width="80" height="80" viewBox="0 0 80 80" fill="none" xmlns="http://www.w3.org/2000/svg">
<path fill-rule="evenodd" clip-rule="evenodd" d="M25.9142 40.413L51.4787 63.7584L67.615 49.025C70.5004 46.6528 74.9148 46.7583 77.6602 49.2651C80.4057 51.7719 80.5213 55.8024 77.9233 58.437L56.6288 77.8837C53.7685 80.4521 49.1809 80.4521 46.3206 77.8837L15.5981 49.825V66.5024C15.5981 70.183 12.3302 73.1668 8.29903 73.1668C4.26789 73.1668 1 70.183 1 66.5024V14.3019C1 10.6212 4.26789 7.63743 8.29903 7.63743C12.3302 7.63743 15.5981 10.6212 15.5981 14.3019V30.9792L46.3166 2.92781C49.1761 0.357398 53.7654 0.357398 56.6249 2.92781L77.9352 22.3709C80.5332 25.0054 80.4176 29.0359 77.6721 31.5427C74.9267 34.0495 70.5123 34.1551 67.6269 31.7829L51.4906 17.0494L25.9142 40.413ZM51.4906 33.7413C48.5348 33.7398 45.8692 35.3644 44.737 37.8573C43.6048 40.3502 44.2289 43.2204 46.3184 45.1293C48.4079 47.0381 51.551 47.6096 54.2819 46.5771C57.0128 45.5447 58.7935 43.1117 58.7935 40.413C58.7946 38.6435 58.0258 36.9462 56.6562 35.6943C55.2866 34.4425 53.4285 33.7386 51.4906 33.7377V33.7413Z" fill="#23AF91"/>
<mask id="mask0_220_28" style="mask-type:alpha" maskUnits="userSpaceOnUse" x="0" y="0" width="80" height="80">
<rect width="80" height="80" fill="white"/>
</mask>
<g mask="url(#mask0_220_28)">
</g>
</svg>
