<?xml version="1.0" encoding="UTF-8"?>
<!DOCTYPE svg PUBLIC "-//W3C//DTD SVG 1.1//EN" "http://www.w3.org/Graphics/SVG/1.1/DTD/svg11.dtd">
<!-- Creator: CorelDRAW 2020 (64 Bit) -->
<svg xmlns="http://www.w3.org/2000/svg" xml:space="preserve" width="21.1666mm" height="21.1666mm" version="1.1" style="shape-rendering:geometricPrecision; text-rendering:geometricPrecision; image-rendering:optimizeQuality; fill-rule:evenodd; clip-rule:evenodd"
viewBox="0 0 2116.66 2116.66"
 xmlns:xlink="http://www.w3.org/1999/xlink"
 enable-background="new 0 0 632.014 126.611"
 xmlns:xodm="http://www.corel.com/coreldraw/odm/2003">
 <defs>
  <style type="text/css">
   <![CDATA[
    .fil0 {fill:#EF4723;fill-rule:nonzero}
    .fil1 {fill:white;fill-rule:nonzero}
   ]]>
  </style>
 </defs>
 <g id="Camada_x0020_1">
  <metadata id="CorelCorpID_0Corel-Layer"/>
  <g id="_2146075482432">
   <path class="fil0" d="M868.89 63.36c117.05,-67.39 261.82,-67.39 378.87,0l580.77 334.43c116.84,67.33 189.04,192.03 188.99,326.52l0 668.03c0.2,134.59 -72.04,259.53 -188.99,326.93l-580.77 334.01c-117.05,67.39 -261.82,67.39 -378.87,0l-580.77 -334.42c-116.84,-67.33 -189.04,-192.03 -188.99,-326.52l0 -668.03c-0.2,-134.59 72.05,-259.58 188.99,-326.93l580.77 -334.02zm0 0z"/>
   <path class="fil1" d="M334.69 1422.52l0 -718.45 152.87 0 242.6 559.14 2.88 0 239.31 -559.14 151.23 0 0 718.45 -118.41 0 9.15 -547.94 -4.21 0 -234.25 548.39 -91.41 0 -235.56 -538.45 -4.15 0 8.35 538 -118.4 0zm905.18 0.85l0 -719.3 319.04 0c39.47,0 73.54,4.1 103,12.4 29.08,8.28 54.01,20.68 73.54,37.26 19.54,16.54 33.63,35.97 42.77,58.74 16.53,40.93 19.18,86.19 7.49,128.7 -4.14,15.34 -11.19,29.83 -20.78,43.06 -9.14,13.24 -21.18,24.83 -35.72,34.38 -14.13,9.94 -30.72,17.38 -49.85,23.18l0 4.09c22.02,4.16 41.56,11.19 59,20.73 34.51,17.79 60.9,48.22 73.53,84.83 7.05,18.19 10.39,37.27 10.39,58.36 0,30.61 -4.99,59.6 -15.78,85.67 -10.44,25.93 -26.43,49.27 -46.97,68.3 -20.33,18.63 -45.65,33.12 -76.83,43.85 -33.08,10.95 -67.75,16.25 -102.61,15.75l-340.22 0zm330.68 -324.48l-211.88 0 0 226.81 211.88 0c22.43,0 41.51,-2.9 57.74,-8.29 30.78,-8.75 55.5,-31.73 66.45,-61.65 10.99,-29.84 10.99,-62.5 0,-92.32 -12.29,-27.93 -36.87,-48.72 -66.45,-56.26 -16.62,-5.8 -36.17,-8.29 -57.74,-8.29zm-19.94 -298l-191.94 0 0 202.79 191.09 0c19.93,0 37.82,-2.46 53.16,-7.45 16.63,-5.34 29.53,-13.25 39.91,-23.18 30.08,-30.48 39.52,-75.94 24.09,-115.86 -4.15,-11.99 -11.25,-21.92 -22.04,-30.23 -9.54,-8.28 -22.43,-14.88 -38.61,-19.02 -18.08,-5.2 -36.87,-7.55 -55.66,-7.05zm0 0z"/>
  </g>
 </g>
</svg>
