<svg width="80" height="80" viewBox="0 0 80 80" fill="none" xmlns="http://www.w3.org/2000/svg">
<g clip-path="url(#clip0_231_18)">
<path d="M80 0H0V80H80V0Z" fill="black"/>
<path d="M27.5555 30H8.44439C8.32653 30 8.21349 30.0444 8.13018 30.1237C8.04679 30.2028 8 30.3102 8 30.4223V48.5778C8 48.6898 8.04679 48.7972 8.13018 48.8763C8.21349 48.9556 8.32653 49 8.44439 49H27.5555C27.6735 49 27.7865 48.9556 27.8698 48.8763C27.9532 48.7972 28 48.6898 28 48.5778V30.4223C28 30.3102 27.9532 30.2028 27.8698 30.1237C27.7865 30.0444 27.6735 30 27.5555 30ZM21.3333 42.2445C21.3333 42.3564 21.2865 42.4638 21.2031 42.543C21.1198 42.6222 21.0068 42.6667 20.8889 42.6667H15.1111C14.9932 42.6667 14.8802 42.6222 14.7968 42.543C14.7135 42.4638 14.6667 42.3564 14.6667 42.2445V36.7555C14.6667 36.6436 14.7135 36.5362 14.7968 36.457C14.8802 36.3778 14.9932 36.3334 15.1111 36.3334H20.8889C21.0068 36.3334 21.1198 36.3778 21.2031 36.457C21.2865 36.5362 21.3333 36.6436 21.3333 36.7555V42.2445Z" fill="white"/>
<path d="M65.5333 36H59.4667C59.209 36 59 36.2089 59 36.4666V42.5333C59 42.791 59.209 43 59.4667 43H65.5333C65.791 43 66 42.791 66 42.5333V36.4666C66 36.2089 65.791 36 65.5333 36Z" fill="white"/>
<path d="M58.6 30H53.4C53.1791 30 53 30.179 53 30.4V35.6C53 35.8209 53.1791 36 53.4 36H58.6C58.821 36 59 35.8209 59 35.6V30.4C59 30.179 58.821 30 58.6 30Z" fill="white"/>
<path d="M71.6001 30H66.4C66.1791 30 66 30.179 66 30.4V35.6C66 35.8209 66.1791 36 66.4 36H71.6001C71.821 36 72 35.8209 72 35.6V30.4C72 30.179 71.821 30 71.6001 30Z" fill="white"/>
<path d="M58.6 43H53.4C53.1791 43 53 43.179 53 43.3999V48.6C53 48.8209 53.1791 49 53.4 49H58.6C58.821 49 59 48.8209 59 48.6V43.3999C59 43.179 58.821 43 58.6 43Z" fill="white"/>
<path d="M71.6001 43H66.4C66.1791 43 66 43.179 66 43.3999V48.6C66 48.8209 66.1791 49 66.4 49H71.6001C71.821 49 72 48.8209 72 48.6V43.3999C72 43.179 71.821 43 71.6001 43Z" fill="white"/>
<path d="M49.6 30H44.4C44.1791 30 44 30.179 44 30.4V35.6C44 35.8209 44.1791 36 44.4 36H49.6C49.8209 36 50 35.8209 50 35.6V30.4C50 30.179 49.8209 30 49.6 30Z" fill="white"/>
<path d="M49.6 43H44.4C44.1791 43 44 43.179 44 43.3999V48.6C44 48.8209 44.1791 49 44.4 49H49.6C49.8209 49 50 48.8209 50 48.6V43.3999C50 43.179 49.8209 43 49.6 43Z" fill="white"/>
<path d="M44 36.7542C44 36.6421 43.9543 36.5347 43.8731 36.4555C43.7918 36.3762 43.6815 36.3318 43.5666 36.3318H37.5V30.4225C37.5 30.3104 37.4543 30.2029 37.3731 30.1237C37.2918 30.0445 37.1815 30 37.0666 30H31.4334C31.3184 30 31.2081 30.0445 31.1269 30.1237C31.0456 30.2029 31 30.3104 31 30.4225V48.5776C31 48.6896 31.0456 48.7971 31.1269 48.8763C31.2081 48.9555 31.3184 49 31.4334 49H37.0666C37.1815 49 37.2918 48.9555 37.3731 48.8763C37.4543 48.7971 37.5 48.6896 37.5 48.5776V42.6683H43.5666C43.6815 42.6683 43.7918 42.6238 43.8731 42.5446C43.9543 42.4653 44 42.3579 44 42.2458V36.7542Z" fill="white"/>
</g>
<defs>
<clipPath id="clip0_231_18">
<rect width="80" height="80" rx="20" fill="white"/>
</clipPath>
</defs>
</svg>
