<svg width="527" height="527" viewBox="0 0 527 527" fill="none" xmlns="http://www.w3.org/2000/svg">
<mask id="mask0_294_3" style="mask-type:luminance" maskUnits="userSpaceOnUse" x="0" y="0" width="527" height="527">
<path d="M263.073 0.00354004C144.9 0.00354004 37.4465 80.137 7.77982 200.044C-27.1668 341.177 58.94 483.884 200.06 518.79C341.193 553.737 483.9 467.644 518.82 326.524C553.74 185.39 467.686 42.6837 326.54 7.77698C305.3 2.51031 284.033 0.00354004 263.087 0.00354004H263.073Z" fill="white"/>
</mask>
<g mask="url(#mask0_294_3)">
<mask id="mask1_294_3" style="mask-type:luminance" maskUnits="userSpaceOnUse" x="-28" y="0" width="582" height="554">
<path d="M-27.168 0.00360107H553.739V553.737H-27.168V0.00360107Z" fill="white"/>
</mask>
<g mask="url(#mask1_294_3)">
<path d="M258.42 526.644V526.51H253.753V526.377H250.82V526.244H248.287V526.11H245.887V525.977H244.287V525.844H242.553V525.71H240.82V525.577H239.22V525.444H238.02V525.31H236.687V525.177H235.487V525.044H234.153V524.91H232.953V524.777H231.887V524.644H230.82V524.51H229.753V524.377H228.82V524.244H227.753V524.11H226.687V523.977H225.887V523.844H224.953V523.71H224.153V523.577H223.22V523.444H222.42V523.31H221.487V523.177H220.687V523.044H219.887V522.91H219.087V522.777H218.42V522.644H217.62V522.51H216.82V522.377H216.153V522.244H215.353V522.11H214.687V521.977H213.887V521.844H213.22V521.71H212.553V521.577H211.887V521.444H211.22V521.31H210.687V521.177H210.02V521.044H209.353V520.91H208.687V520.777H208.02V520.644H207.487V520.51H206.82V520.377H206.153V520.244H205.62V520.11H205.087V519.977H204.42V519.844H203.887V519.71H203.353V519.577H202.687V519.444H202.153V519.31H201.62V519.177H201.087V519.044H200.42V518.91H199.887V518.777H199.353V518.644H198.82V518.51H198.287V518.377H197.887V518.244H197.353V518.11H196.82V517.977H196.287V517.844H195.753V517.71H195.353V517.577H194.82V517.444H194.287V517.31H193.753V517.177H193.353V517.044H192.82V516.91H192.42V516.777H191.887V516.644H191.487V516.51H190.953V516.377H190.553V516.244H190.02V516.11H189.62V515.977H189.087V515.844H188.687V515.71H188.153V515.577H187.753V515.444H187.353V515.31H186.82V515.177H186.42V515.044H186.02V514.91H185.62V514.777H185.087V514.644H184.687V514.51H184.287V514.377H183.887V514.244H183.487V514.11H183.087V513.977H182.553V513.844H182.153V513.71H181.753V513.577H181.353V513.444H180.953V513.31H180.553V513.177H180.153V513.044H179.753V512.91H179.353V512.777H178.953V512.644H178.553V512.51H178.153V512.377H177.753V512.244H177.353V512.11H176.953V511.977H176.687V511.844H176.287V511.71H175.887V511.577H175.487V511.444H175.087V511.31H174.687V511.177H174.287V511.044H173.887V510.91H173.62V510.777H173.22V510.644H172.82V510.51H172.553V510.377H172.153V510.244H171.753V510.11H171.487V509.977H171.087V509.844H170.687V509.71H170.287V509.577H170.02V509.444H169.62V509.31H169.22V509.177H168.953V509.044H168.553V508.91H168.153V508.777H167.887V508.644H167.487V508.51H167.22V508.377H166.82V508.244H166.553V508.11H166.153V507.977H165.887V507.844H165.487V507.71H165.22V507.577H164.82V507.444H164.553V507.31H164.153V507.177H163.887V507.044H163.487V506.91H163.22V506.777H162.82V506.644H162.553V506.51H162.153V506.377H161.887V506.244H161.487V506.11H161.22V505.977H160.953V505.844H160.687V505.71H160.287V505.577H160.02V505.444H159.753V505.31H159.353V505.177H159.087V505.044H158.82V504.91H158.42V504.777H158.153V504.644H157.887V504.51H157.487V504.377H157.22V504.244H156.953V504.11H156.553V503.977H156.287V503.844H156.02V503.71H155.62V503.577H155.353V503.444H155.087V503.31H154.82V503.177H154.553V503.044H154.287V502.91H153.887V502.777H153.62V502.644H153.353V502.51H153.087V502.377H152.82V502.244H152.553V502.11H152.153V501.977H151.887V501.844H151.62V501.71H151.353V501.577H151.087V501.444H150.82V501.31H150.42V501.177H150.153V501.044H149.887V500.91H149.62V500.777H149.353V500.644H149.087V500.51H148.82V500.377H148.553V500.244H148.287V500.11H148.02V499.977H147.753V499.844H147.487V499.71H147.22V499.577H146.953V499.444H146.687V499.31H146.42V499.177H146.02V499.044H145.753V498.91H145.487V498.777H145.22V498.644H144.953V498.51H144.687V498.377H144.42V498.244H144.153V498.11H143.887V497.977H143.62V497.844H143.353V497.71H143.087V497.577H142.953V497.444H142.687V497.31H142.42V497.177H142.153V497.044H141.887V496.91H141.62V496.777H141.353V496.644H141.087V496.51H140.82V496.377H140.553V496.244H140.287V496.11H140.153V495.977H139.887V495.844H139.62V495.71H139.353V495.577H139.087V495.444H138.82V495.31H138.553V495.177H138.287V495.044H138.02V494.91H137.753V494.777H137.62V494.644H137.353V494.51H137.087V494.377H136.82V494.244H136.553V494.11H136.42V493.977H136.153V493.844H135.887V493.71H135.62V493.577H135.353V493.444H135.22V493.31H134.953V493.177H134.687V493.044H134.42V492.91H134.153V492.777H134.02V492.644H133.753V492.51H133.487V492.377H133.22V492.244H132.953V492.11H132.82V491.977H132.553V491.844H132.287V491.71H132.02V491.577H131.887V491.444H131.62V491.31H131.353V491.177H131.22V491.044H130.953V490.91H130.687V490.777H130.42V490.644H130.287V490.51H130.02V490.377H129.753V490.244H129.62V490.11H129.353V489.977H129.087V489.844H128.953V489.71H128.687V489.577H128.42V489.444H128.153V489.31H128.02V489.177H127.753V489.044H127.487V488.91H127.353V488.777H127.087V488.644H126.82V488.51H126.687V488.377H126.42V488.244H126.153V488.11H126.02V487.977H125.753V487.844H125.62V487.71H125.353V487.577H125.087V487.444H124.953V487.31H124.687V487.177H124.553V487.044H124.287V486.91H124.02V486.777H123.887V486.644H123.62V486.51H123.487V486.377H123.22V486.244H122.953V486.11H122.82V485.977H122.553V485.844H122.42V485.71H122.153V485.577H121.887V485.444H121.753V485.31H121.487V485.177H121.353V485.044H121.087V484.91H120.82V484.777H120.687V484.644H120.42V484.51H120.287V484.377H120.02V484.244H119.887V484.11H119.62V483.977H119.487V483.844H119.22V483.71H119.087V483.577H118.82V483.444H118.687V483.31H118.42V483.177H118.287V483.044H118.02V482.91H117.887V482.777H117.62V482.644H117.487V482.51H117.22V482.377H117.087V482.244H116.82V482.11H116.553V481.977H116.42V481.844H116.153V481.71H116.02V481.577H115.753V481.444H115.62V481.31H115.487V481.177H115.22V481.044H115.087V480.91H114.82V480.777H114.687V480.644H114.42V480.51H114.287V480.377H114.02V480.244H113.887V480.11H113.753V479.977H113.487V479.844H113.353V479.71H113.087V479.577H112.953V479.444H112.687V479.31H112.553V479.177H112.287V479.044H112.153V478.91H112.02V478.777H111.753V478.644H111.62V478.51H111.353V478.377H111.22V478.244H110.953V478.11H110.82V477.977H110.687V477.844H110.42V477.71H110.287V477.577H110.02V477.444H109.887V477.31H109.753V477.177H109.487V477.044H109.353V476.91H109.22V476.777H108.953V476.644H108.82V476.51H108.553V476.377H108.42V476.244H108.287V476.11H108.02V475.977H107.887V475.844H107.753V475.71H107.487V475.577H107.353V475.444H107.087V475.31H106.953V475.177H106.82V475.044H106.553V474.91H106.42V474.777H106.287V474.644H106.02V474.51H105.887V474.377H105.753V474.244H105.487V474.11H105.353V473.977H105.22V473.844H104.953V473.71H104.82V473.577H104.687V473.444H104.42V473.31H104.287V473.177H104.153V473.044H103.887V472.91H103.753V472.777H103.62V472.644H103.487V472.51H103.22V472.377H103.087V472.244H102.953V472.11H102.687V471.977H102.553V471.844H102.42V471.71H102.153V471.577H102.02V471.444H101.887V471.31H101.62V471.177H101.487V471.044H101.353V470.91H101.22V470.777H100.953V470.644H100.82V470.51H100.687V470.377H100.42V470.244H100.287V470.11H100.153V469.977H100.02V469.844H99.7534V469.71H99.62V469.577H99.4867V469.444H99.3534V469.31H99.0867V469.177H98.9534V469.044H98.82V468.91H98.6867V468.777H98.5534V468.644H98.2867V468.51H98.1534V468.377H98.0201V468.244H97.8867V468.11H97.62V467.977H97.4867V467.844H97.3534V467.71H97.22V467.577H96.9534V467.444H96.82V467.31H96.6867V467.177H96.5534V467.044H96.2867V466.91H96.1534V466.777H96.0201V466.644H95.8867V466.51H95.62V466.377H95.4867V466.244H95.3534V466.11H95.22V465.977H95.0867V465.844H94.82V465.71H94.6867V465.577H94.5534V465.444H94.42V465.31H94.2867V465.177H94.1534V465.044H93.8867V464.91H93.7534V464.777H93.62V464.644H93.4867V464.51H93.3534V464.377H93.22V464.244H92.9534V464.11H92.82V463.977H92.6867V463.844H92.5534V463.71H92.42V463.577H92.1534V463.444H92.0201V463.31H91.8867V463.177H91.7534V463.044H91.62V462.91H91.4867V462.777H91.22V462.644H91.0867V462.51H90.9534V462.377H90.82V462.244H90.6867V462.11H90.5534V461.977H90.2867V461.844H90.1534V461.71H90.0201V461.577H89.8867V461.444H89.7534V461.31H89.62V461.177H89.4867V461.044H89.3534V460.91H89.0867V460.777H88.9534V460.644H88.82V460.51H88.6867V460.377H88.5534V460.244H88.42V460.11H88.2867V459.977H88.1534V459.844H87.8867V459.71H87.7534V459.577H87.62V459.444H87.4867V459.31H87.3534V459.177H87.22V459.044H87.0867V458.91H86.9534V458.777H86.6867V458.644H86.5534V458.51H86.42V458.377H86.2867V458.244H86.1534V458.11H86.0201V457.977H85.8867V457.844H85.7534V457.71H85.62V457.577H85.4867V457.444H85.22V457.31H85.0867V457.177H84.9534V457.044H84.82V456.91H84.6867V456.777H84.5534V456.644H84.42V456.51H84.2867V456.377H84.1534V456.244H84.0201V456.11H83.8867V455.977H83.7534V455.844H83.62V455.71H83.4867V455.577H83.22V455.444H83.0867V455.31H82.9534V455.177H82.82V455.044H82.6867V454.91H82.5534V454.777H82.42V454.644H82.2867V454.51H82.1534V454.377H82.0201V454.244H81.8867V454.11H81.7534V453.977H81.62V453.844H81.4867V453.71H81.3534V453.577H81.0867V453.444H80.9534V453.31H80.82V453.177H80.6867V453.044H80.5534V452.91H80.42V452.777H80.2867V452.644H80.1534V452.51H80.0201V452.377H79.8867V452.244H79.7534V452.11H79.62V451.977H79.4867V451.844H79.3534V451.71H79.22V451.577H79.0867V451.444H78.9534V451.31H78.82V451.177H78.6867V451.044H78.5534V450.91H78.42V450.777H78.2867V450.644H78.1534V450.51H78.0201V450.377H77.8867V450.244H77.7534V450.11H77.62V449.977H77.4867V449.844H77.3534V449.71H77.22V449.577H77.0867V449.444H76.9534V449.31H76.82V449.177H76.6867V449.044H76.5534V448.91H76.42V448.777H76.2867V448.644H76.1534V448.51H76.0201V448.377H75.8867V448.244H75.7534V448.11H75.62V447.977H75.4867V447.844H75.3534V447.71H75.22V447.577H75.0867V447.444H74.9534V447.31H74.82V447.177H74.6867V447.044H74.5534V446.91H74.42V446.777H74.2867V446.644H74.1534V446.51H74.0201V446.244H73.8867V446.11H73.7534V445.977H73.62V445.844H73.4867V445.71H73.3534V445.577H73.22V445.444H73.0867V445.31H72.9534V445.177H72.82V445.044H72.6867V444.91H72.5534V444.777H72.42V444.644H72.2867V444.51H72.1534V444.377H72.0201V444.244H71.8867V444.11H71.7534V443.977H71.62V443.844H71.4867V443.71H71.3534V443.577H71.22V443.31H71.0867V443.177H70.9534V443.044H70.82V442.91H70.6867V442.777H70.5534V442.644H70.4201V442.51H70.2867V442.377H70.1534V442.244H70.0201V442.11H69.8867V441.977H69.7534V441.844H69.62V441.577H69.4867V441.444H69.3534V441.31H69.22V441.177H69.0867V441.044H68.9534V440.91H68.82V440.777H68.6867V440.644H68.5534V440.51H68.4201V440.377H68.2867V440.244H68.1534V440.11H68.0201V439.844H67.8867V439.71H67.7534V439.577H67.62V439.444H67.4867V439.31H67.3534V439.177H67.22V439.044H67.0867V438.91H66.9534V438.644H66.82V438.51H66.6867V438.377H66.5534V438.244H66.4201V438.11H66.2867V437.977H66.1534V437.844H66.0201V437.577H65.8867V437.444H65.7534V437.31H65.62V437.177H65.4867V437.044H65.3534V436.91H65.22V436.777H65.0867V436.644H64.9534V436.377H64.82V436.244H64.6867V436.11H64.5534V435.977H64.4201V435.844H64.2867V435.71H64.1534V435.577H64.0201V435.31H63.8867V435.177H63.7534V435.044H63.62V434.91H63.4867V434.777H63.3534V434.644H63.22V434.377H63.0867V434.244H62.9534V434.11H62.82V433.977H62.6867V433.844H62.5534V433.577H62.42V433.444H62.2867V433.31H62.1534V433.177H62.0201V433.044H61.8867V432.777H61.7534V432.644H61.62V432.51H61.4867V432.377H61.3534V432.244H61.22V431.977H61.0867V431.844H60.9534V431.71H60.82V431.577H60.6867V431.444H60.5534V431.31H60.42V431.044H60.2867V430.91H60.1534V430.777H60.0201V430.644H59.8867V430.51H59.7534V430.244H59.62V430.11H59.4867V429.977H59.3534V429.844H59.22V429.577H59.0867V429.444H58.9534V429.31H58.82V429.177H58.6867V428.91H58.5534V428.777H58.42V428.644H58.2867V428.51H58.1534V428.244H58.0201V428.11H57.8867V427.977H57.7534V427.844H57.62V427.577H57.4867V427.444H57.3534V427.31H57.22V427.177H57.0867V426.91H56.9534V426.777H56.82V426.644H56.6867V426.51H56.5534V426.244H56.42V426.11H56.2867V425.977H56.1534V425.844H56.0201V425.577H55.8867V425.444H55.7534V425.31H55.62V425.177H55.4867V424.91H55.3534V424.777H55.22V424.644H55.0867V424.377H54.9534V424.244H54.82V424.11H54.6867V423.844H54.5534V423.71H54.42V423.577H54.2867V423.31H54.1534V423.177H54.0201V423.044H53.8867V422.777H53.7534V422.644H53.62V422.51H53.4867V422.244H53.3534V422.11H53.22V421.977H53.0867V421.844H52.9534V421.577H52.82V421.444H52.6867V421.31H52.5534V421.044H52.42V420.91H52.2867V420.777H52.1534V420.51H52.0201V420.377H51.8867V420.244H51.7534V419.977H51.62V419.844H51.4867V419.71H51.3534V419.444H51.2201V419.31H51.0867V419.044H50.9534V418.91H50.82V418.777H50.6867V418.51H50.5534V418.377H50.42V418.11H50.2867V417.977H50.1534V417.844H50.0201V417.577H49.8867V417.444H49.7534V417.31H49.62V417.044H49.4867V416.91H49.3534V416.644H49.2201V416.51H49.0867V416.377H48.9534V416.11H48.82V415.977H48.6867V415.71H48.5534V415.577H48.42V415.444H48.2867V415.177H48.1534V415.044H48.0201V414.777H47.8867V414.644H47.7534V414.51H47.62V414.244H47.4867V414.11H47.3534V413.844H47.2201V413.71H47.0867V413.444H46.9534V413.31H46.82V413.044H46.6867V412.91H46.5534V412.644H46.42V412.51H46.2867V412.377H46.1534V412.11H46.0201V411.977H45.8867V411.71H45.7534V411.577H45.62V411.31H45.4867V411.177H45.3534V410.91H45.2201V410.777H45.0867V410.51H44.9534V410.377H44.82V410.244H44.6867V409.977H44.5534V409.844H44.42V409.577H44.2867V409.444H44.1534V409.177H44.0201V408.91H43.8867V408.777H43.7534V408.51H43.62V408.377H43.4867V408.11H43.3534V407.977H43.2201V407.71H43.0867V407.577H42.9534V407.31H42.82V407.177H42.6867V406.91H42.5534V406.777H42.42V406.51H42.2867V406.377H42.1534V406.11H42.0201V405.844H41.8867V405.71H41.7534V405.444H41.62V405.31H41.4867V405.044H41.3534V404.91H41.2201V404.644H41.0867V404.51H40.9534V404.244H40.82V403.977H40.6867V403.844H40.5534V403.577H40.4201V403.444H40.2867V403.177H40.1534V402.91H40.0201V402.777H39.8867V402.51H39.7534V402.377H39.62V402.11H39.4867V401.844H39.3534V401.71H39.2201V401.444H39.0867V401.177H38.9534V401.044H38.82V400.777H38.6867V400.644H38.5534V400.377H38.4201V400.11H38.2867V399.977H38.1534V399.71H38.0201V399.577H37.8867V399.31H37.7534V399.044H37.62V398.91H37.4867V398.644H37.3534V398.377H37.2201V398.11H37.0867V397.977H36.9534V397.71H36.82V397.444H36.6867V397.31H36.5534V397.044H36.4201V396.777H36.2867V396.644H36.1534V396.377H36.0201V396.11H35.8867V395.844H35.7534V395.71H35.62V395.444H35.4867V395.177H35.3534V395.044H35.2201V394.777H35.0867V394.51H34.9534V394.244H34.82V394.11H34.6867V393.844H34.5534V393.577H34.4201V393.31H34.2867V393.177H34.1534V392.91H34.0201V392.644H33.8867V392.377H33.7534V392.11H33.62V391.977H33.4867V391.71H33.3534V391.444H33.2201V391.177H33.0867V390.91H32.9534V390.777H32.82V390.51H32.6867V390.244H32.5534V389.977H32.4201V389.71H32.2867V389.577H32.1534V389.31H32.0201V389.044H31.8867V388.777H31.7534V388.51H31.6201V388.377H31.4867V388.11H31.3534V387.844H31.2201V387.577H31.0867V387.31H30.9534V387.044H30.82V386.777H30.6867V386.51H30.5534V386.244H30.42V386.11H30.2867V385.844H30.1534V385.577H30.0201V385.31H29.8867V385.044H29.7534V384.777H29.6201V384.51H29.4867V384.244H29.3534V383.977H29.2201V383.71H29.0867V383.444H28.9534V383.31H28.8201V383.044H28.6867V382.777H28.5534V382.51H28.42V382.244H28.2867V381.977H28.1534V381.71H28.0201V381.444H27.8867V381.177H27.7534V380.91H27.6201V380.644H27.4867V380.377H27.3534V379.977H27.2201V379.71H27.0867V379.444H26.9534V379.177H26.8201V378.91H26.6867V378.644H26.5534V378.377H26.42V378.11H26.2867V377.844H26.1534V377.577H26.0201V377.31H25.8867V377.044H25.7534V376.777H25.6201V376.51H25.4867V376.244H25.3534V375.977H25.2201V375.577H25.0867V375.31H24.9534V375.044H24.8201V374.777H24.6867V374.51H24.5534V374.244H24.4201V373.977H24.2867V373.577H24.1534V373.31H24.0201V373.044H23.8867V372.777H23.7534V372.51H23.6201V372.244H23.4867V371.977H23.3534V371.577H23.2201V371.31H23.0867V371.044H22.9534V370.777H22.8201V370.377H22.6867V370.11H22.5534V369.844H22.4201V369.444H22.2867V369.177H22.1534V368.91H22.0201V368.644H21.8867V368.244H21.7534V367.977H21.6201V367.71H21.4867V367.31H21.3534V367.044H21.2201V366.777H21.0867V366.51H20.9534V366.11H20.8201V365.844H20.6867V365.577H20.5534V365.177H20.4201V364.91H20.2867V364.51H20.1534V364.244H20.0201V363.844H19.8867V363.577H19.7534V363.31H19.6201V362.91H19.4867V362.644H19.3534V362.244H19.2201V361.977H19.0867V361.577H18.9534V361.31H18.8201V360.91H18.6867V360.644H18.5534V360.377H18.4201V359.977H18.2867V359.71H18.1534V359.31H18.0201V358.91H17.8867V358.644H17.7534V358.244H17.6201V357.844H17.4867V357.577H17.3534V357.177H17.2201V356.91H17.0867V356.51H16.9534V356.11H16.8201V355.844H16.6867V355.444H16.5534V355.044H16.4201V354.777H16.2867V354.377H16.1534V354.11H16.0201V353.71H15.8867V353.31H15.7534V352.91H15.6201V352.51H15.4867V352.244H15.3534V351.844H15.2201V351.444H15.0867V351.044H14.9534V350.644H14.8201V350.244H14.6867V349.977H14.5534V349.577H14.4201V349.177H14.2867V348.777H14.1534V348.377H14.0201V347.977H13.8867V347.577H13.7534V347.177H13.6201V346.777H13.4867V346.377H13.3534V345.977H13.2201V345.577H13.0867V345.177H12.9534V344.777H12.8201V344.377H12.6867V343.977H12.5534V343.577H12.4201V343.177H12.2867V342.777H12.1534V342.377H12.0201V341.977H11.8867V341.444H11.7534V341.044H11.6201V340.644H11.4867V340.11H11.3534V339.71H11.2201V339.31H11.0867V338.777H10.9534V338.377H10.8201V337.977H10.6867V337.444H10.5534V337.044H10.4201V336.644H10.2867V336.11H10.1534V335.71H10.0201V335.177H9.88672V334.777H9.75338V334.244H9.62005V333.71H9.48672V333.31H9.35338V332.777H9.22005V332.244H9.08672V331.844H8.95338V331.31H8.82005V330.777H8.68672V330.377H8.55338V329.844H8.42005V329.31H8.28672V328.777H8.15339V328.244H8.02005V327.71H7.88672V327.177H7.75339V326.644H7.62005V326.11H7.48672V325.577H7.35338V325.044H7.22005V324.51H7.08672V323.977H6.95338V323.444H6.82005V322.777H6.68672V322.244H6.55338V321.577H6.42005V321.044H6.28672V320.377H6.15339V319.844H6.02005V319.177H5.88672V318.644H5.75339V317.977H5.62005V317.444H5.48672V316.777H5.35338V316.11H5.22005V315.444H5.08672V314.777H4.95339V314.11H4.82005V313.444H4.68672V312.777H4.55339V312.11H4.42005V311.444H4.28672V310.644H4.15339V309.844H4.02005V309.177H3.88672V308.377H3.75339V307.577H3.62005V306.777H3.48672V305.977H3.35339V305.177H3.22005V304.377H3.08672V303.577H2.95339V302.644H2.82005V301.71H2.68672V300.777H2.55339V299.844H2.42005V298.91H2.28672V297.977H2.15339V296.91H2.02005V295.844H1.88672V294.777H1.75339V293.577H1.62005V292.51H1.48672V291.31H1.35339V289.977H1.22005V288.51H1.08672V287.177H0.953385V285.844H0.820052V284.11H0.686719V282.244H0.553385V280.377H0.420052V278.244H0.286719V275.31H0.153385V272.51H0.0200521V266.244H-0.113281V263.977H0.0200521V255.177H0.153385V251.577H0.286719V249.044H0.420052V246.51H0.553385V244.777H0.686719V243.044H0.820052V241.31H0.953385V239.71H1.08672V238.377H1.22005V237.044H1.35339V235.844H1.48672V234.51H1.62005V233.177H1.75339V232.11H1.88672V231.177H2.02005V230.11H2.15339V229.044H2.28672V228.11H2.42005V227.044H2.55339V226.11H2.68672V225.177H2.82005V224.377H2.95339V223.444H3.08672V222.644H3.22005V221.844H3.35339V220.91H3.48672V220.11H3.62005V219.31H3.75339V218.51H3.88672V217.844H4.02005V217.044H4.15339V216.377H4.28672V215.577H4.42005V214.91H4.55339V214.11H4.68672V213.444H4.82005V212.777H4.95339V212.11H5.08672V211.444H5.22005V210.777H5.35338V210.244H5.48672V209.577H5.62005V208.91H5.75339V208.244H5.88672V207.577H6.02005V206.91H6.15339V206.377H6.28672V205.71H6.42005V205.177H6.55338V204.644H6.68672V203.977H6.82005V203.444H6.95338V202.91H7.08672V202.244H7.22005V201.71H7.35338V201.177H7.48672V200.644H7.62005V200.11H7.75339V199.577H7.88672V199.044H8.02005V198.51H8.15339V197.977H8.28672V197.444H8.42005V196.91H8.55338V196.377H8.68672V195.977H8.82005V195.444H8.95338V194.91H9.08672V194.51H9.22005V193.977H9.35338V193.577H9.48672V193.044H9.62005V192.51H9.75338V192.11H9.88672V191.577H10.0201V191.177H10.1534V190.644H10.2867V190.11H10.4201V189.71H10.5534V189.177H10.6867V188.777H10.8201V188.377H10.9534V187.977H11.0867V187.444H11.2201V187.044H11.3534V186.644H11.4867V186.244H11.6201V185.844H11.7534V185.444H11.8867V184.91H12.0201V184.51H12.1534V184.11H12.2867V183.71H12.4201V183.31H12.5534V182.91H12.6867V182.51H12.8201V181.977H12.9534V181.577H13.0867V181.177H13.2201V180.777H13.3534V180.377H13.4867V179.977H13.6201V179.444H13.7534V179.044H13.8867V178.644H14.0201V178.244H14.1534V177.844H14.2867V177.444H14.4201V177.044H14.5534V176.777H14.6867V176.377H14.8201V175.977H14.9534V175.71H15.0867V175.31H15.2201V174.91H15.3534V174.51H15.4867V174.244H15.6201V173.844H15.7534V173.444H15.8867V173.044H16.0201V172.777H16.1534V172.377H16.2867V171.977H16.4201V171.577H16.5534V171.31H16.6867V170.91H16.8201V170.51H16.9534V170.11H17.0867V169.844H17.2201V169.444H17.3534V169.044H17.4867V168.644H17.6201V168.377H17.7534V167.977H17.8867V167.577H18.0201V167.31H18.1534V166.91H18.2867V166.644H18.4201V166.244H18.5534V165.977H18.6867V165.71H18.8201V165.31H18.9534V165.044H19.0867V164.644H19.2201V164.377H19.3534V163.977H19.4867V163.71H19.6201V163.444H19.7534V163.044H19.8867V162.777H20.0201V162.377H20.1534V162.11H20.2867V161.844H20.4201V161.444H20.5534V161.177H20.6867V160.777H20.8201V160.51H20.9534V160.11H21.0867V159.844H21.2201V159.577H21.3534V159.177H21.4867V158.91H21.6201V158.51H21.7534V158.244H21.8867V157.977H22.0201V157.577H22.1534V157.31H22.2867V156.91H22.4201V156.644H22.5534V156.377H22.6867V156.11H22.8201V155.844H22.9534V155.577H23.0867V155.177H23.2201V154.91H23.3534V154.644H23.4867V154.377H23.6201V154.11H23.7534V153.844H23.8867V153.577H24.0201V153.177H24.1534V152.91H24.2867V152.644H24.4201V152.377H24.5534V152.11H24.6867V151.844H24.8201V151.577H24.9534V151.177H25.0867V150.91H25.2201V150.644H25.3534V150.377H25.4867V150.11H25.6201V149.844H25.7534V149.444H25.8867V149.177H26.0201V148.91H26.1534V148.644H26.2867V148.377H26.42V148.11H26.5534V147.844H26.6867V147.444H26.8201V147.177H26.9534V146.91H27.0867V146.644H27.2201V146.377H27.3534V146.11H27.4867V145.844H27.6201V145.577H27.7534V145.31H27.8867V145.177H28.0201V144.91H28.1534V144.644H28.2867V144.377H28.42V144.11H28.5534V143.844H28.6867V143.577H28.8201V143.31H28.9534V143.044H29.0867V142.777H29.2201V142.51H29.3534V142.244H29.4867V141.977H29.6201V141.71H29.7534V141.577H29.8867V141.31H30.0201V141.044H30.1534V140.777H30.2867V140.51H30.42V140.244H30.5534V139.977H30.6867V139.71H30.82V139.444H30.9534V139.177H31.0867V138.91H31.2201V138.644H31.3534V138.377H31.4867V138.11H31.6201V137.977H31.7534V137.71H31.8867V137.444H32.0201V137.177H32.1534V136.91H32.2867V136.644H32.4201V136.377H32.5534V136.244H32.6867V135.977H32.82V135.71H32.9534V135.444H33.0867V135.31H33.2201V135.044H33.3534V134.777H33.4867V134.51H33.62V134.377H33.7534V134.11H33.8867V133.844H34.0201V133.577H34.1534V133.444H34.2867V133.177H34.4201V132.91H34.5534V132.644H34.6867V132.51H34.82V132.244H34.9534V131.977H35.0867V131.71H35.2201V131.577H35.3534V131.31H35.4867V131.044H35.62V130.777H35.7534V130.644H35.8867V130.377H36.0201V130.11H36.1534V129.977H36.2867V129.71H36.4201V129.444H36.5534V129.177H36.6867V129.044H36.82V128.777H36.9534V128.51H37.0867V128.244H37.2201V128.11H37.3534V127.844H37.4867V127.577H37.62V127.31H37.7534V127.177H37.8867V126.91H38.0201V126.777H38.1534V126.51H38.2867V126.244H38.4201V126.11H38.5534V125.844H38.6867V125.71H38.82V125.444H38.9534V125.31H39.0867V125.044H39.2201V124.777H39.3534V124.644H39.4867V124.377H39.62V124.244H39.7534V123.977H39.8867V123.71H40.0201V123.577H40.1534V123.31H40.2867V123.177H40.4201V122.91H40.5534V122.644H40.6867V122.51H40.82V122.244H40.9534V122.11H41.0867V121.844H41.2201V121.71H41.3534V121.444H41.4867V121.177H41.62V121.044H41.7534V120.777H41.8867V120.644H42.0201V120.377H42.1534V120.11H42.2867V119.977H42.42V119.71H42.5534V119.577H42.6867V119.31H42.82V119.177H42.9534V118.91H43.0867V118.644H43.2201V118.51H43.3534V118.244H43.4867V118.11H43.62V117.844H43.7534V117.71H43.8867V117.444H44.0201V117.31H44.1534V117.044H44.2867V116.91H44.42V116.644H44.5534V116.51H44.6867V116.377H44.82V116.11H44.9534V115.977H45.0867V115.71H45.2201V115.577H45.3534V115.31H45.4867V115.177H45.62V114.91H45.7534V114.777H45.8867V114.644H46.0201V114.377H46.1534V114.244H46.2867V113.977H46.42V113.844H46.5534V113.577H46.6867V113.444H46.82V113.177H46.9534V113.044H47.0867V112.91H47.2201V112.644H47.3534V112.51H47.4867V112.244H47.62V112.11H47.7534V111.844H47.8867V111.71H48.0201V111.444H48.1534V111.31H48.2867V111.044H48.42V110.91H48.5534V110.777H48.6867V110.51H48.82V110.377H48.9534V110.11H49.0867V109.977H49.2201V109.71H49.3534V109.577H49.4867V109.31H49.62V109.177H49.7534V109.044H49.8867V108.777H50.0201V108.644H50.1534V108.51H50.2867V108.244H50.42V108.11H50.5534V107.977H50.6867V107.71H50.82V107.577H50.9534V107.444H51.0867V107.177H51.2201V107.044H51.3534V106.91H51.4867V106.644H51.62V106.51H51.7534V106.377H51.8867V106.11H52.0201V105.977H52.1534V105.844H52.2867V105.577H52.42V105.444H52.5534V105.31H52.6867V105.044H52.82V104.91H52.9534V104.777H53.0867V104.644H53.22V104.377H53.3534V104.244H53.4867V104.11H53.62V103.844H53.7534V103.71H53.8867V103.577H54.0201V103.31H54.1534V103.177H54.2867V103.044H54.42V102.777H54.5534V102.644H54.6867V102.51H54.82V102.244H54.9534V102.11H55.0867V101.977H55.22V101.71H55.3534V101.577H55.4867V101.444H55.62V101.177H55.7534V101.044H55.8867V100.91H56.0201V100.644H56.1534V100.51H56.2867V100.377H56.42V100.244H56.5534V99.977H56.6867V99.8436H56.82V99.7103H56.9534V99.577H57.0867V99.3103H57.22V99.177H57.3534V99.0436H57.4867V98.9103H57.62V98.777H57.7534V98.5103H57.8867V98.377H58.0201V98.2437H58.1534V98.1103H58.2867V97.977H58.42V97.7103H58.5534V97.577H58.6867V97.4436H58.82V97.3103H58.9534V97.0436H59.0867V96.9103H59.22V96.777H59.3534V96.6436H59.4867V96.5103H59.62V96.2437H59.7534V96.1103H59.8867V95.977H60.0201V95.8436H60.1534V95.577H60.2867V95.4436H60.42V95.3103H60.5534V95.177H60.6867V95.0436H60.82V94.777H60.9534V94.6436H61.0867V94.5103H61.22V94.377H61.3534V94.2437H61.4867V93.977H61.62V93.8436H61.7534V93.7103H61.8867V93.577H62.0201V93.3103H62.1534V93.177H62.2867V93.0436H62.42V92.9103H62.5534V92.777H62.6867V92.5103H62.82V92.377H62.9534V92.2437H63.0867V92.1103H63.22V91.977H63.3534V91.7103H63.4867V91.577H63.62V91.4436H63.7534V91.3103H63.8867V91.177H64.0201V91.0436H64.1534V90.9103H64.2867V90.777H64.4201V90.5103H64.5534V90.377H64.6867V90.2437H64.82V90.1103H64.9534V89.977H65.0867V89.8436H65.22V89.7103H65.3534V89.577H65.4867V89.4436H65.62V89.177H65.7534V89.0436H65.8867V88.9103H66.0201V88.777H66.1534V88.6436H66.2867V88.5103H66.4201V88.377H66.5534V88.2437H66.6867V87.977H66.82V87.8436H66.9534V87.7103H67.0867V87.577H67.22V87.4436H67.3534V87.3103H67.4867V87.177H67.62V87.0436H67.7534V86.777H67.8867V86.6436H68.0201V86.5103H68.1534V86.377H68.2867V86.2437H68.4201V86.1103H68.5534V85.977H68.6867V85.8436H68.82V85.7103H68.9534V85.4436H69.0867V85.3103H69.22V85.177H69.3534V85.0436H69.4867V84.9103H69.62V84.777H69.7534V84.6436H69.8867V84.5103H70.0201V84.2437H70.1534V84.1103H70.2867V83.977H70.4201V83.8436H70.5534V83.7103H70.6867V83.577H70.82V83.4436H70.9534V83.3103H71.0867V83.177H71.22V83.0436H71.3534V82.9103H71.4867V82.777H71.62V82.6436H71.7534V82.5103H71.8867V82.377H72.0201V82.2437H72.1534V82.1103H72.2867V81.977H72.42V81.8436H72.5534V81.7103H72.6867V81.577H72.82V81.4436H72.9534V81.3103H73.0867V81.177H73.22V81.0436H73.3534V80.9103H73.4867V80.6436H73.62V80.5103H73.7534V80.377H73.8867V80.2437H74.0201V80.1103H74.1534V79.977H74.2867V79.8436H74.42V79.7103H74.5534V79.577H74.6867V79.4436H74.82V79.3103H74.9534V79.177H75.0867V79.0436H75.22V78.9103H75.3534V78.777H75.4867V78.6436H75.62V78.5103H75.7534V78.377H75.8867V78.2437H76.0201V78.1103H76.1534V77.977H76.2867V77.8436H76.42V77.7103H76.5534V77.577H76.6867V77.4436H76.82V77.3103H76.9534V77.177H77.0867V77.0436H77.22V76.9103H77.3534V76.777H77.4867V76.6436H77.62V76.5103H77.7534V76.2437H77.8867V76.1103H78.1534V75.977H78.2867V75.8436H78.42V75.7103H78.5534V75.577H78.6867V75.4436H78.82V75.3103H78.9534V75.177H79.0867V75.0436H79.22V74.9103H79.3534V74.777H79.4867V74.6436H79.62V74.5103H79.7534V74.377H79.8867V74.2437H80.0201V74.1103H80.1534V73.977H80.2867V73.8436H80.42V73.7103H80.6867V73.577H80.82V73.4436H80.9534V73.3103H81.0867V73.177H81.22V73.0436H81.3534V72.9103H81.4867V72.777H81.62V72.6436H81.7534V72.5103H81.8867V72.377H82.0201V72.2437H82.1534V72.1103H82.2867V71.977H82.42V71.8436H82.5534V71.7103H82.6867V71.577H82.82V71.4436H82.9534V71.3103H83.0867V71.177H83.3534V71.0436H83.4867V70.9103H83.62V70.777H83.7534V70.6436H83.8867V70.5103H84.0201V70.377H84.1534V70.2437H84.2867V70.1103H84.42V69.977H84.5534V69.8436H84.6867V69.7103H84.82V69.577H84.9534V69.4436H85.0867V69.3103H85.22V69.177H85.3534V69.0436H85.4867V68.9103H85.62V68.777H85.8867V68.6436H86.0201V68.5103H86.1534V68.377H86.2867V68.2437H86.42V68.1103H86.5534V67.977H86.6867V67.8436H86.9534V67.7103H87.0867V67.577H87.22V67.4436H87.3534V67.3103H87.4867V67.177H87.62V67.0436H87.7534V66.9103H88.0201V66.777H88.1534V66.6436H88.2867V66.5103H88.42V66.377H88.5534V66.2437H88.6867V66.1103H88.82V65.977H89.0867V65.8436H89.22V65.7103H89.3534V65.577H89.4867V65.4436H89.62V65.3103H89.7534V65.177H89.8867V65.0436H90.1534V64.9103H90.2867V64.777H90.42V64.6436H90.5534V64.5103H90.6867V64.377H90.82V64.2437H90.9534V64.1103H91.22V63.977H91.3534V63.8437H91.4867V63.7103H91.62V63.577H91.7534V63.4436H91.8867V63.3103H92.0201V63.177H92.2867V63.0436H92.42V62.9103H92.5534V62.777H92.6867V62.6436H92.82V62.5103H92.9534V62.377H93.0867V62.2437H93.3534V62.1103H93.4867V61.977H93.62V61.8437H93.7534V61.7103H93.8867V61.577H94.0201V61.4436H94.2867V61.3103H94.42V61.177H94.5534V61.0436H94.6867V60.9103H94.9534V60.777H95.0867V60.6436H95.22V60.5103H95.3534V60.377H95.62V60.2437H95.7534V60.1103H95.8867V59.977H96.0201V59.8437H96.2867V59.7103H96.42V59.577H96.5534V59.4436H96.6867V59.3103H96.9534V59.177H97.0867V59.0436H97.22V58.9103H97.3534V58.777H97.62V58.6436H97.7534V58.5103H97.8867V58.377H98.0201V58.2437H98.1534V58.1103H98.42V57.977H98.5534V57.8437H98.6867V57.7103H98.82V57.577H99.0867V57.4436H99.22V57.3103H99.3534V57.177H99.4867V57.0436H99.7534V56.9103H99.8867V56.777H100.02V56.6436H100.153V56.5103H100.42V56.377H100.553V56.2437H100.687V56.1103H100.82V55.977H101.087V55.8437H101.22V55.7103H101.353V55.577H101.487V55.4436H101.753V55.3103H101.887V55.177H102.02V55.0436H102.153V54.9103H102.42V54.777H102.553V54.6436H102.687V54.5103H102.953V54.377H103.087V54.2437H103.22V54.1103H103.487V53.977H103.62V53.8437H103.753V53.7103H104.02V53.577H104.153V53.4436H104.287V53.3103H104.553V53.177H104.687V53.0436H104.953V52.9103H105.087V52.777H105.22V52.6436H105.487V52.5103H105.62V52.377H105.753V52.2437H106.02V52.1103H106.153V51.977H106.287V51.8437H106.553V51.7103H106.687V51.577H106.82V51.4436H107.087V51.3103H107.22V51.177H107.353V51.0436H107.62V50.9103H107.753V50.777H108.02V50.6436H108.153V50.5103H108.287V50.377H108.553V50.2437H108.687V50.1103H108.82V49.977H109.087V49.8437H109.22V49.7103H109.353V49.577H109.62V49.4436H109.753V49.3103H109.887V49.177H110.153V49.0436H110.287V48.9103H110.42V48.777H110.687V48.6436H110.82V48.5103H111.087V48.377H111.22V48.2437H111.487V48.1103H111.62V47.977H111.753V47.8437H112.02V47.7103H112.153V47.577H112.42V47.4436H112.553V47.3103H112.82V47.177H112.953V47.0436H113.22V46.9103H113.353V46.777H113.62V46.6436H113.753V46.5103H114.02V46.377H114.153V46.2437H114.42V46.1103H114.553V45.977H114.82V45.8437H114.953V45.7103H115.22V45.577H115.353V45.4436H115.487V45.3103H115.753V45.177H115.887V45.0436H116.153V44.9103H116.287V44.777H116.553V44.6436H116.687V44.5103H116.953V44.377H117.087V44.2437H117.353V44.1103H117.487V43.977H117.753V43.8437H117.887V43.7103H118.153V43.577H118.287V43.4436H118.553V43.3103H118.687V43.177H118.82V43.0436H119.087V42.9103H119.22V42.777H119.487V42.6436H119.62V42.5103H119.887V42.377H120.153V42.2437H120.287V42.1103H120.553V41.977H120.687V41.8437H120.953V41.7103H121.22V41.577H121.353V41.4436H121.62V41.3103H121.753V41.177H122.02V41.0436H122.287V40.9103H122.42V40.777H122.687V40.6436H122.82V40.5103H123.087V40.377H123.353V40.2437H123.487V40.1103H123.753V39.977H124.02V39.8437H124.153V39.7103H124.42V39.577H124.553V39.4436H124.82V39.3103H125.087V39.177H125.22V39.0436H125.487V38.9103H125.62V38.777H125.887V38.6436H126.153V38.5103H126.287V38.377H126.553V38.2437H126.687V38.1103H126.953V37.977H127.22V37.8437H127.353V37.7103H127.62V37.577H127.753V37.4436H128.02V37.3103H128.287V37.177H128.42V37.0436H128.687V36.9103H128.953V36.777H129.087V36.6436H129.353V36.5103H129.62V36.377H129.887V36.2437H130.02V36.1103H130.287V35.977H130.553V35.8437H130.82V35.7103H130.953V35.577H131.22V35.4436H131.487V35.3103H131.753V35.177H132.02V35.0436H132.153V34.9103H132.42V34.777H132.687V34.6436H132.953V34.5103H133.087V34.377H133.353V34.2437H133.62V34.1103H133.887V33.977H134.02V33.8437H134.287V33.7103H134.553V33.577H134.82V33.4436H134.953V33.3103H135.22V33.177H135.487V33.0436H135.753V32.9103H136.02V32.777H136.153V32.6436H136.42V32.5103H136.687V32.377H136.953V32.2437H137.087V32.1103H137.353V31.977H137.62V31.8437H137.887V31.7103H138.02V31.577H138.287V31.4436H138.553V31.3103H138.82V31.177H139.087V31.0436H139.353V30.9103H139.62V30.777H139.887V30.6436H140.153V30.5103H140.42V30.377H140.687V30.2437H140.953V30.1103H141.22V29.977H141.487V29.8437H141.753V29.7103H141.887V29.577H142.153V29.4436H142.42V29.3103H142.687V29.177H142.953V29.0436H143.22V28.9103H143.487V28.777H143.753V28.6436H144.02V28.5103H144.287V28.377H144.553V28.2437H144.82V28.1103H145.087V27.977H145.353V27.8437H145.62V27.7103H145.887V27.577H146.153V27.4436H146.42V27.3103H146.553V27.177H146.82V27.0436H147.087V26.9103H147.353V26.777H147.62V26.6436H147.887V26.5103H148.287V26.377H148.553V26.2437H148.82V26.1103H149.087V25.977H149.353V25.8437H149.62V25.7103H149.887V25.577H150.287V25.4436H150.553V25.3103H150.82V25.177H151.087V25.0436H151.353V24.9103H151.62V24.777H152.02V24.6436H152.287V24.5103H152.553V24.377H152.82V24.2437H153.087V24.1103H153.353V23.977H153.62V23.8437H154.02V23.7103H154.287V23.577H154.553V23.4436H154.82V23.3103H155.087V23.177H155.353V23.0436H155.753V22.9103H156.02V22.777H156.287V22.6436H156.553V22.5103H156.82V22.377H157.087V22.2437H157.353V22.1103H157.753V21.977H158.02V21.8437H158.42V21.7103H158.687V21.577H159.087V21.4436H159.353V21.3103H159.62V21.177H160.02V21.0436H160.287V20.9103H160.687V20.777H160.953V20.6436H161.22V20.5103H161.62V20.377H161.887V20.2437H162.287V20.1103H162.553V19.977H162.82V19.8437H163.22V19.7103H163.487V19.577H163.887V19.4436H164.153V19.3103H164.42V19.177H164.82V19.0436H165.087V18.9103H165.487V18.777H165.753V18.6436H166.02V18.5103H166.42V18.377H166.687V18.2437H167.087V18.1103H167.353V17.977H167.753V17.8437H168.153V17.7103H168.42V17.577H168.82V17.4436H169.22V17.3103H169.487V17.177H169.887V17.0436H170.287V16.9103H170.687V16.777H170.953V16.6436H171.353V16.5103H171.753V16.377H172.02V16.2437H172.42V16.1103H172.82V15.977H173.087V15.8437H173.487V15.7103H173.887V15.577H174.287V15.4436H174.553V15.3103H174.953V15.177H175.353V15.0436H175.62V14.9103H176.02V14.777H176.42V14.6436H176.82V14.5103H177.087V14.377H177.487V14.2437H177.887V14.1103H178.287V13.977H178.687V13.8436H179.087V13.7103H179.62V13.577H180.02V13.4437H180.42V13.3103H180.82V13.177H181.22V13.0436H181.62V12.9103H182.02V12.777H182.42V12.6437H182.82V12.5103H183.22V12.377H183.753V12.2437H184.153V12.1103H184.553V11.977H184.953V11.8436H185.353V11.7103H185.753V11.577H186.153V11.4437H186.553V11.3103H186.953V11.177H187.353V11.0436H187.887V10.9103H188.287V10.777H188.82V10.6437H189.22V10.5103H189.753V10.377H190.287V10.2437H190.687V10.1103H191.22V9.97699H191.62V9.84363H192.153V9.71033H192.687V9.57697H193.087V9.44366H193.62V9.3103H194.02V9.177H194.553V9.04364H195.087V8.91034H195.487V8.77698H196.02V8.64368H196.42V8.51031H196.953V8.37695H197.487V8.24365H197.887V8.11029H198.42V7.97699H198.953V7.84363H199.62V7.71033H200.153V7.57697H200.687V7.44366H201.353V7.3103H201.887V7.177H202.42V7.04364H202.953V6.91034H203.62V6.77698H204.153V6.64368H204.687V6.51031H205.22V6.37695H205.887V6.24365H206.42V6.11029H206.953V5.97699H207.62V5.84363H208.153V5.71033H208.687V5.57697H209.353V5.44366H210.153V5.3103H210.82V5.177H211.487V5.04364H212.153V4.91034H212.953V4.77698H213.62V4.64368H214.287V4.51031H214.953V4.37695H215.62V4.24365H216.42V4.11029H217.087V3.97699H217.753V3.84363H218.42V3.71033H219.22V3.57697H220.02V3.44366H220.953V3.3103H221.887V3.177H222.687V3.04364H223.62V2.91034H224.553V2.77698H225.487V2.64368H226.287V2.51031H227.22V2.37695H228.153V2.24365H229.087V2.11029H229.887V1.97699H231.087V1.84363H232.42V1.71033H233.62V1.57697H234.953V1.44366H236.153V1.3103H237.487V1.177H238.687V1.04364H239.887V0.910339H241.353V0.776978H243.487V0.643677H245.62V0.510315H247.62V0.376953H249.753V0.243652H251.887V0.110291H256.42V-0.0230103H270.42V0.110291H273.753V0.243652H276.687V0.376953H279.353V0.510315H281.087V0.643677H282.82V0.776978H284.687V0.910339H286.42V1.04364H287.753V1.177H289.087V1.3103H290.287V1.44366H291.62V1.57697H292.82V1.71033H294.153V1.84363H295.22V1.97699H296.153V2.11029H297.22V2.24365H298.153V2.37695H299.087V2.51031H300.153V2.64368H301.087V2.77698H302.02V2.91034H302.953V3.04364H303.753V3.177H304.553V3.3103H305.353V3.44366H306.153V3.57697H306.953V3.71033H307.753V3.84363H308.553V3.97699H309.353V4.11029H310.153V4.24365H310.82V4.37695H311.487V4.51031H312.153V4.64368H312.82V4.77698H313.487V4.91034H314.153V5.04364H314.82V5.177H315.487V5.3103H316.153V5.44366H316.82V5.57697H317.487V5.71033H318.153V5.84363H318.82V5.97699H319.487V6.11029H320.02V6.24365H320.553V6.37695H321.22V6.51031H321.753V6.64368H322.42V6.77698H322.953V6.91034H323.62V7.04364H324.153V7.177H324.687V7.3103H325.22V7.44366H325.753V7.57697H326.287V7.71033H326.82V7.84363H327.353V7.97699H328.02V8.11029H328.42V8.24365H328.953V8.37695H329.487V8.51031H330.02V8.64368H330.553V8.77698H330.953V8.91034H331.487V9.04364H332.02V9.177H332.553V9.3103H332.953V9.44366H333.487V9.57697H333.887V9.71033H334.42V9.84363H334.82V9.97699H335.353V10.1103H335.753V10.2437H336.287V10.377H336.687V10.5103H337.22V10.6437H337.62V10.777H338.153V10.9103H338.553V11.0436H339.087V11.177H339.487V11.3103H339.887V11.4437H340.42V11.577H340.82V11.7103H341.22V11.8436H341.62V11.977H342.02V12.1103H342.42V12.2437H342.953V12.377H343.353V12.5103H343.753V12.6437H344.153V12.777H344.553V12.9103H344.953V13.0436H345.487V13.177H345.887V13.3103H346.287V13.4437H346.687V13.577H347.087V13.7103H347.353V13.8436H347.753V13.977H348.153V14.1103H348.553V14.2437H348.953V14.377H349.353V14.5103H349.753V14.6436H350.153V14.777H350.553V14.9103H350.953V15.0436H351.353V15.177H351.62V15.3103H352.02V15.4436H352.42V15.577H352.82V15.7103H353.22V15.8437H353.487V15.977H353.887V16.1103H354.287V16.2437H354.553V16.377H354.953V16.5103H355.353V16.6436H355.62V16.777H356.02V16.9103H356.42V17.0436H356.82V17.177H357.087V17.3103H357.487V17.4436H357.887V17.577H358.153V17.7103H358.553V17.8437H358.953V17.977H359.22V18.1103H359.487V18.2437H359.887V18.377H360.153V18.5103H360.553V18.6436H360.82V18.777H361.22V18.9103H361.487V19.0436H361.887V19.177H362.153V19.3103H362.553V19.4436H362.82V19.577H363.22V19.7103H363.487V19.8437H363.887V19.977H364.153V20.1103H364.553V20.2437H364.82V20.377H365.22V20.5103H365.487V20.6436H365.753V20.777H366.153V20.9103H366.42V21.0436H366.687V21.177H367.087V21.3103H367.353V21.4436H367.62V21.577H368.02V21.7103H368.287V21.8437H368.553V21.977H368.953V22.1103H369.22V22.2437H369.487V22.377H369.887V22.5103H370.153V22.6436H370.42V22.777H370.687V22.9103H371.087V23.0436H371.353V23.177H371.62V23.3103H371.887V23.4436H372.153V23.577H372.553V23.7103H372.82V23.8437H373.087V23.977H373.353V24.1103H373.62V24.2437H373.887V24.377H374.287V24.5103H374.553V24.6436H374.82V24.777H375.087V24.9103H375.353V25.0436H375.62V25.177H376.02V25.3103H376.287V25.4436H376.553V25.577H376.82V25.7103H377.087V25.8437H377.353V25.977H377.62V26.1103H377.887V26.2437H378.153V26.377H378.42V26.5103H378.687V26.6436H378.953V26.777H379.22V26.9103H379.487V27.0436H379.753V27.177H380.153V27.3103H380.42V27.4436H380.687V27.577H380.953V27.7103H381.22V27.8437H381.487V27.977H381.753V28.1103H382.02V28.2437H382.287V28.377H382.553V28.5103H382.82V28.6436H383.087V28.777H383.353V28.9103H383.62V29.0436H383.753V29.177H384.02V29.3103H384.287V29.4436H384.553V29.577H384.82V29.7103H385.087V29.8437H385.353V29.977H385.62V30.1103H385.887V30.2437H386.153V30.377H386.42V30.5103H386.553V30.6436H386.82V30.777H387.087V30.9103H387.353V31.0436H387.62V31.177H387.887V31.3103H388.153V31.4436H388.42V31.577H388.687V31.7103H388.953V31.8437H389.087V31.977H389.353V32.1103H389.62V32.2437H389.887V32.377H390.153V32.5103H390.287V32.6436H390.553V32.777H390.82V32.9103H391.087V33.0436H391.353V33.177H391.487V33.3103H391.753V33.4436H392.02V33.577H392.287V33.7103H392.553V33.8437H392.687V33.977H392.953V34.1103H393.22V34.2437H393.487V34.377H393.753V34.5103H393.887V34.6436H394.153V34.777H394.42V34.9103H394.687V35.0436H394.82V35.177H395.087V35.3103H395.353V35.4436H395.487V35.577H395.753V35.7103H396.02V35.8437H396.153V35.977H396.42V36.1103H396.687V36.2437H396.953V36.377H397.087V36.5103H397.353V36.6436H397.62V36.777H397.753V36.9103H398.02V37.0436H398.287V37.177H398.42V37.3103H398.687V37.4436H398.953V37.577H399.22V37.7103H399.353V37.8437H399.62V37.977H399.887V38.1103H400.02V38.2437H400.287V38.377H400.42V38.5103H400.687V38.6436H400.953V38.777H401.087V38.9103H401.353V39.0436H401.487V39.177H401.753V39.3103H402.02V39.4436H402.153V39.577H402.42V39.7103H402.687V39.8437H402.82V39.977H403.087V40.1103H403.22V40.2437H403.487V40.377H403.753V40.5103H403.887V40.6436H404.153V40.777H404.287V40.9103H404.553V41.0436H404.82V41.177H404.953V41.3103H405.22V41.4436H405.353V41.577H405.62V41.7103H405.753V41.8437H406.02V41.977H406.153V42.1103H406.42V42.2437H406.553V42.377H406.82V42.5103H407.087V42.6436H407.22V42.777H407.487V42.9103H407.62V43.0436H407.887V43.177H408.02V43.3103H408.287V43.4436H408.42V43.577H408.687V43.7103H408.82V43.8437H409.087V43.977H409.22V44.1103H409.487V44.2437H409.62V44.377H409.887V44.5103H410.02V44.6436H410.287V44.777H410.42V44.9103H410.687V45.0436H410.82V45.177H411.087V45.3103H411.22V45.4436H411.487V45.577H411.62V45.7103H411.887V45.8437H412.02V45.977H412.153V46.1103H412.42V46.2437H412.553V46.377H412.82V46.5103H412.953V46.6436H413.22V46.777H413.353V46.9103H413.62V47.0436H413.753V47.177H413.887V47.3103H414.153V47.4436H414.287V47.577H414.553V47.7103H414.687V47.8437H414.953V47.977H415.087V48.1103H415.353V48.2437H415.487V48.377H415.62V48.5103H415.887V48.6436H416.02V48.777H416.287V48.9103H416.42V49.0436H416.553V49.177H416.82V49.3103H416.953V49.4436H417.22V49.577H417.353V49.7103H417.487V49.8437H417.753V49.977H417.887V50.1103H418.02V50.2437H418.287V50.377H418.42V50.5103H418.553V50.6436H418.82V50.777H418.953V50.9103H419.22V51.0436H419.353V51.177H419.487V51.3103H419.753V51.4436H419.887V51.577H420.02V51.7103H420.287V51.8437H420.42V51.977H420.687V52.1103H420.82V52.2437H420.953V52.377H421.22V52.5103H421.353V52.6436H421.487V52.777H421.753V52.9103H421.887V53.0436H422.02V53.177H422.153V53.3103H422.42V53.4436H422.553V53.577H422.687V53.7103H422.953V53.8437H423.087V53.977H423.22V54.1103H423.487V54.2437H423.62V54.377H423.753V54.5103H423.887V54.6436H424.153V54.777H424.287V54.9103H424.42V55.0436H424.687V55.177H424.82V55.3103H424.953V55.4436H425.22V55.577H425.353V55.7103H425.487V55.8437H425.62V55.977H425.887V56.1103H426.02V56.2437H426.153V56.377H426.42V56.5103H426.553V56.6436H426.687V56.777H426.82V56.9103H427.087V57.0436H427.22V57.177H427.353V57.3103H427.487V57.4436H427.753V57.577H427.887V57.7103H428.02V57.8437H428.153V57.977H428.287V58.1103H428.553V58.2437H428.687V58.377H428.82V58.5103H428.953V58.6436H429.22V58.777H429.353V58.9103H429.487V59.0436H429.62V59.177H429.887V59.3103H430.02V59.4436H430.153V59.577H430.287V59.7103H430.553V59.8437H430.687V59.977H430.82V60.1103H430.953V60.2437H431.22V60.377H431.353V60.5103H431.487V60.6436H431.62V60.777H431.753V60.9103H431.887V61.0436H432.153V61.177H432.287V61.3103H432.42V61.4436H432.553V61.577H432.687V61.7103H432.82V61.8437H433.087V61.977H433.22V62.1103H433.353V62.2437H433.487V62.377H433.62V62.5103H433.887V62.6436H434.02V62.777H434.153V62.9103H434.287V63.0436H434.42V63.177H434.553V63.3103H434.82V63.4436H434.953V63.577H435.087V63.7103H435.22V63.8437H435.353V63.977H435.62V64.1103H435.753V64.2437H435.887V64.377H436.02V64.5103H436.153V64.6436H436.287V64.777H436.42V64.9103H436.687V65.0436H436.82V65.177H436.953V65.3103H437.087V65.4436H437.22V65.577H437.353V65.7103H437.487V65.8436H437.62V65.977H437.887V66.1103H438.02V66.2437H438.153V66.377H438.287V66.5103H438.42V66.6436H438.553V66.777H438.687V66.9103H438.82V67.0436H438.953V67.177H439.22V67.3103H439.353V67.4436H439.487V67.577H439.62V67.7103H439.753V67.8436H439.887V67.977H440.02V68.1103H440.153V68.2437H440.42V68.377H440.553V68.5103H440.687V68.6436H440.82V68.777H440.953V68.9103H441.087V69.0436H441.22V69.177H441.353V69.3103H441.487V69.4436H441.62V69.577H441.753V69.7103H441.887V69.8436H442.153V69.977H442.287V70.1103H442.42V70.2437H442.553V70.377H442.687V70.5103H442.82V70.6436H442.953V70.777H443.087V70.9103H443.22V71.0436H443.353V71.177H443.487V71.3103H443.62V71.4436H443.753V71.577H443.887V71.7103H444.153V71.8436H444.287V71.977H444.42V72.1103H444.553V72.2437H444.687V72.377H444.82V72.5103H444.953V72.6436H445.087V72.777H445.22V72.9103H445.353V73.0436H445.487V73.177H445.62V73.3103H445.753V73.4436H445.887V73.577H446.02V73.7103H446.153V73.8436H446.287V73.977H446.42V74.1103H446.553V74.2437H446.687V74.377H446.82V74.5103H446.953V74.6436H447.087V74.777H447.22V74.9103H447.353V75.0436H447.487V75.177H447.62V75.3103H447.753V75.4436H447.887V75.577H448.153V75.7103H448.287V75.8436H448.42V75.977H448.553V76.1103H448.687V76.2437H448.82V76.377H448.953V76.5103H449.087V76.6436H449.22V76.777H449.353V76.9103H449.487V77.0436H449.62V77.177H449.753V77.3103H449.887V77.4436H450.02V77.577H450.153V77.7103H450.287V77.8436H450.42V77.977H450.553V78.1103H450.687V78.2437H450.82V78.377H450.953V78.5103H451.087V78.777H451.22V78.9103H451.353V79.0436H451.487V79.177H451.62V79.3103H451.753V79.4436H451.887V79.577H452.02V79.7103H452.153V79.8436H452.287V79.977H452.42V80.1103H452.553V80.2437H452.687V80.377H452.82V80.5103H452.953V80.6436H453.087V80.777H453.22V80.9103H453.353V81.0436H453.487V81.177H453.62V81.3103H453.753V81.4436H453.887V81.577H454.02V81.7103H454.153V81.8436H454.287V81.977H454.42V82.1103H454.553V82.2437H454.687V82.377H454.82V82.6436H454.953V82.777H455.087V82.9103H455.22V83.0436H455.353V83.177H455.487V83.3103H455.62V83.4436H455.753V83.577H455.887V83.7103H456.02V83.8436H456.153V83.977H456.287V84.1103H456.42V84.377H456.553V84.5103H456.687V84.6436H456.82V84.777H456.953V84.9103H457.087V85.0436H457.22V85.177H457.353V85.3103H457.487V85.4436H457.62V85.577H457.753V85.7103H457.887V85.8436H458.02V86.1103H458.153V86.2437H458.287V86.377H458.42V86.5103H458.553V86.6436H458.687V86.777H458.82V86.9103H458.953V87.0436H459.087V87.177H459.22V87.4436H459.353V87.577H459.487V87.7103H459.62V87.8436H459.753V87.977H459.887V88.1103H460.02V88.2437H460.153V88.377H460.287V88.6436H460.42V88.777H460.553V88.9103H460.687V89.0436H460.82V89.177H460.953V89.3103H461.087V89.4436H461.22V89.7103H461.353V89.8436H461.487V89.977H461.62V90.1103H461.753V90.2437H461.887V90.377H462.02V90.5103H462.153V90.6436H462.287V90.9103H462.42V91.0436H462.553V91.177H462.687V91.3103H462.82V91.4436H462.953V91.577H463.087V91.8436H463.22V91.977H463.353V92.1103H463.487V92.2437H463.62V92.377H463.753V92.6436H463.887V92.777H464.02V92.9103H464.153V93.0436H464.287V93.177H464.42V93.3103H464.553V93.577H464.687V93.7103H464.82V93.8436H464.953V93.977H465.087V94.1103H465.22V94.377H465.353V94.5103H465.487V94.6436H465.62V94.777H465.753V94.9103H465.887V95.177H466.02V95.3103H466.153V95.4436H466.287V95.577H466.42V95.7103H466.553V95.977H466.687V96.1103H466.82V96.2437H466.953V96.377H467.087V96.5103H467.22V96.777H467.353V96.9103H467.487V97.0436H467.62V97.177H467.753V97.4436H467.887V97.577H468.02V97.7103H468.153V97.8436H468.287V98.1103H468.42V98.2437H468.553V98.377H468.687V98.5103H468.82V98.777H468.953V98.9103H469.087V99.0436H469.22V99.177H469.353V99.4436H469.487V99.577H469.62V99.7103H469.753V99.8436H469.887V100.11H470.02V100.244H470.153V100.377H470.287V100.51H470.42V100.777H470.553V100.91H470.687V101.044H470.82V101.177H470.953V101.444H471.087V101.577H471.22V101.71H471.353V101.977H471.487V102.11H471.62V102.244H471.753V102.51H471.887V102.644H472.02V102.777H472.153V103.044H472.287V103.177H472.42V103.31H472.553V103.577H472.687V103.71H472.82V103.844H472.953V104.11H473.087V104.244H473.22V104.377H473.353V104.51H473.487V104.777H473.62V104.91H473.753V105.044H473.887V105.31H474.02V105.444H474.153V105.577H474.287V105.844H474.42V105.977H474.553V106.11H474.687V106.377H474.82V106.51H474.953V106.644H475.087V106.91H475.22V107.044H475.353V107.31H475.487V107.444H475.62V107.577H475.753V107.844H475.887V107.977H476.02V108.11H476.153V108.377H476.287V108.51H476.42V108.777H476.553V108.91H476.687V109.044H476.82V109.31H476.953V109.444H477.087V109.71H477.22V109.844H477.353V109.977H477.487V110.244H477.62V110.377H477.753V110.51H477.887V110.777H478.02V110.91H478.153V111.177H478.287V111.31H478.42V111.444H478.553V111.71H478.687V111.844H478.82V112.11H478.953V112.244H479.087V112.51H479.22V112.644H479.353V112.91H479.487V113.044H479.62V113.177H479.753V113.444H479.887V113.577H480.02V113.844H480.153V113.977H480.287V114.244H480.42V114.377H480.553V114.644H480.687V114.777H480.82V115.044H480.953V115.177H481.087V115.31H481.22V115.577H481.353V115.71H481.487V115.977H481.62V116.11H481.753V116.377H481.887V116.51H482.02V116.777H482.153V116.91H482.287V117.177H482.42V117.31H482.553V117.577H482.687V117.71H482.82V117.977H482.953V118.11H483.087V118.377H483.22V118.51H483.353V118.777H483.487V119.044H483.62V119.177H483.753V119.444H483.887V119.577H484.02V119.844H484.153V119.977H484.287V120.244H484.42V120.377H484.553V120.644H484.687V120.777H484.82V121.044H484.953V121.177H485.087V121.444H485.22V121.577H485.353V121.844H485.487V122.11H485.62V122.244H485.753V122.51H485.887V122.644H486.02V122.91H486.153V123.177H486.287V123.31H486.42V123.577H486.553V123.71H486.687V123.977H486.82V124.244H486.953V124.377H487.087V124.644H487.22V124.91H487.353V125.044H487.487V125.31H487.62V125.444H487.753V125.71H487.887V125.977H488.02V126.11H488.153V126.377H488.287V126.51H488.42V126.777H488.553V127.044H488.687V127.177H488.82V127.444H488.953V127.71H489.087V127.844H489.22V128.11H489.353V128.377H489.487V128.644H489.62V128.777H489.753V129.044H489.887V129.31H490.02V129.444H490.153V129.71H490.287V129.977H490.42V130.11H490.553V130.377H490.687V130.644H490.82V130.91H490.953V131.044H491.087V131.31H491.22V131.577H491.353V131.71H491.487V131.977H491.62V132.244H491.753V132.377H491.887V132.644H492.02V132.91H492.153V133.177H492.287V133.444H492.42V133.577H492.553V133.844H492.687V134.11H492.82V134.377H492.953V134.644H493.087V134.777H493.22V135.044H493.353V135.31H493.487V135.577H493.62V135.844H493.753V135.977H493.887V136.244H494.02V136.51H494.153V136.777H494.287V137.044H494.42V137.177H494.553V137.444H494.687V137.71H494.82V137.977H494.953V138.244H495.087V138.377H495.22V138.644H495.353V138.91H495.487V139.177H495.62V139.444H495.753V139.71H495.887V139.977H496.02V140.244H496.153V140.51H496.287V140.777H496.42V141.044H496.553V141.177H496.687V141.444H496.82V141.71H496.953V141.977H497.087V142.244H497.22V142.51H497.353V142.777H497.487V143.044H497.62V143.31H497.753V143.577H497.887V143.844H498.02V144.11H498.153V144.377H498.287V144.644H498.42V144.91H498.553V145.177H498.687V145.444H498.82V145.71H498.953V145.977H499.087V146.244H499.22V146.51H499.353V146.777H499.487V147.044H499.62V147.31H499.753V147.577H499.887V147.844H500.02V148.11H500.153V148.377H500.287V148.644H500.42V148.91H500.553V149.177H500.687V149.444H500.82V149.71H500.953V149.977H501.087V150.244H501.22V150.644H501.353V150.91H501.487V151.177H501.62V151.444H501.753V151.71H501.887V151.977H502.02V152.244H502.153V152.644H502.287V152.91H502.42V153.177H502.553V153.444H502.687V153.71H502.82V153.977H502.953V154.377H503.087V154.644H503.22V154.91H503.353V155.177H503.487V155.444H503.62V155.844H503.753V156.11H503.887V156.377H504.02V156.644H504.153V157.044H504.287V157.31H504.42V157.577H504.553V157.977H504.687V158.244H504.82V158.51H504.953V158.777H505.087V159.177H505.22V159.444H505.353V159.71H505.487V160.11H505.62V160.377H505.753V160.644H505.887V160.91H506.02V161.31H506.153V161.577H506.287V161.977H506.42V162.244H506.553V162.644H506.687V162.91H506.82V163.31H506.953V163.577H507.087V163.977H507.22V164.244H507.353V164.51H507.487V164.91H507.62V165.177H507.753V165.577H507.887V165.844H508.02V166.244H508.153V166.51H508.287V166.91H508.42V167.177H508.553V167.577H508.687V167.844H508.82V168.244H508.953V168.644H509.087V168.91H509.22V169.31H509.353V169.71H509.487V169.977H509.62V170.377H509.753V170.644H509.887V171.044H510.02V171.444H510.153V171.71H510.287V172.11H510.42V172.51H510.553V172.777H510.687V173.177H510.82V173.577H510.953V173.977H511.087V174.377H511.22V174.644H511.353V175.044H511.487V175.444H511.62V175.844H511.753V176.244H511.887V176.644H512.02V176.91H512.153V177.31H512.287V177.71H512.42V178.11H512.553V178.51H512.687V178.91H512.82V179.31H512.953V179.71H513.087V180.11H513.22V180.51H513.353V180.91H513.487V181.31H513.62V181.71H513.753V182.11H513.887V182.51H514.02V182.91H514.153V183.31H514.287V183.71H514.42V184.11H514.553V184.644H514.687V185.044H514.82V185.444H514.953V185.844H515.087V186.377H515.22V186.777H515.353V187.177H515.487V187.71H515.62V188.11H515.753V188.51H515.887V189.044H516.02V189.444H516.153V189.844H516.287V190.377H516.42V190.777H516.553V191.31H516.687V191.71H516.82V192.244H516.953V192.777H517.087V193.177H517.22V193.71H517.353V194.244H517.487V194.644H517.62V195.177H517.753V195.71H517.887V196.11H518.02V196.644H518.153V197.177H518.287V197.71H518.42V198.244H518.553V198.777H518.687V199.31H518.82V199.844H518.953V200.377H519.087V200.91H519.22V201.444H519.353V201.977H519.487V202.51H519.62V203.044H519.753V203.577H519.887V204.244H520.02V204.777H520.153V205.444H520.287V205.977H520.42V206.644H520.553V207.177H520.687V207.844H520.82V208.377H520.953V209.044H521.087V209.71H521.22V210.377H521.353V211.044H521.487V211.71H521.62V212.377H521.753V213.044H521.887V213.71H522.02V214.377H522.153V215.044H522.287V215.71H522.42V216.51H522.553V217.31H522.687V218.11H522.82V218.91H522.953V219.71H523.087V220.377H523.22V221.177H523.353V221.977H523.487V222.91H523.62V223.844H523.753V224.777H523.887V225.577H524.02V226.51H524.153V227.444H524.287V228.377H524.42V229.444H524.553V230.644H524.687V231.71H524.82V232.777H524.953V233.844H525.087V235.044H525.22V236.377H525.353V237.844H525.487V239.177H525.62V240.644H525.753V242.244H525.887V244.11H526.02V245.977H526.153V247.977H526.287V250.777H526.42V253.71H526.553V259.444H526.687V267.444H526.553V272.11H526.42V275.444H526.287V277.977H526.153V280.377H526.02V282.11H525.887V283.844H525.753V285.444H525.62V287.177H525.487V288.377H525.353V289.71H525.22V290.91H525.087V292.244H524.953V293.577H524.82V294.51H524.687V295.577H524.553V296.644H524.42V297.71H524.287V298.644H524.153V299.71H524.02V300.644H523.887V301.444H523.753V302.377H523.62V303.177H523.487V304.11H523.353V304.91H523.22V305.844H523.087V306.644H522.953V307.444H522.82V308.11H522.687V308.91H522.553V309.577H522.42V310.377H522.287V311.044H522.153V311.844H522.02V312.51H521.887V313.31H521.753V313.977H521.62V314.644H521.487V315.177H521.353V315.844H521.22V316.51H521.087V317.177H520.953V317.844H520.82V318.377H520.687V319.044H520.553V319.71H520.42V320.377H520.287V320.91H520.153V321.444H520.02V322.11H519.887V322.644H519.753V323.177H519.62V323.844H519.487V324.377H519.353V324.91H519.22V325.577H519.087V326.11H518.953V326.644H518.82V327.177H518.687V327.71H518.553V328.244H518.42V328.644H518.287V329.177H518.153V329.71H518.02V330.244H517.887V330.777H517.753V331.177H517.62V331.71H517.487V332.244H517.353V332.777H517.22V333.177H517.087V333.71H516.953V334.11H516.82V334.644H516.687V335.044H516.553V335.577H516.42V335.977H516.287V336.51H516.153V336.91H516.02V337.444H515.887V337.844H515.753V338.377H515.62V338.777H515.487V339.177H515.353V339.71H515.22V340.11H515.087V340.51H514.953V340.91H514.82V341.444H514.687V341.844H514.553V342.244H514.42V342.644H514.287V343.044H514.153V343.444H514.02V343.977H513.887V344.377H513.753V344.777H513.62V345.177H513.487V345.577H513.353V345.977H513.22V346.377H513.087V346.777H512.953V347.177H512.82V347.577H512.687V347.977H512.553V348.377H512.42V348.777H512.287V349.177H512.153V349.577H512.02V349.977H511.887V350.244H511.753V350.644H511.62V351.044H511.487V351.444H511.353V351.844H511.22V352.244H511.087V352.644H510.953V352.91H510.82V353.31H510.687V353.71H510.553V353.977H510.42V354.377H510.287V354.777H510.153V355.177H510.02V355.444H509.887V355.844H509.753V356.244H509.62V356.51H509.487V356.91H509.353V357.31H509.22V357.577H509.087V357.977H508.953V358.377H508.82V358.644H508.687V359.044H508.553V359.31H508.42V359.71H508.287V359.977H508.153V360.377H508.02V360.644H507.887V361.044H507.753V361.31H507.62V361.71H507.487V361.977H507.353V362.377H507.22V362.644H507.087V363.044H506.953V363.31H506.82V363.71H506.687V363.977H506.553V364.377H506.42V364.644H506.287V365.044H506.153V365.31H506.02V365.577H505.887V365.977H505.753V366.244H505.62V366.51H505.487V366.91H505.353V367.177H505.22V367.444H505.087V367.71H504.953V368.11H504.82V368.377H504.687V368.644H504.553V369.044H504.42V369.31H504.287V369.577H504.153V369.977H504.02V370.244H503.887V370.51H503.753V370.91H503.62V371.177H503.487V371.444H503.353V371.71H503.22V371.977H503.087V372.377H502.953V372.644H502.82V372.91H502.687V373.177H502.553V373.444H502.42V373.71H502.287V374.11H502.153V374.377H502.02V374.644H501.887V374.91H501.753V375.177H501.62V375.444H501.487V375.844H501.353V376.11H501.22V376.377H501.087V376.644H500.953V376.91H500.82V377.177H500.687V377.444H500.553V377.71H500.42V377.977H500.287V378.244H500.153V378.51H500.02V378.777H499.887V379.044H499.753V379.31H499.62V379.71H499.487V379.977H499.353V380.244H499.22V380.51H499.087V380.777H498.953V381.044H498.82V381.31H498.687V381.577H498.553V381.844H498.42V382.11H498.287V382.377H498.153V382.644H498.02V382.91H497.887V383.177H497.753V383.444H497.62V383.71H497.487V383.844H497.353V384.11H497.22V384.377H497.087V384.644H496.953V384.91H496.82V385.177H496.687V385.444H496.553V385.71H496.42V385.977H496.287V386.244H496.153V386.51H496.02V386.777H495.887V386.91H495.753V387.177H495.62V387.444H495.487V387.71H495.353V387.977H495.22V388.244H495.087V388.51H494.953V388.777H494.82V388.91H494.687V389.177H494.553V389.444H494.42V389.71H494.287V389.977H494.153V390.11H494.02V390.377H493.887V390.644H493.753V390.91H493.62V391.177H493.487V391.31H493.353V391.577H493.22V391.844H493.087V392.11H492.953V392.377H492.82V392.51H492.687V392.777H492.553V393.044H492.42V393.31H492.287V393.577H492.153V393.844H492.02V393.977H491.887V394.244H491.753V394.51H491.62V394.644H491.487V394.91H491.353V395.177H491.22V395.444H491.087V395.577H490.953V395.844H490.82V396.11H490.687V396.244H490.553V396.51H490.42V396.777H490.287V396.91H490.153V397.177H490.02V397.444H489.887V397.71H489.753V397.844H489.62V398.11H489.487V398.377H489.353V398.51H489.22V398.777H489.087V399.044H488.953V399.177H488.82V399.444H488.687V399.71H488.553V399.844H488.42V400.11H488.287V400.377H488.153V400.51H488.02V400.777H487.887V401.044H487.753V401.177H487.62V401.444H487.487V401.577H487.353V401.844H487.22V402.11H487.087V402.244H486.953V402.51H486.82V402.644H486.687V402.91H486.553V403.177H486.42V403.31H486.287V403.577H486.153V403.71H486.02V403.977H485.887V404.244H485.753V404.377H485.62V404.644H485.487V404.777H485.353V405.044H485.22V405.31H485.087V405.444H484.953V405.71H484.82V405.844H484.687V406.11H484.553V406.244H484.42V406.51H484.287V406.644H484.153V406.91H484.02V407.044H483.887V407.31H483.753V407.444H483.62V407.71H483.487V407.844H483.353V408.11H483.22V408.244H483.087V408.51H482.953V408.777H482.82V408.91H482.687V409.177H482.553V409.31H482.42V409.577H482.287V409.71H482.153V409.977H482.02V410.11H481.887V410.377H481.753V410.51H481.62V410.777H481.487V410.91H481.353V411.177H481.22V411.31H481.087V411.444H480.953V411.71H480.82V411.844H480.687V412.11H480.553V412.244H480.42V412.51H480.287V412.644H480.153V412.91H480.02V413.044H479.887V413.177H479.753V413.444H479.62V413.577H479.487V413.844H479.353V413.977H479.22V414.244H479.087V414.377H478.953V414.644H478.82V414.777H478.687V414.91H478.553V415.177H478.42V415.31H478.287V415.577H478.153V415.71H478.02V415.977H477.887V416.11H477.753V416.244H477.62V416.51H477.487V416.644H477.353V416.91H477.22V417.044H477.087V417.177H476.953V417.444H476.82V417.577H476.687V417.71H476.553V417.977H476.42V418.11H476.287V418.244H476.153V418.51H476.02V418.644H475.887V418.91H475.753V419.044H475.62V419.177H475.487V419.444H475.353V419.577H475.22V419.71H475.087V419.977H474.953V420.11H474.82V420.377H474.687V420.51H474.553V420.644H474.42V420.91H474.287V421.044H474.153V421.177H474.02V421.444H473.887V421.577H473.753V421.71H473.62V421.977H473.487V422.11H473.353V422.244H473.22V422.377H473.087V422.644H472.953V422.777H472.82V422.91H472.687V423.177H472.553V423.31H472.42V423.444H472.287V423.71H472.153V423.844H472.02V423.977H471.887V424.11H471.753V424.377H471.62V424.51H471.487V424.644H471.353V424.91H471.22V425.044H471.087V425.177H470.953V425.444H470.82V425.577H470.687V425.71H470.553V425.844H470.42V426.11H470.287V426.244H470.153V426.377H470.02V426.644H469.887V426.777H469.753V426.91H469.62V427.044H469.487V427.177H469.353V427.444H469.22V427.577H469.087V427.71H468.953V427.844H468.82V428.11H468.687V428.244H468.553V428.377H468.42V428.51H468.287V428.777H468.153V428.91H468.02V429.044H467.887V429.177H467.753V429.444H467.62V429.577H467.487V429.71H467.353V429.844H467.22V430.11H467.087V430.244H466.953V430.377H466.82V430.51H466.687V430.644H466.553V430.91H466.42V431.044H466.287V431.177H466.153V431.31H466.02V431.577H465.887V431.71H465.753V431.844H465.62V431.977H465.487V432.11H465.353V432.244H465.22V432.51H465.087V432.644H464.953V432.777H464.82V432.91H464.687V433.044H464.553V433.177H464.42V433.444H464.287V433.577H464.153V433.71H464.02V433.844H463.887V433.977H463.753V434.244H463.62V434.377H463.487V434.51H463.353V434.644H463.22V434.777H463.087V434.91H462.953V435.177H462.82V435.31H462.687V435.444H462.553V435.577H462.42V435.71H462.287V435.977H462.153V436.11H462.02V436.244H461.887V436.377H461.753V436.51H461.62V436.644H461.487V436.777H461.353V436.91H461.22V437.177H461.087V437.31H460.953V437.444H460.82V437.577H460.687V437.71H460.553V437.844H460.42V437.977H460.287V438.11H460.153V438.377H460.02V438.51H459.887V438.644H459.753V438.777H459.62V438.91H459.487V439.044H459.353V439.177H459.22V439.31H459.087V439.444H458.953V439.71H458.82V439.844H458.687V439.977H458.553V440.11H458.42V440.244H458.287V440.377H458.153V440.51H458.02V440.644H457.887V440.91H457.753V441.044H457.62V441.177H457.487V441.31H457.353V441.444H457.22V441.577H457.087V441.71H456.953V441.844H456.82V441.977H456.687V442.11H456.553V442.244H456.42V442.377H456.287V442.51H456.153V442.644H456.02V442.777H455.887V443.044H455.753V443.177H455.62V443.31H455.487V443.444H455.353V443.577H455.22V443.71H455.087V443.844H454.953V443.977H454.82V444.11H454.687V444.244H454.553V444.377H454.42V444.51H454.287V444.644H454.153V444.777H454.02V445.044H453.887V445.177H453.753V445.31H453.62V445.444H453.487V445.577H453.353V445.71H453.22V445.844H453.087V445.977H452.953V446.11H452.82V446.244H452.687V446.377H452.553V446.51H452.42V446.644H452.287V446.777H452.153V446.91H452.02V447.044H451.887V447.177H451.753V447.31H451.62V447.444H451.487V447.577H451.353V447.71H451.22V447.844H451.087V447.977H450.953V448.11H450.82V448.244H450.687V448.377H450.553V448.51H450.42V448.644H450.287V448.777H450.153V448.91H450.02V449.044H449.887V449.177H449.753V449.31H449.62V449.444H449.487V449.577H449.353V449.71H449.22V449.844H449.087V449.977H448.953V450.11H448.82V450.244H448.687V450.377H448.553V450.51H448.42V450.644H448.287V450.777H448.153V450.91H448.02V451.044H447.887V451.177H447.753V451.31H447.62V451.444H447.487V451.577H447.353V451.71H447.22V451.844H447.087V451.977H446.953V452.11H446.82V452.244H446.687V452.377H446.553V452.51H446.42V452.644H446.287V452.777H446.153V452.91H446.02V453.044H445.887V453.177H445.753V453.31H445.62V453.444H445.353V453.577H445.22V453.71H445.087V453.844H444.953V453.977H444.82V454.11H444.687V454.244H444.553V454.377H444.42V454.51H444.287V454.644H444.153V454.777H444.02V454.91H443.887V455.044H443.753V455.177H443.62V455.31H443.487V455.444H443.353V455.577H443.22V455.71H442.953V455.844H442.82V455.977H442.687V456.11H442.553V456.244H442.42V456.377H442.287V456.51H442.153V456.644H442.02V456.777H441.887V456.91H441.753V457.044H441.62V457.177H441.487V457.31H441.22V457.444H441.087V457.577H440.953V457.71H440.82V457.844H440.687V457.977H440.553V458.11H440.42V458.244H440.287V458.377H440.153V458.51H440.02V458.644H439.887V458.777H439.62V458.91H439.487V459.044H439.353V459.177H439.22V459.31H439.087V459.444H438.953V459.577H438.82V459.71H438.687V459.844H438.42V459.977H438.287V460.11H438.153V460.244H438.02V460.377H437.887V460.51H437.753V460.644H437.62V460.777H437.353V460.91H437.22V461.044H437.087V461.177H436.953V461.31H436.82V461.444H436.687V461.577H436.553V461.71H436.287V461.844H436.153V461.977H436.02V462.11H435.887V462.244H435.753V462.377H435.62V462.51H435.487V462.644H435.353V462.777H435.087V462.91H434.953V463.044H434.82V463.177H434.687V463.31H434.553V463.444H434.287V463.577H434.153V463.71H434.02V463.844H433.887V463.977H433.753V464.11H433.487V464.244H433.353V464.377H433.22V464.51H433.087V464.644H432.953V464.777H432.82V464.91H432.553V465.044H432.42V465.177H432.287V465.31H432.153V465.444H432.02V465.577H431.753V465.71H431.62V465.844H431.487V465.977H431.353V466.11H431.22V466.244H430.953V466.377H430.82V466.51H430.687V466.644H430.553V466.777H430.42V466.91H430.153V467.044H430.02V467.177H429.887V467.31H429.753V467.444H429.487V467.577H429.353V467.71H429.22V467.844H429.087V467.977H428.82V468.11H428.687V468.244H428.553V468.377H428.42V468.51H428.153V468.644H428.02V468.777H427.887V468.91H427.753V469.044H427.487V469.177H427.353V469.31H427.22V469.444H427.087V469.577H426.82V469.71H426.687V469.844H426.553V469.977H426.42V470.11H426.153V470.244H426.02V470.377H425.887V470.51H425.753V470.644H425.487V470.777H425.353V470.91H425.22V471.044H424.953V471.177H424.82V471.31H424.687V471.444H424.553V471.577H424.287V471.71H424.153V471.844H424.02V471.977H423.753V472.11H423.62V472.244H423.487V472.377H423.22V472.51H423.087V472.644H422.953V472.777H422.687V472.91H422.553V473.044H422.42V473.177H422.153V473.31H422.02V473.444H421.887V473.577H421.753V473.71H421.487V473.844H421.353V473.977H421.22V474.11H420.953V474.244H420.82V474.377H420.687V474.51H420.42V474.644H420.287V474.777H420.153V474.91H419.887V475.044H419.753V475.177H419.487V475.31H419.353V475.444H419.22V475.577H418.953V475.71H418.82V475.844H418.687V475.977H418.42V476.11H418.287V476.244H418.02V476.377H417.887V476.51H417.753V476.644H417.487V476.777H417.353V476.91H417.087V477.044H416.953V477.177H416.82V477.31H416.553V477.444H416.42V477.577H416.287V477.71H416.02V477.844H415.887V477.977H415.62V478.11H415.487V478.244H415.353V478.377H415.087V478.51H414.953V478.644H414.687V478.777H414.553V478.91H414.287V479.044H414.153V479.177H414.02V479.31H413.753V479.444H413.62V479.577H413.353V479.71H413.22V479.844H412.953V479.977H412.82V480.11H412.553V480.244H412.42V480.377H412.153V480.51H412.02V480.644H411.887V480.777H411.62V480.91H411.487V481.044H411.22V481.177H411.087V481.31H410.82V481.444H410.687V481.577H410.42V481.71H410.287V481.844H410.02V481.977H409.887V482.11H409.62V482.244H409.487V482.377H409.22V482.51H409.087V482.644H408.82V482.777H408.687V482.91H408.42V483.044H408.287V483.177H408.02V483.31H407.887V483.444H407.62V483.577H407.487V483.71H407.22V483.844H406.953V483.977H406.82V484.11H406.553V484.244H406.42V484.377H406.153V484.51H406.02V484.644H405.753V484.777H405.62V484.91H405.353V485.044H405.22V485.177H404.953V485.31H404.82V485.444H404.553V485.577H404.287V485.71H404.153V485.844H403.887V485.977H403.753V486.11H403.487V486.244H403.22V486.377H403.087V486.51H402.82V486.644H402.687V486.777H402.42V486.91H402.153V487.044H402.02V487.177H401.753V487.31H401.487V487.444H401.353V487.577H401.087V487.71H400.953V487.844H400.687V487.977H400.42V488.11H400.287V488.244H400.02V488.377H399.887V488.51H399.62V488.644H399.353V488.777H399.22V488.91H398.953V489.044H398.687V489.177H398.553V489.31H398.287V489.444H398.02V489.577H397.753V489.71H397.62V489.844H397.353V489.977H397.087V490.11H396.953V490.244H396.687V490.377H396.42V490.51H396.287V490.644H396.02V490.777H395.753V490.91H395.487V491.044H395.353V491.177H395.087V491.31H394.82V491.444H394.687V491.577H394.42V491.71H394.153V491.844H393.887V491.977H393.753V492.11H393.487V492.244H393.22V492.377H392.953V492.51H392.82V492.644H392.553V492.777H392.287V492.91H392.02V493.044H391.753V493.177H391.487V493.31H391.353V493.444H391.087V493.577H390.82V493.71H390.553V493.844H390.287V493.977H390.153V494.11H389.887V494.244H389.62V494.377H389.353V494.51H389.087V494.644H388.953V494.777H388.687V494.91H388.42V495.044H388.153V495.177H387.887V495.31H387.62V495.444H387.353V495.577H387.22V495.71H386.953V495.844H386.687V495.977H386.42V496.11H386.153V496.244H385.887V496.377H385.62V496.51H385.353V496.644H385.087V496.777H384.82V496.91H384.687V497.044H384.42V497.177H384.153V497.31H383.887V497.444H383.62V497.577H383.353V497.71H383.087V497.844H382.82V497.977H382.553V498.11H382.287V498.244H382.02V498.377H381.753V498.51H381.487V498.644H381.22V498.777H380.953V498.91H380.687V499.044H380.42V499.177H380.153V499.31H379.887V499.444H379.62V499.577H379.353V499.71H379.087V499.844H378.82V499.977H378.553V500.11H378.287V500.244H378.02V500.377H377.753V500.51H377.487V500.644H377.22V500.777H376.953V500.91H376.687V501.044H376.287V501.177H376.02V501.31H375.753V501.444H375.487V501.577H375.22V501.71H374.953V501.844H374.553V501.977H374.287V502.11H374.02V502.244H373.753V502.377H373.487V502.51H373.22V502.644H372.953V502.777H372.553V502.91H372.287V503.044H372.02V503.177H371.753V503.31H371.487V503.444H371.22V503.577H370.82V503.71H370.553V503.844H370.287V503.977H369.887V504.11H369.62V504.244H369.353V504.377H368.953V504.51H368.687V504.644H368.42V504.777H368.153V504.91H367.753V505.044H367.487V505.177H367.22V505.31H366.82V505.444H366.553V505.577H366.287V505.71H366.02V505.844H365.62V505.977H365.353V506.11H364.953V506.244H364.687V506.377H364.42V506.51H364.02V506.644H363.753V506.777H363.353V506.91H363.087V507.044H362.687V507.177H362.42V507.31H362.02V507.444H361.753V507.577H361.353V507.71H361.087V507.844H360.82V507.977H360.42V508.11H360.153V508.244H359.753V508.377H359.487V508.51H359.087V508.644H358.687V508.777H358.42V508.91H358.02V509.044H357.62V509.177H357.353V509.31H356.953V509.444H356.687V509.577H356.287V509.71H355.887V509.844H355.62V509.977H355.22V510.11H354.82V510.244H354.553V510.377H354.153V510.51H353.887V510.644H353.487V510.777H353.087V510.91H352.687V511.044H352.287V511.177H351.887V511.31H351.62V511.444H351.22V511.577H350.82V511.71H350.42V511.844H350.02V511.977H349.62V512.11H349.353V512.244H348.953V512.377H348.553V512.51H348.153V512.644H347.753V512.777H347.353V512.91H346.953V513.044H346.553V513.177H346.153V513.31H345.753V513.444H345.353V513.577H344.953V513.71H344.553V513.844H344.153V513.977H343.753V514.11H343.353V514.244H342.82V514.377H342.42V514.51H342.02V514.644H341.62V514.777H341.22V514.91H340.82V515.044H340.287V515.177H339.887V515.31H339.487V515.444H338.953V515.577H338.553V515.71H338.153V515.844H337.62V515.977H337.22V516.11H336.82V516.244H336.287V516.377H335.887V516.51H335.353V516.644H334.953V516.777H334.42V516.91H333.887V517.044H333.487V517.177H332.953V517.31H332.42V517.444H332.02V517.577H331.487V517.71H330.953V517.844H330.553V517.977H330.02V518.11H329.487V518.244H328.953V518.377H328.42V518.51H327.887V518.644H327.353V518.777H326.82V518.91H326.287V519.044H325.753V519.177H325.22V519.31H324.687V519.444H324.153V519.577H323.62V519.71H323.087V519.844H322.42V519.977H321.887V520.11H321.22V520.244H320.687V520.377H320.02V520.51H319.487V520.644H318.82V520.777H318.287V520.91H317.62V521.044H317.087V521.177H316.42V521.31H315.62V521.444H314.953V521.577H314.287V521.71H313.62V521.844H312.953V521.977H312.287V522.11H311.62V522.244H310.953V522.377H310.153V522.51H309.353V522.644H308.553V522.777H307.887V522.91H307.087V523.044H306.287V523.177H305.487V523.31H304.687V523.444H303.887V523.577H302.953V523.71H302.02V523.844H301.087V523.977H300.153V524.11H299.22V524.244H298.42V524.377H297.353V524.51H296.153V524.644H295.087V524.777H294.02V524.91H292.953V525.044H291.753V525.177H290.42V525.31H288.953V525.444H287.62V525.577H286.287V525.71H284.687V525.844H282.82V525.977H280.953V526.11H279.087V526.244H276.287V526.377H273.353V526.51H268.153V526.644" fill="url(#paint0_radial_294_3)"/>
</g>
</g>
<path d="M7.77863 200.043C42.6986 58.8833 185.432 -27.1567 326.539 7.77667C467.685 42.6833 553.739 185.39 518.819 326.523C483.899 467.643 341.192 553.737 200.059 518.803C58.9255 483.883 -27.168 341.177 7.77863 200.043Z" fill="#263A73"/>
<path d="M450.033 77.6834L344.179 148.257V12.8032C338.392 10.9366 332.526 9.25665 326.539 7.77667C276.872 -4.51666 227.019 -1.81006 181.726 12.9899V148.27L76.2859 77.99C52.1393 102.31 32.526 131.59 19.1927 164.75L47.1125 183.363H12.5125C10.7792 188.843 9.17915 194.39 7.77915 200.043C-4.60752 250.057 -1.76752 300.27 13.3125 345.817H47.8057L20.1791 364.23C33.5791 396.43 53.2727 425.777 78.126 450.417L181.726 381.363V513.55C187.726 515.497 193.833 517.257 200.059 518.79C249.473 531.03 299.072 528.403 344.179 513.803V381.363L448.193 450.697C472.619 426.63 492.579 397.59 506.286 364.617L478.086 345.817H513.259C515.339 339.51 517.193 333.07 518.819 326.523C530.953 277.457 528.472 228.217 514.139 183.363H478.793L507.259 164.39C494.126 132.07 474.686 102.537 450.033 77.6834Z" fill="#F1EEE7"/>
<path d="M386.458 345.817L482.245 409.523C488.805 399.697 494.738 389.363 499.992 378.563L450.738 345.817H386.458ZM522.525 217.203H310.351V4.31006C278.178 -1.56995 246.152 -1.30316 215.551 4.35016V217.203H4.15151C-1.60849 249.363 -1.22182 281.377 4.55151 311.95H215.551V522.137C247.712 528.097 279.738 527.91 310.351 522.337V311.95H521.978C528.058 279.817 527.978 247.803 522.525 217.203ZM44.2182 409.203C50.7915 419.097 58.058 428.55 65.938 437.497L181.725 360.497V345.817H139.525L44.2182 409.203ZM482.698 117.843C476.138 107.923 468.885 98.4568 461.018 89.4835L344.178 167.19V183.363H384.192L482.698 117.843ZM141.232 183.363L43.4848 118.35C36.9915 128.217 31.0981 138.577 25.9114 149.43L76.938 183.363H141.232Z" fill="#EE2A25"/>
<defs>
<radialGradient id="paint0_radial_294_3" cx="0" cy="0" r="1" gradientUnits="userSpaceOnUse" gradientTransform="translate(263.287 263.284) scale(263.296 263.296)">
<stop stop-color="white"/>
<stop offset="0.780899" stop-color="white"/>
<stop offset="1" stop-color="#B5A79A"/>
</radialGradient>
</defs>
</svg>
