<svg width="528" height="528" viewBox="0 0 528 528" fill="none" xmlns="http://www.w3.org/2000/svg">
<path d="M7.79723 200.47C42.7839 59.0167 185.811 -27.21 327.224 7.79004C468.664 42.7767 554.891 185.777 519.904 327.203C484.904 468.63 341.904 554.897 200.464 519.883C59.0507 484.897 -27.2294 341.883 7.79723 200.47Z" fill="#4FBE37"/>
<path d="M18.3027 264.897L261.889 420.457L505.476 264.897L261.889 109.35L18.3027 264.897Z" fill="#FCD008"/>
<path d="M261.89 160.564C319.477 160.564 366.197 207.284 366.197 264.897C366.197 322.537 319.477 369.244 261.89 369.244C204.237 369.244 157.53 322.537 157.53 264.897C157.53 207.284 204.237 160.564 261.89 160.564Z" fill="#2E3192"/>
<path d="M365.69 275.39C320.05 238.977 261.743 218.003 198.823 220.257C187.69 220.617 176.743 221.817 166.036 223.603C163.796 228.763 161.983 234.163 160.623 239.71C173.17 237.19 186.09 235.603 199.356 235.137C261.436 232.937 318.823 254.697 362.623 292.083C364.076 286.697 365.116 281.11 365.69 275.39Z" fill="white"/>
<path d="M169.037 230.537L169.131 227.883L169.837 226.377L171.037 225.27L173.17 224.55L176.917 225.43L178.824 229.07L178.024 233.097L174.69 234.99L170.917 234.123L169.037 230.537ZM171.117 230.177L172.277 232.643L174.424 233.243L176.29 232.097L176.69 229.337L175.557 226.857L173.411 226.31L171.504 227.457L171.117 230.177Z" fill="#2EA04C"/>
<path d="M183.41 233.697L182.517 223.537L186.797 223.15L189.237 223.217L190.49 224.083L191.09 225.657L190.583 227.59L188.637 228.71L189.837 229.457L191.117 231.003L192.543 232.883L190.103 233.097L188.41 231.03L187.223 229.643L186.557 229.257L185.49 229.243L185.077 229.283L185.463 233.523L183.41 233.697ZM184.957 227.643L186.437 227.51L188.29 227.23L188.823 226.737L188.97 225.963L188.637 225.15L187.81 224.83L186.29 224.937L184.717 225.07L184.957 227.643Z" fill="#2EA04C"/>
<path d="M195.757 222.47L199.53 222.377L201.464 222.497L203.024 223.404L204.05 225.03L204.437 227.444L204.17 229.617L203.157 231.444L201.73 232.284L199.89 232.564L196.024 232.67L195.757 222.47ZM197.864 224.137L198.05 230.897L199.597 230.844L200.837 230.724L201.65 230.27L202.144 229.257L202.33 227.39L202.064 225.59L201.437 224.604L200.477 224.164L198.797 224.124L197.864 224.137Z" fill="#2EA04C"/>
<path d="M208.57 232.377L208.69 222.177L216.277 222.297L216.25 224.017L210.744 223.923L210.717 226.203L215.837 226.27L215.81 228.003L210.69 227.91L210.624 230.71L216.344 230.777L216.317 232.497L208.57 232.377Z" fill="#2EA04C"/>
<path d="M220.424 232.644L221.131 222.47L224.197 222.67L225.57 229.764L227.85 222.95L230.944 223.15L230.237 233.324L228.331 233.217L228.89 225.19L226.304 233.057L224.344 232.924L222.89 224.764L222.331 232.764L220.424 232.644Z" fill="#2EA04C"/>
<path d="M240.797 234.55L242.317 224.47L249.81 225.603L249.543 227.323L244.103 226.483L243.743 228.723L248.823 229.483L248.557 231.177L243.503 230.417L243.09 233.163L248.73 234.017L248.477 235.723L240.797 234.55Z" fill="#2EA04C"/>
<path d="M258.49 237.643L260.81 227.71L264.037 228.443L266.383 229.137L267.597 230.443L267.717 232.51L267.037 233.99L265.97 234.777L264.797 234.99L262.69 234.657L261.383 234.35L260.517 238.123L258.49 237.643ZM262.424 229.843L261.77 232.67L262.864 232.923L264.504 233.15L265.25 232.79L265.637 232.083L265.517 231.097L264.797 230.47L263.41 230.07L262.424 229.843Z" fill="#2EA04C"/>
<path d="M270.104 240.417L272.89 230.603L277.064 231.803L279.264 232.737L280.157 234.003V235.67L278.97 237.31L276.757 237.643L277.597 238.777L278.25 240.71L278.93 242.963L276.557 242.283L275.717 239.723L275.104 237.99L274.624 237.403L273.637 237.017L273.25 236.897L272.09 241.003L270.104 240.417ZM273.704 235.35L275.157 235.763L276.97 236.137L277.664 235.91L278.077 235.203L278.01 234.337L277.383 233.737L275.93 233.283L274.45 232.857L273.704 235.35Z" fill="#2EA04C"/>
<path d="M283.37 239.07L284.65 236.75L285.983 235.737L287.53 235.31L289.77 235.643L292.703 238.15V242.27L290.183 245.483L286.344 245.617L283.37 243.15V239.07ZM285.383 239.71L285.264 242.457L286.903 243.977L289.077 243.777L290.717 241.537L290.864 238.803L289.197 237.31L286.997 237.457L285.383 239.71Z" fill="#2EA04C"/>
<path d="M300.556 246.83L301.223 245.243L305.33 246.923L303.796 250.67L301.636 251.003L299.169 250.497L296.81 248.817L295.916 246.35L296.396 243.59L298.089 241.243L300.623 240.23L303.063 240.71L305.503 242.563L305.916 245.123L303.889 244.697L303.596 243.283L302.41 242.31L300.089 242.283L298.356 244.337L298.089 247.163L299.703 248.817L301.01 249.07L302.263 248.937L302.769 247.723L300.556 246.83Z" fill="#2EA04C"/>
<path d="M307.17 253.737L311.543 244.523L315.437 246.39L317.463 247.67L318.143 249.057L317.81 250.697L316.423 252.137L314.183 252.097L314.81 253.337L315.17 255.35L315.437 257.683L313.21 256.617L312.823 253.977L312.49 252.15L312.103 251.497L311.21 250.95L310.863 250.777L309.01 254.63L307.17 253.737ZM311.543 249.283L312.943 249.963L314.637 250.643L315.357 250.497L315.85 249.897L315.97 249.03L315.437 248.337L314.13 247.67L312.637 246.963L311.543 249.283Z" fill="#2EA04C"/>
<path d="M318.41 259.23L323.29 250.257L329.93 253.87L329.117 255.377L324.237 252.75L323.17 254.764L327.69 257.19L326.864 258.697L322.37 256.27L321.064 258.697L326.064 261.417L325.25 262.937L318.41 259.23Z" fill="#2EA04C"/>
<path d="M330.01 261.83L331.837 262.697L331.677 264.363L332.69 265.537L334.21 265.95L335.157 265.377L335.304 264.723L334.89 263.977L333.704 262.737L332.25 260.67L332.517 258.443L333.637 257.39L335.25 257.19L337.157 257.923L339.183 260.137L338.917 262.603L337.104 261.603L337.21 260.337L336.264 259.363L334.864 258.937L334.264 259.337L334.21 260.017L335.49 261.563L336.983 263.35L337.383 264.83L336.917 266.43L335.664 267.603L333.877 267.843L331.797 267.003L329.717 264.697L330.01 261.83Z" fill="#2EA04C"/>
<path d="M340.223 268.137L342.01 269.097L341.77 270.723L342.743 271.963L344.237 272.457L345.183 271.91L345.357 271.31L345.01 270.51L343.877 269.217L342.503 267.083L342.89 264.87L344.077 263.883L345.717 263.75L347.57 264.59L349.464 266.91L349.09 269.337L347.33 268.27L347.477 267.003L346.623 266.003L345.25 265.523L344.583 265.83L344.503 266.537L345.703 268.15L347.117 269.99L347.477 271.497L346.917 273.07L345.57 274.163L343.823 274.337L341.77 273.39L339.797 270.99L340.223 268.137Z" fill="#2EA04C"/>
<path d="M351.223 273.577L353.183 271.803L354.77 271.243L356.37 271.31L358.396 272.31L360.423 275.603L359.143 279.537L355.743 281.79L352.023 280.75L350.01 277.443L351.223 273.577ZM352.956 274.817L352.023 277.417L353.103 279.337L355.236 279.857L357.503 278.203L358.45 275.657L357.33 273.75L355.183 273.19L352.956 274.817Z" fill="#2EA04C"/>
<path d="M294.997 225.297L295.983 228.243H299.077L296.57 230.07L297.53 233.003L294.997 231.203L292.503 233.003L293.477 230.07L290.983 228.243H294.077L294.997 225.297Z" fill="white"/>
<path d="M262.303 309.577L263.25 312.523H266.343L263.85 314.337L264.797 317.297L262.303 315.47L259.81 317.297L260.757 314.337L258.25 312.523H261.357L262.303 309.577Z" fill="white"/>
<path d="M336.357 299.203L337.33 302.23H340.49L337.93 304.07L338.903 307.07L336.357 305.217L333.823 307.07L334.77 304.07L332.25 302.23H335.37L336.357 299.203Z" fill="white"/>
<path d="M350.957 301.71L351.584 303.617H353.61L351.97 304.803L352.597 306.723L350.957 305.563L349.357 306.723L349.944 304.803L348.344 303.617H350.357L350.957 301.71Z" fill="white"/>
<path d="M340.57 309.164L341.436 311.764H344.183L341.943 313.377L342.81 315.977L340.57 314.364L338.37 315.977L339.236 313.377L337.01 311.764H339.743L340.57 309.164Z" fill="white"/>
<path d="M334.063 317.777L334.89 320.337H337.57L335.437 321.923L336.263 324.483L334.063 322.897L331.917 324.483L332.757 321.923L330.557 320.337H333.25L334.063 317.777Z" fill="white"/>
<path d="M325.703 324.03L326.357 325.99H328.41L326.744 327.217L327.397 329.19L325.703 327.95L324.037 329.19L324.664 327.217L322.983 325.99H325.077L325.703 324.03Z" fill="white"/>
<path d="M314.73 321.923L315.383 323.857H317.396L315.769 325.043L316.383 327.016L314.73 325.803L313.089 327.016L313.716 325.043L312.076 323.857H314.13L314.73 321.923Z" fill="white"/>
<path d="M302.917 325.497L303.597 327.603H305.797L304.01 328.897L304.703 331.003L302.917 329.697L301.13 331.003L301.81 328.897L300.023 327.603H302.223L302.917 325.497Z" fill="white"/>
<path d="M314.93 342.724L315.557 344.71H317.637L315.97 345.924L316.624 347.897L314.93 346.67L313.237 347.897L313.89 345.924L312.224 344.71H314.277L314.93 342.724Z" fill="white"/>
<path d="M293.637 333.644L294.49 336.324H297.317L295.023 337.99L295.917 340.67L293.637 339.004L291.343 340.67L292.237 337.99L289.943 336.324H292.77L293.637 333.644Z" fill="white"/>
<path d="M285.45 322.75L286.131 324.803H288.304L286.544 326.057L287.237 328.123L285.45 326.87L283.717 328.123L284.37 326.057L282.65 324.803H284.797L285.45 322.75Z" fill="white"/>
<path d="M315.263 331.296L316.116 333.896H318.863L316.623 335.51L317.463 338.11L315.263 336.496L313.049 338.11L313.889 335.51L311.689 333.896H314.423L315.263 331.296Z" fill="white"/>
<path d="M262.183 348.057L262.477 349.017H263.463L262.663 349.59L262.957 350.51L262.183 349.95L261.383 350.51L261.677 349.59L260.903 349.017H261.89L262.183 348.057Z" fill="white"/>
<path d="M289.85 257.044L290.57 259.177H292.797L290.983 260.484L291.703 262.63L289.85 261.324L288.063 262.63L288.743 260.484L286.943 259.177H289.17L289.85 257.044Z" fill="white"/>
<path d="M262.236 280.03L262.983 282.297H265.37L263.436 283.683L264.183 285.95L262.236 284.523L260.343 285.95L261.09 283.683L259.156 282.297H261.53L262.236 280.03Z" fill="white"/>
<path d="M274.503 289.523L275.277 291.937H277.837L275.783 293.417L276.583 295.83L274.503 294.35L272.45 295.83L273.25 293.417L271.17 291.937H273.73L274.503 289.523Z" fill="white"/>
<path d="M251.65 289.857L252.25 291.763H254.276L252.636 292.923L253.263 294.857L251.65 293.657L250.023 294.857L250.636 292.923L249.01 291.763H250.996L251.65 289.857Z" fill="white"/>
<path d="M256.717 298.443L257.13 299.723H258.464L257.37 300.51L257.783 301.763L256.717 300.976L255.637 301.763L256.05 300.51L254.983 299.723H256.29L256.717 298.443Z" fill="white"/>
<path d="M175.676 243.47L176.623 246.43H179.716L177.223 248.23L178.17 251.19L175.676 249.363L173.17 251.19L174.13 248.23L171.623 246.43H174.716L175.676 243.47Z" fill="white"/>
<path d="M221.317 267.15L222.077 269.577H224.637L222.583 271.083L223.397 273.523L221.317 272.017L219.224 273.523L220.064 271.083L217.983 269.577H220.544L221.317 267.15Z" fill="white"/>
<path d="M185.13 287.79L186.09 290.75H189.183L186.677 292.59L187.637 295.537L185.13 293.697L182.61 295.537L183.557 292.59L181.063 290.75H184.157L185.13 287.79Z" fill="white"/>
<path d="M195.37 283.377L195.85 284.87H197.384L196.144 285.777L196.61 287.244L195.37 286.35L194.117 287.244L194.597 285.777L193.344 284.87H194.89L195.37 283.377Z" fill="white"/>
<path d="M207.263 298.897L208.077 301.417H210.717L208.57 302.963L209.383 305.47L207.263 303.91L205.103 305.47L205.93 302.963L203.783 301.417H206.437L207.263 298.897Z" fill="white"/>
<path d="M219.676 318.297L220.623 321.23H223.716L221.223 323.057L222.17 325.99L219.676 324.19L217.17 325.99L218.13 323.057L215.623 321.23H218.716L219.676 318.297Z" fill="white"/>
<path d="M203.824 309.43L204.65 311.923H207.264L205.157 313.497L205.957 315.99L203.824 314.443L201.703 315.99L202.503 313.497L200.37 311.923H203.01L203.824 309.43Z" fill="white"/>
<path d="M172.05 298.51L172.664 300.457H174.717L173.05 301.67L173.704 303.617L172.05 302.43L170.384 303.617L170.997 301.67L169.344 300.457H171.384L172.05 298.51Z" fill="white"/>
<path d="M276.97 236.137L275.157 235.763L273.704 235.35L274.45 232.857L275.93 233.283L277.383 233.737L278.01 234.337L278.077 235.203L277.664 235.91L276.97 236.137ZM272.89 230.603L270.104 240.417L272.09 241.003L273.25 236.897L273.637 237.017L274.624 237.403L275.104 237.99L275.717 239.723L276.557 242.283L278.93 242.963L278.25 240.71L277.597 238.777L276.757 237.643L278.97 237.31L280.157 235.67V234.003L279.264 232.737L277.064 231.803L272.89 230.603Z" fill="#28863C"/>
<path d="M286.903 243.977L285.264 242.443L285.383 239.71L286.997 237.47L289.197 237.31L290.864 238.803L290.717 241.537L289.077 243.777L286.903 243.977ZM287.53 235.31L285.983 235.737L284.65 236.75L283.37 239.07V243.15L286.344 245.617L290.183 245.483L292.703 242.27V238.15L289.757 235.643L287.53 235.31Z" fill="#28863C"/>
<path d="M300.623 240.23L298.089 241.243L296.396 243.59L295.916 246.35L296.81 248.817L299.169 250.497L301.636 251.003L303.81 250.67L305.316 246.923L301.223 245.243L300.556 246.83L302.769 247.723L302.263 248.937L301.01 249.07L299.703 248.817L298.089 247.163L298.356 244.337L300.089 242.283L302.41 242.31L303.596 243.283L303.889 244.697L305.916 245.123L305.503 242.563L303.063 240.71L300.623 240.23Z" fill="#28863C"/>
<path d="M314.636 250.643L312.93 249.963L311.543 249.283L312.636 246.963L314.13 247.67L315.436 248.337L315.97 249.03L315.849 249.897L315.356 250.497L314.636 250.643ZM311.543 244.537L307.156 253.737L309.01 254.63L310.863 250.777L311.21 250.95L312.103 251.497L312.49 252.15L312.81 253.977L313.21 256.617L315.436 257.683L315.17 255.35L314.81 253.337L314.196 252.097L316.423 252.137L317.81 250.697L318.143 249.057L317.463 247.67L315.436 246.39L311.543 244.537Z" fill="#28863C"/>
<path d="M323.29 250.257L318.41 259.23L325.25 262.937L326.064 261.417L321.064 258.697L322.37 256.27L326.864 258.697L327.69 257.19L323.17 254.764L324.237 252.75L329.117 255.377L329.93 253.87L323.29 250.257Z" fill="#28863C"/>
<path d="M335.25 257.19L333.637 257.403L332.517 258.43L332.25 260.67L333.704 262.737L334.89 263.963L335.304 264.723L335.157 265.377L334.21 265.95L332.69 265.537L331.677 264.363L331.837 262.697L330.01 261.83L329.717 264.697L331.797 267.003L333.877 267.843L335.664 267.603L336.917 266.43L337.383 264.83L336.983 263.35L335.49 261.563L334.21 260.017L334.264 259.337L334.864 258.937L336.264 259.363L337.21 260.337L337.104 261.603L338.904 262.603L339.183 260.137L337.157 257.923L335.25 257.19Z" fill="#28863C"/>
<path d="M345.717 263.75L344.09 263.883L342.89 264.857L342.503 267.083L343.877 269.217L345.01 270.51L345.357 271.31L345.183 271.91L344.237 272.457L342.743 271.963L341.77 270.723L342.01 269.097L340.223 268.137L339.797 270.99L341.77 273.39L343.823 274.337L345.57 274.163L346.917 273.07L347.477 271.497L347.117 269.99L345.69 268.15L344.503 266.537L344.583 265.83L345.25 265.523L346.61 265.99L347.477 267.003L347.33 268.27L349.077 269.337L349.464 266.91L347.57 264.577L345.717 263.75Z" fill="#28863C"/>
<path d="M355.236 279.857L353.103 279.337L352.023 277.417L352.956 274.817L355.183 273.19L357.33 273.737L358.45 275.657L357.503 278.203L355.236 279.857ZM354.77 271.243L353.196 271.803L351.223 273.577L350.01 277.443L352.023 280.75L355.743 281.79L359.143 279.537L360.423 275.603L358.396 272.31L356.37 271.31L354.77 271.243Z" fill="#28863C"/>
</svg>
